<svg width="858" height="341" viewBox="0 0 858 341" fill="none" xmlns="http://www.w3.org/2000/svg">
<circle cx="518.931" cy="131.5" r="131.5" fill="#FFEFE9"/>
<circle cx="348.931" cy="206.5" r="97.5" fill="#FEFBE8"/>
<circle cx="489.931" cy="262.5" r="78.5" fill="#EBF5FF"/>
<mask id="path-4-outside-1_12167_1140" maskUnits="userSpaceOnUse" x="470.431" y="109" width="387" height="45" fill="black">
<rect fill="white" x="470.431" y="109" width="387" height="45"/>
<path d="M470.431 110H857.431V154H470.431V110Z"/>
</mask>
<path d="M470.431 111H857.431V109H470.431V111Z" fill="#D2D2D2" mask="url(#path-4-outside-1_12167_1140)"/>
<path d="M475.956 145V121.96L478.476 124.48H470.916V119.8H481.788V145H475.956ZM496.965 145.432C494.901 145.432 493.053 144.928 491.421 143.92C489.789 142.888 488.505 141.4 487.569 139.456C486.633 137.512 486.165 135.16 486.165 132.4C486.165 129.64 486.633 127.288 487.569 125.344C488.505 123.4 489.789 121.924 491.421 120.916C493.053 119.884 494.901 119.368 496.965 119.368C499.053 119.368 500.901 119.884 502.509 120.916C504.141 121.924 505.425 123.4 506.361 125.344C507.297 127.288 507.765 129.64 507.765 132.4C507.765 135.16 507.297 137.512 506.361 139.456C505.425 141.4 504.141 142.888 502.509 143.92C500.901 144.928 499.053 145.432 496.965 145.432ZM496.965 140.5C497.949 140.5 498.801 140.224 499.521 139.672C500.265 139.12 500.841 138.244 501.249 137.044C501.681 135.844 501.897 134.296 501.897 132.4C501.897 130.504 501.681 128.956 501.249 127.756C500.841 126.556 500.265 125.68 499.521 125.128C498.801 124.576 497.949 124.3 496.965 124.3C496.005 124.3 495.153 124.576 494.409 125.128C493.689 125.68 493.113 126.556 492.681 127.756C492.273 128.956 492.069 130.504 492.069 132.4C492.069 134.296 492.273 135.844 492.681 137.044C493.113 138.244 493.689 139.12 494.409 139.672C495.153 140.224 496.005 140.5 496.965 140.5ZM521.399 145.432C519.335 145.432 517.487 144.928 515.855 143.92C514.223 142.888 512.939 141.4 512.003 139.456C511.067 137.512 510.599 135.16 510.599 132.4C510.599 129.64 511.067 127.288 512.003 125.344C512.939 123.4 514.223 121.924 515.855 120.916C517.487 119.884 519.335 119.368 521.399 119.368C523.487 119.368 525.335 119.884 526.943 120.916C528.575 121.924 529.859 123.4 530.795 125.344C531.731 127.288 532.199 129.64 532.199 132.4C532.199 135.16 531.731 137.512 530.795 139.456C529.859 141.4 528.575 142.888 526.943 143.92C525.335 144.928 523.487 145.432 521.399 145.432ZM521.399 140.5C522.383 140.5 523.235 140.224 523.955 139.672C524.699 139.12 525.275 138.244 525.683 137.044C526.115 135.844 526.331 134.296 526.331 132.4C526.331 130.504 526.115 128.956 525.683 127.756C525.275 126.556 524.699 125.68 523.955 125.128C523.235 124.576 522.383 124.3 521.399 124.3C520.439 124.3 519.587 124.576 518.843 125.128C518.123 125.68 517.547 126.556 517.115 127.756C516.707 128.956 516.503 130.504 516.503 132.4C516.503 134.296 516.707 135.844 517.115 137.044C517.547 138.244 518.123 139.12 518.843 139.672C519.587 140.224 520.439 140.5 521.399 140.5ZM538.668 145L555.876 119.8H560.16L542.952 145H538.668ZM540.864 133.408C539.64 133.408 538.56 133.132 537.624 132.58C536.688 132.004 535.944 131.2 535.392 130.168C534.864 129.112 534.6 127.876 534.6 126.46C534.6 125.044 534.864 123.82 535.392 122.788C535.944 121.756 536.688 120.952 537.624 120.376C538.56 119.8 539.64 119.512 540.864 119.512C542.088 119.512 543.168 119.8 544.104 120.376C545.04 120.952 545.772 121.756 546.3 122.788C546.828 123.82 547.092 125.044 547.092 126.46C547.092 127.876 546.828 129.112 546.3 130.168C545.772 131.2 545.04 132.004 544.104 132.58C543.168 133.132 542.088 133.408 540.864 133.408ZM540.864 130.456C541.656 130.456 542.292 130.132 542.772 129.484C543.252 128.812 543.492 127.804 543.492 126.46C543.492 125.116 543.252 124.12 542.772 123.472C542.292 122.8 541.656 122.464 540.864 122.464C540.096 122.464 539.46 122.8 538.956 123.472C538.476 124.12 538.236 125.116 538.236 126.46C538.236 127.78 538.476 128.776 538.956 129.448C539.46 130.12 540.096 130.456 540.864 130.456ZM557.964 145.288C556.764 145.288 555.684 145.012 554.724 144.46C553.788 143.884 553.056 143.08 552.528 142.048C552 140.992 551.736 139.756 551.736 138.34C551.736 136.924 552 135.7 552.528 134.668C553.056 133.636 553.788 132.832 554.724 132.256C555.684 131.68 556.764 131.392 557.964 131.392C559.212 131.392 560.304 131.68 561.24 132.256C562.176 132.832 562.908 133.636 563.436 134.668C563.964 135.7 564.228 136.924 564.228 138.34C564.228 139.756 563.964 140.992 563.436 142.048C562.908 143.08 562.176 143.884 561.24 144.46C560.304 145.012 559.212 145.288 557.964 145.288ZM557.964 142.336C558.756 142.336 559.392 142.012 559.872 141.364C560.352 140.692 560.592 139.684 560.592 138.34C560.592 137.02 560.352 136.024 559.872 135.352C559.392 134.68 558.756 134.344 557.964 134.344C557.196 134.344 556.56 134.68 556.056 135.352C555.576 136 555.336 136.996 555.336 138.34C555.336 139.684 555.576 140.692 556.056 141.364C556.56 142.012 557.196 142.336 557.964 142.336Z" fill="#2B2A2E"/>
<path d="M714.044 138.16C713.255 138.16 712.524 138.016 711.852 137.728C711.191 137.429 710.615 137.019 710.124 136.496C709.634 135.963 709.255 135.339 708.988 134.624C708.722 133.899 708.588 133.104 708.588 132.24C708.588 131.376 708.722 130.587 708.988 129.872C709.255 129.147 709.628 128.523 710.108 128C710.599 127.467 711.175 127.056 711.836 126.768C712.508 126.469 713.239 126.32 714.028 126.32C714.892 126.32 715.666 126.496 716.348 126.848C717.042 127.2 717.607 127.696 718.044 128.336C718.492 128.976 718.77 129.723 718.876 130.576H717.564C717.436 129.627 717.058 128.88 716.428 128.336C715.81 127.781 715.015 127.504 714.044 127.504C713.223 127.504 712.503 127.707 711.884 128.112C711.266 128.507 710.786 129.061 710.444 129.776C710.103 130.48 709.932 131.301 709.932 132.24C709.932 133.179 710.103 134.005 710.444 134.72C710.786 135.424 711.266 135.979 711.884 136.384C712.503 136.779 713.218 136.976 714.028 136.976C715.02 136.976 715.831 136.699 716.46 136.144C717.1 135.589 717.479 134.843 717.596 133.904H718.908C718.802 134.757 718.524 135.504 718.076 136.144C717.639 136.784 717.074 137.28 716.38 137.632C715.698 137.984 714.919 138.16 714.044 138.16ZM724.305 138.16C723.526 138.16 722.838 137.979 722.241 137.616C721.644 137.243 721.174 136.736 720.833 136.096C720.492 135.456 720.321 134.72 720.321 133.888C720.321 133.056 720.486 132.325 720.817 131.696C721.158 131.056 721.633 130.56 722.241 130.208C722.849 129.856 723.548 129.68 724.337 129.68C725.094 129.68 725.75 129.845 726.305 130.176C726.87 130.507 727.302 130.971 727.601 131.568C727.91 132.165 728.065 132.869 728.065 133.68C728.065 133.787 728.06 133.888 728.049 133.984C728.049 134.08 728.038 134.187 728.017 134.304H721.281V133.232H727.233L726.817 133.824C726.817 132.843 726.598 132.091 726.161 131.568C725.734 131.035 725.126 130.768 724.337 130.768C723.526 130.768 722.87 131.051 722.369 131.616C721.878 132.171 721.633 132.923 721.633 133.872C721.633 134.843 721.878 135.621 722.369 136.208C722.87 136.784 723.537 137.072 724.369 137.072C724.892 137.072 725.35 136.96 725.745 136.736C726.14 136.501 726.428 136.171 726.609 135.744H727.825C727.558 136.491 727.11 137.083 726.481 137.52C725.862 137.947 725.137 138.16 724.305 138.16ZM730.072 138V129.84H731.272V131.92H731.352V138H730.072ZM731.352 133.744L731.144 131.808C731.336 131.115 731.677 130.587 732.168 130.224C732.659 129.861 733.224 129.68 733.864 129.68C734.131 129.68 734.312 129.701 734.408 129.744V130.976C734.355 130.955 734.28 130.944 734.184 130.944C734.088 130.933 733.971 130.928 733.832 130.928C733.021 130.928 732.403 131.173 731.976 131.664C731.56 132.144 731.352 132.837 731.352 133.744ZM739.604 138.144C738.697 138.144 738.036 137.941 737.62 137.536C737.214 137.12 737.012 136.523 737.012 135.744V127.936L738.292 127.456V135.728C738.292 136.187 738.409 136.523 738.644 136.736C738.878 136.949 739.262 137.056 739.796 137.056C740.009 137.056 740.19 137.045 740.34 137.024C740.5 136.992 740.628 136.955 740.724 136.912V138C740.617 138.043 740.462 138.075 740.26 138.096C740.068 138.128 739.849 138.144 739.604 138.144ZM735.332 130.928V129.84H740.724V130.928H735.332ZM742.451 138V129.84H743.731V138H742.451ZM742.355 127.984V126.48H743.827V127.984H742.355ZM747.015 138V128.688C747.015 127.941 747.229 127.36 747.655 126.944C748.093 126.528 748.754 126.32 749.639 126.32C749.853 126.32 750.018 126.331 750.135 126.352C750.263 126.373 750.37 126.4 750.455 126.432V127.44C750.381 127.419 750.274 127.397 750.135 127.376C750.007 127.355 749.869 127.344 749.719 127.344C749.229 127.344 748.866 127.467 748.631 127.712C748.407 127.957 748.295 128.304 748.295 128.752V138H747.015ZM752.167 138V129.84H753.447V138H752.167ZM745.335 130.928V129.84H752.887V130.928H745.335ZM752.071 127.984V126.48H753.543V127.984H752.071ZM759.236 138.16C758.457 138.16 757.769 137.979 757.172 137.616C756.575 137.243 756.105 136.736 755.764 136.096C755.423 135.456 755.252 134.72 755.252 133.888C755.252 133.056 755.417 132.325 755.748 131.696C756.089 131.056 756.564 130.56 757.172 130.208C757.78 129.856 758.479 129.68 759.268 129.68C760.025 129.68 760.681 129.845 761.236 130.176C761.801 130.507 762.233 130.971 762.532 131.568C762.841 132.165 762.996 132.869 762.996 133.68C762.996 133.787 762.991 133.888 762.98 133.984C762.98 134.08 762.969 134.187 762.948 134.304H756.212V133.232H762.164L761.748 133.824C761.748 132.843 761.529 132.091 761.092 131.568C760.665 131.035 760.057 130.768 759.268 130.768C758.457 130.768 757.801 131.051 757.3 131.616C756.809 132.171 756.564 132.923 756.564 133.872C756.564 134.843 756.809 135.621 757.3 136.208C757.801 136.784 758.468 137.072 759.3 137.072C759.823 137.072 760.281 136.96 760.676 136.736C761.071 136.501 761.359 136.171 761.54 135.744H762.756C762.489 136.491 762.041 137.083 761.412 137.52C760.793 137.947 760.068 138.16 759.236 138.16ZM770.939 138V136.096L771.099 136.144C770.897 136.763 770.523 137.253 769.979 137.616C769.446 137.979 768.806 138.16 768.059 138.16C767.323 138.16 766.678 137.984 766.123 137.632C765.579 137.28 765.153 136.789 764.843 136.16C764.545 135.531 764.395 134.795 764.395 133.952C764.395 133.099 764.55 132.352 764.859 131.712C765.169 131.072 765.601 130.576 766.155 130.224C766.71 129.872 767.361 129.696 768.107 129.696C768.875 129.696 769.521 129.883 770.043 130.256C770.566 130.629 770.923 131.157 771.115 131.84L770.859 131.872V126.48H772.139V138H770.939ZM768.299 137.04C769.121 137.04 769.761 136.763 770.219 136.208C770.689 135.643 770.923 134.875 770.923 133.904C770.923 132.955 770.689 132.203 770.219 131.648C769.75 131.093 769.11 130.816 768.299 130.816C767.489 130.816 766.854 131.093 766.395 131.648C765.937 132.203 765.707 132.971 765.707 133.952C765.707 134.912 765.937 135.669 766.395 136.224C766.854 136.768 767.489 137.04 768.299 137.04ZM778.166 138V126.48H779.478V138H778.166ZM782.212 138V129.84H783.412V131.76H783.492V138H782.212ZM788.052 138V132.656C788.052 132.037 787.897 131.573 787.588 131.264C787.279 130.955 786.82 130.8 786.212 130.8C785.679 130.8 785.204 130.917 784.788 131.152C784.383 131.387 784.063 131.712 783.828 132.128C783.604 132.544 783.492 133.029 783.492 133.584L783.284 131.648C783.561 131.04 783.983 130.56 784.548 130.208C785.124 129.856 785.775 129.68 786.5 129.68C787.353 129.68 788.036 129.925 788.548 130.416C789.071 130.896 789.332 131.531 789.332 132.32V138H788.052ZM794.607 138.16C793.604 138.16 792.804 137.931 792.207 137.472C791.61 137.003 791.268 136.341 791.183 135.488H792.415C792.49 136.011 792.719 136.411 793.103 136.688C793.487 136.965 793.999 137.104 794.639 137.104C795.204 137.104 795.647 136.997 795.967 136.784C796.287 136.571 796.447 136.267 796.447 135.872C796.447 135.595 796.356 135.355 796.175 135.152C795.994 134.939 795.631 134.763 795.087 134.624L793.775 134.288C793.028 134.096 792.468 133.803 792.095 133.408C791.722 133.003 791.535 132.523 791.535 131.968C791.535 131.264 791.796 130.709 792.319 130.304C792.842 129.888 793.551 129.68 794.447 129.68C795.332 129.68 796.052 129.893 796.607 130.32C797.162 130.747 797.476 131.339 797.551 132.096H796.319C796.244 131.659 796.042 131.323 795.711 131.088C795.38 130.853 794.943 130.736 794.399 130.736C793.876 130.736 793.471 130.837 793.183 131.04C792.895 131.232 792.751 131.509 792.751 131.872C792.751 132.149 792.852 132.389 793.055 132.592C793.268 132.795 793.62 132.965 794.111 133.104L795.391 133.456C796.148 133.659 796.719 133.968 797.103 134.384C797.487 134.8 797.679 135.301 797.679 135.888C797.679 136.603 797.407 137.163 796.863 137.568C796.319 137.963 795.567 138.16 794.607 138.16ZM802.745 138.144C801.839 138.144 801.177 137.941 800.761 137.536C800.356 137.12 800.153 136.523 800.153 135.744V127.936L801.433 127.456V135.728C801.433 136.187 801.551 136.523 801.785 136.736C802.02 136.949 802.404 137.056 802.937 137.056C803.151 137.056 803.332 137.045 803.481 137.024C803.641 136.992 803.769 136.955 803.865 136.912V138C803.759 138.043 803.604 138.075 803.401 138.096C803.209 138.128 802.991 138.144 802.745 138.144ZM798.473 130.928V129.84H803.865V130.928H798.473ZM805.593 138V129.84H806.793V131.92H806.873V138H805.593ZM806.873 133.744L806.665 131.808C806.857 131.115 807.198 130.587 807.689 130.224C808.179 129.861 808.745 129.68 809.385 129.68C809.651 129.68 809.833 129.701 809.929 129.744V130.976C809.875 130.955 809.801 130.944 809.705 130.944C809.609 130.933 809.491 130.928 809.353 130.928C808.542 130.928 807.923 131.173 807.497 131.664C807.081 132.144 806.873 132.837 806.873 133.744ZM814.204 138.16C813.67 138.16 813.196 138.053 812.78 137.84C812.364 137.616 812.038 137.307 811.804 136.912C811.569 136.507 811.452 136.043 811.452 135.52V129.84H812.732V135.184C812.732 135.803 812.881 136.267 813.18 136.576C813.489 136.885 813.926 137.04 814.492 137.04C815.004 137.04 815.457 136.923 815.852 136.688C816.246 136.453 816.556 136.128 816.78 135.712C817.014 135.285 817.132 134.8 817.132 134.256L817.34 136.192C817.073 136.8 816.657 137.28 816.092 137.632C815.526 137.984 814.897 138.16 814.204 138.16ZM817.212 138V136.08H817.132V129.84H818.412V138H817.212ZM824.25 138.16C823.504 138.16 822.837 137.979 822.25 137.616C821.674 137.243 821.216 136.736 820.874 136.096C820.544 135.445 820.378 134.709 820.378 133.888C820.378 133.067 820.544 132.341 820.874 131.712C821.216 131.083 821.674 130.587 822.25 130.224C822.837 129.861 823.498 129.68 824.234 129.68C824.842 129.68 825.386 129.797 825.866 130.032C826.357 130.267 826.757 130.603 827.066 131.04C827.386 131.467 827.589 131.968 827.674 132.544H826.49C826.384 132.021 826.138 131.595 825.754 131.264C825.37 130.933 824.874 130.768 824.266 130.768C823.744 130.768 823.29 130.896 822.906 131.152C822.522 131.408 822.224 131.771 822.01 132.24C821.797 132.709 821.69 133.259 821.69 133.888C821.69 134.517 821.797 135.072 822.01 135.552C822.224 136.032 822.522 136.405 822.906 136.672C823.301 136.939 823.76 137.072 824.282 137.072C824.869 137.072 825.36 136.912 825.754 136.592C826.149 136.261 826.4 135.835 826.506 135.312H827.69C827.594 135.877 827.381 136.379 827.05 136.816C826.73 137.243 826.33 137.573 825.85 137.808C825.37 138.043 824.837 138.16 824.25 138.16ZM832.862 138.144C831.956 138.144 831.294 137.941 830.878 137.536C830.473 137.12 830.27 136.523 830.27 135.744V127.936L831.55 127.456V135.728C831.55 136.187 831.668 136.523 831.902 136.736C832.137 136.949 832.521 137.056 833.054 137.056C833.268 137.056 833.449 137.045 833.598 137.024C833.758 136.992 833.886 136.955 833.982 136.912V138C833.876 138.043 833.721 138.075 833.518 138.096C833.326 138.128 833.108 138.144 832.862 138.144ZM828.59 130.928V129.84H833.982V130.928H828.59ZM838.914 138.16C838.114 138.16 837.41 137.973 836.802 137.6C836.194 137.227 835.719 136.72 835.378 136.08C835.047 135.429 834.882 134.699 834.882 133.888C834.882 133.067 835.053 132.341 835.394 131.712C835.735 131.083 836.205 130.587 836.802 130.224C837.41 129.861 838.114 129.68 838.914 129.68C839.725 129.68 840.429 129.861 841.026 130.224C841.634 130.587 842.103 131.083 842.434 131.712C842.775 132.341 842.946 133.067 842.946 133.888C842.946 134.699 842.775 135.429 842.434 136.08C842.103 136.72 841.634 137.227 841.026 137.6C840.429 137.973 839.725 138.16 838.914 138.16ZM838.914 137.072C839.469 137.072 839.949 136.939 840.354 136.672C840.759 136.395 841.074 136.016 841.298 135.536C841.522 135.056 841.634 134.501 841.634 133.872C841.634 132.933 841.383 132.181 840.882 131.616C840.391 131.051 839.735 130.768 838.914 130.768C838.103 130.768 837.447 131.051 836.946 131.616C836.445 132.181 836.194 132.933 836.194 133.872C836.194 134.501 836.306 135.056 836.53 135.536C836.754 136.016 837.069 136.395 837.474 136.672C837.89 136.939 838.37 137.072 838.914 137.072ZM844.946 138V129.84H846.146V131.92H846.226V138H844.946ZM846.226 133.744L846.018 131.808C846.21 131.115 846.551 130.587 847.042 130.224C847.532 129.861 848.098 129.68 848.738 129.68C849.004 129.68 849.186 129.701 849.282 129.744V130.976C849.228 130.955 849.154 130.944 849.058 130.944C848.962 130.933 848.844 130.928 848.706 130.928C847.895 130.928 847.276 131.173 846.85 131.664C846.434 132.144 846.226 132.837 846.226 133.744ZM853.559 138.16C852.557 138.16 851.757 137.931 851.159 137.472C850.562 137.003 850.221 136.341 850.135 135.488H851.367C851.442 136.011 851.671 136.411 852.055 136.688C852.439 136.965 852.951 137.104 853.591 137.104C854.157 137.104 854.599 136.997 854.919 136.784C855.239 136.571 855.399 136.267 855.399 135.872C855.399 135.595 855.309 135.355 855.127 135.152C854.946 134.939 854.583 134.763 854.039 134.624L852.727 134.288C851.981 134.096 851.421 133.803 851.047 133.408C850.674 133.003 850.487 132.523 850.487 131.968C850.487 131.264 850.749 130.709 851.271 130.304C851.794 129.888 852.503 129.68 853.399 129.68C854.285 129.68 855.005 129.893 855.559 130.32C856.114 130.747 856.429 131.339 856.503 132.096H855.271C855.197 131.659 854.994 131.323 854.663 131.088C854.333 130.853 853.895 130.736 853.351 130.736C852.829 130.736 852.423 130.837 852.135 131.04C851.847 131.232 851.703 131.509 851.703 131.872C851.703 132.149 851.805 132.389 852.007 132.592C852.221 132.795 852.573 132.965 853.063 133.104L854.343 133.456C855.101 133.659 855.671 133.968 856.055 134.384C856.439 134.8 856.631 135.301 856.631 135.888C856.631 136.603 856.359 137.163 855.815 137.568C855.271 137.963 854.519 138.16 853.559 138.16Z" fill="#2B2A2E"/>
<mask id="path-8-outside-2_12167_1140" maskUnits="userSpaceOnUse" x="457.431" y="240" width="387" height="45" fill="black">
<rect fill="white" x="457.431" y="240" width="387" height="45"/>
<path d="M457.431 241H844.431V285H457.431V241Z"/>
</mask>
<path d="M457.431 242H844.431V240H457.431V242Z" fill="#D2D2D2" mask="url(#path-8-outside-2_12167_1140)"/>
<path d="M463.129 276V252.96L465.649 255.48H458.089V250.8H468.961V276H463.129ZM484.139 276.432C482.075 276.432 480.227 275.928 478.595 274.92C476.963 273.888 475.679 272.4 474.743 270.456C473.807 268.512 473.339 266.16 473.339 263.4C473.339 260.64 473.807 258.288 474.743 256.344C475.679 254.4 476.963 252.924 478.595 251.916C480.227 250.884 482.075 250.368 484.139 250.368C486.227 250.368 488.075 250.884 489.683 251.916C491.315 252.924 492.599 254.4 493.535 256.344C494.471 258.288 494.939 260.64 494.939 263.4C494.939 266.16 494.471 268.512 493.535 270.456C492.599 272.4 491.315 273.888 489.683 274.92C488.075 275.928 486.227 276.432 484.139 276.432ZM484.139 271.5C485.123 271.5 485.975 271.224 486.695 270.672C487.439 270.12 488.015 269.244 488.423 268.044C488.855 266.844 489.071 265.296 489.071 263.4C489.071 261.504 488.855 259.956 488.423 258.756C488.015 257.556 487.439 256.68 486.695 256.128C485.975 255.576 485.123 255.3 484.139 255.3C483.179 255.3 482.327 255.576 481.583 256.128C480.863 256.68 480.287 257.556 479.855 258.756C479.447 259.956 479.243 261.504 479.243 263.4C479.243 265.296 479.447 266.844 479.855 268.044C480.287 269.244 480.863 270.12 481.583 270.672C482.327 271.224 483.179 271.5 484.139 271.5ZM504.934 271.716V255.084H509.578V271.716H504.934ZM498.706 265.596V261.204H515.842V265.596H498.706Z" fill="#2B2A2E"/>
<path d="M702.65 269V263.784L698.282 257.48H699.882L703.674 263.016H703.066L706.858 257.48H708.33L703.962 263.784V269H702.65ZM711.867 269.16C711.089 269.16 710.401 268.979 709.803 268.616C709.206 268.243 708.737 267.736 708.395 267.096C708.054 266.456 707.883 265.72 707.883 264.888C707.883 264.056 708.049 263.325 708.379 262.696C708.721 262.056 709.195 261.56 709.803 261.208C710.411 260.856 711.11 260.68 711.899 260.68C712.657 260.68 713.313 260.845 713.867 261.176C714.433 261.507 714.865 261.971 715.163 262.568C715.473 263.165 715.627 263.869 715.627 264.68C715.627 264.787 715.622 264.888 715.611 264.984C715.611 265.08 715.601 265.187 715.579 265.304H708.843V264.232H714.795L714.379 264.824C714.379 263.843 714.161 263.091 713.723 262.568C713.297 262.035 712.689 261.768 711.899 261.768C711.089 261.768 710.433 262.051 709.931 262.616C709.441 263.171 709.195 263.923 709.195 264.872C709.195 265.843 709.441 266.621 709.931 267.208C710.433 267.784 711.099 268.072 711.931 268.072C712.454 268.072 712.913 267.96 713.307 267.736C713.702 267.501 713.99 267.171 714.171 266.744H715.387C715.121 267.491 714.673 268.083 714.043 268.52C713.425 268.947 712.699 269.16 711.867 269.16ZM722.596 269C722.553 268.819 722.521 268.611 722.5 268.376C722.489 268.141 722.484 267.843 722.484 267.48H722.404V263.576C722.404 262.957 722.26 262.504 721.972 262.216C721.694 261.917 721.241 261.768 720.612 261.768C719.993 261.768 719.497 261.896 719.124 262.152C718.761 262.397 718.558 262.749 718.516 263.208H717.284C717.337 262.419 717.668 261.8 718.276 261.352C718.884 260.904 719.678 260.68 720.66 260.68C721.673 260.68 722.425 260.92 722.916 261.4C723.406 261.88 723.652 262.6 723.652 263.56V267.48C723.652 267.715 723.668 267.96 723.7 268.216C723.732 268.461 723.774 268.723 723.828 269H722.596ZM719.796 269.16C718.953 269.16 718.281 268.957 717.78 268.552C717.289 268.136 717.044 267.571 717.044 266.856C717.044 266.141 717.289 265.587 717.78 265.192C718.27 264.797 718.985 264.52 719.924 264.36L722.772 263.88V264.936L720.116 265.352C719.518 265.448 719.065 265.608 718.756 265.832C718.446 266.056 718.292 266.381 718.292 266.808C718.292 267.224 718.43 267.539 718.708 267.752C718.996 267.965 719.417 268.072 719.972 268.072C720.686 268.072 721.268 267.912 721.716 267.592C722.174 267.261 722.404 266.835 722.404 266.312L722.612 267.448C722.441 267.992 722.105 268.413 721.604 268.712C721.113 269.011 720.51 269.16 719.796 269.16ZM726.199 269V260.84H727.399V262.92H727.479V269H726.199ZM727.479 264.744L727.271 262.808C727.463 262.115 727.804 261.587 728.295 261.224C728.786 260.861 729.351 260.68 729.991 260.68C730.258 260.68 730.439 260.701 730.535 260.744V261.976C730.482 261.955 730.407 261.944 730.311 261.944C730.215 261.933 730.098 261.928 729.959 261.928C729.148 261.928 728.53 262.173 728.103 262.664C727.687 263.144 727.479 263.837 727.479 264.744ZM734.813 269.16C733.81 269.16 733.01 268.931 732.413 268.472C731.815 268.003 731.474 267.341 731.389 266.488H732.621C732.695 267.011 732.925 267.411 733.309 267.688C733.693 267.965 734.205 268.104 734.845 268.104C735.41 268.104 735.853 267.997 736.173 267.784C736.493 267.571 736.653 267.267 736.653 266.872C736.653 266.595 736.562 266.355 736.381 266.152C736.199 265.939 735.837 265.763 735.293 265.624L733.981 265.288C733.234 265.096 732.674 264.803 732.301 264.408C731.927 264.003 731.741 263.523 731.741 262.968C731.741 262.264 732.002 261.709 732.525 261.304C733.047 260.888 733.757 260.68 734.653 260.68C735.538 260.68 736.258 260.893 736.813 261.32C737.367 261.747 737.682 262.339 737.757 263.096H736.525C736.45 262.659 736.247 262.323 735.917 262.088C735.586 261.853 735.149 261.736 734.605 261.736C734.082 261.736 733.677 261.837 733.389 262.04C733.101 262.232 732.957 262.509 732.957 262.872C732.957 263.149 733.058 263.389 733.261 263.592C733.474 263.795 733.826 263.965 734.317 264.104L735.597 264.456C736.354 264.659 736.925 264.968 737.309 265.384C737.693 265.8 737.885 266.301 737.885 266.888C737.885 267.603 737.613 268.163 737.069 268.568C736.525 268.963 735.773 269.16 734.813 269.16ZM746.362 269.16C745.562 269.16 744.858 268.973 744.25 268.6C743.642 268.227 743.168 267.72 742.826 267.08C742.496 266.429 742.33 265.699 742.33 264.888C742.33 264.067 742.501 263.341 742.842 262.712C743.184 262.083 743.653 261.587 744.25 261.224C744.858 260.861 745.562 260.68 746.362 260.68C747.173 260.68 747.877 260.861 748.474 261.224C749.082 261.587 749.552 262.083 749.882 262.712C750.224 263.341 750.394 264.067 750.394 264.888C750.394 265.699 750.224 266.429 749.882 267.08C749.552 267.72 749.082 268.227 748.474 268.6C747.877 268.973 747.173 269.16 746.362 269.16ZM746.362 268.072C746.917 268.072 747.397 267.939 747.802 267.672C748.208 267.395 748.522 267.016 748.746 266.536C748.97 266.056 749.082 265.501 749.082 264.872C749.082 263.933 748.832 263.181 748.33 262.616C747.84 262.051 747.184 261.768 746.362 261.768C745.552 261.768 744.896 262.051 744.394 262.616C743.893 263.181 743.642 263.933 743.642 264.872C743.642 265.501 743.754 266.056 743.978 266.536C744.202 267.016 744.517 267.395 744.922 267.672C745.338 267.939 745.818 268.072 746.362 268.072ZM752.988 269V259.688C752.988 258.941 753.201 258.36 753.628 257.944C754.065 257.528 754.727 257.32 755.612 257.32C755.825 257.32 755.991 257.331 756.108 257.352C756.236 257.373 756.343 257.4 756.428 257.432V258.44C756.353 258.419 756.247 258.397 756.108 258.376C755.98 258.355 755.841 258.344 755.692 258.344C755.201 258.344 754.839 258.467 754.604 258.712C754.38 258.957 754.268 259.304 754.268 259.752V269H752.988ZM751.308 261.928V260.84H756.252V261.928H751.308ZM761.431 269V257.48H762.743V269H761.431ZM762.103 269V267.848H769.143V269H762.103ZM762.103 263.576V262.424H768.567V263.576H762.103ZM762.103 258.632V257.48H769.015V258.632H762.103ZM776.701 269L773.997 265.208L770.765 260.84H772.253L774.749 264.344L778.189 269H776.701ZM774.077 264.408L776.637 260.84H778.077L774.749 265.272L774.077 264.408ZM774.621 265.288L771.853 269H770.397L773.997 264.376L774.621 265.288ZM784.09 269.144C783.322 269.144 782.676 268.957 782.154 268.584C781.631 268.211 781.274 267.683 781.082 267L781.338 266.968V272.28H780.058V260.84H781.258V262.744L781.082 262.696C781.284 262.067 781.668 261.576 782.234 261.224C782.799 260.861 783.455 260.68 784.202 260.68C784.927 260.68 785.556 260.856 786.09 261.208C786.634 261.56 787.055 262.051 787.354 262.68C787.652 263.309 787.802 264.045 787.802 264.888C787.802 265.741 787.647 266.488 787.338 267.128C787.028 267.768 786.596 268.264 786.042 268.616C785.487 268.968 784.836 269.144 784.09 269.144ZM783.898 268.024C784.708 268.024 785.343 267.747 785.802 267.192C786.26 266.627 786.49 265.859 786.49 264.888C786.49 263.928 786.26 263.176 785.802 262.632C785.343 262.077 784.708 261.8 783.898 261.8C783.087 261.8 782.447 262.083 781.978 262.648C781.508 263.203 781.274 263.965 781.274 264.936C781.274 265.885 781.508 266.637 781.978 267.192C782.447 267.747 783.087 268.024 783.898 268.024ZM793.185 269.16C792.406 269.16 791.718 268.979 791.121 268.616C790.524 268.243 790.054 267.736 789.713 267.096C789.372 266.456 789.201 265.72 789.201 264.888C789.201 264.056 789.366 263.325 789.697 262.696C790.038 262.056 790.513 261.56 791.121 261.208C791.729 260.856 792.428 260.68 793.217 260.68C793.974 260.68 794.63 260.845 795.185 261.176C795.75 261.507 796.182 261.971 796.481 262.568C796.79 263.165 796.945 263.869 796.945 264.68C796.945 264.787 796.94 264.888 796.929 264.984C796.929 265.08 796.918 265.187 796.897 265.304H790.161V264.232H796.113L795.697 264.824C795.697 263.843 795.478 263.091 795.041 262.568C794.614 262.035 794.006 261.768 793.217 261.768C792.406 261.768 791.75 262.051 791.249 262.616C790.758 263.171 790.513 263.923 790.513 264.872C790.513 265.843 790.758 266.621 791.249 267.208C791.75 267.784 792.417 268.072 793.249 268.072C793.772 268.072 794.23 267.96 794.625 267.736C795.02 267.501 795.308 267.171 795.489 266.744H796.705C796.438 267.491 795.99 268.083 795.361 268.52C794.742 268.947 794.017 269.16 793.185 269.16ZM798.952 269V260.84H800.152V262.92H800.232V269H798.952ZM800.232 264.744L800.024 262.808C800.216 262.115 800.557 261.587 801.048 261.224C801.539 260.861 802.104 260.68 802.744 260.68C803.011 260.68 803.192 260.701 803.288 260.744V261.976C803.235 261.955 803.16 261.944 803.064 261.944C802.968 261.933 802.851 261.928 802.712 261.928C801.901 261.928 801.283 262.173 800.856 262.664C800.44 263.144 800.232 263.837 800.232 264.744ZM804.891 269V260.84H806.171V269H804.891ZM804.795 258.984V257.48H806.267V258.984H804.795ZM812.128 269.16C811.349 269.16 810.661 268.979 810.064 268.616C809.467 268.243 808.997 267.736 808.656 267.096C808.315 266.456 808.144 265.72 808.144 264.888C808.144 264.056 808.309 263.325 808.64 262.696C808.981 262.056 809.456 261.56 810.064 261.208C810.672 260.856 811.371 260.68 812.16 260.68C812.917 260.68 813.573 260.845 814.128 261.176C814.693 261.507 815.125 261.971 815.424 262.568C815.733 263.165 815.888 263.869 815.888 264.68C815.888 264.787 815.883 264.888 815.872 264.984C815.872 265.08 815.861 265.187 815.84 265.304H809.104V264.232H815.056L814.64 264.824C814.64 263.843 814.421 263.091 813.984 262.568C813.557 262.035 812.949 261.768 812.16 261.768C811.349 261.768 810.693 262.051 810.192 262.616C809.701 263.171 809.456 263.923 809.456 264.872C809.456 265.843 809.701 266.621 810.192 267.208C810.693 267.784 811.36 268.072 812.192 268.072C812.715 268.072 813.173 267.96 813.568 267.736C813.963 267.501 814.251 267.171 814.432 266.744H815.648C815.381 267.491 814.933 268.083 814.304 268.52C813.685 268.947 812.96 269.16 812.128 269.16ZM817.895 269V260.84H819.095V262.76H819.175V269H817.895ZM823.735 269V263.656C823.735 263.037 823.581 262.573 823.271 262.264C822.962 261.955 822.503 261.8 821.895 261.8C821.362 261.8 820.887 261.917 820.471 262.152C820.066 262.387 819.746 262.712 819.511 263.128C819.287 263.544 819.175 264.029 819.175 264.584L818.967 262.648C819.245 262.04 819.666 261.56 820.231 261.208C820.807 260.856 821.458 260.68 822.183 260.68C823.037 260.68 823.719 260.925 824.231 261.416C824.754 261.896 825.015 262.531 825.015 263.32V269H823.735ZM830.785 269.16C830.039 269.16 829.372 268.979 828.785 268.616C828.209 268.243 827.751 267.736 827.409 267.096C827.079 266.445 826.913 265.709 826.913 264.888C826.913 264.067 827.079 263.341 827.409 262.712C827.751 262.083 828.209 261.587 828.785 261.224C829.372 260.861 830.033 260.68 830.769 260.68C831.377 260.68 831.921 260.797 832.401 261.032C832.892 261.267 833.292 261.603 833.601 262.04C833.921 262.467 834.124 262.968 834.209 263.544H833.025C832.919 263.021 832.673 262.595 832.289 262.264C831.905 261.933 831.409 261.768 830.801 261.768C830.279 261.768 829.825 261.896 829.441 262.152C829.057 262.408 828.759 262.771 828.545 263.24C828.332 263.709 828.225 264.259 828.225 264.888C828.225 265.517 828.332 266.072 828.545 266.552C828.759 267.032 829.057 267.405 829.441 267.672C829.836 267.939 830.295 268.072 830.817 268.072C831.404 268.072 831.895 267.912 832.289 267.592C832.684 267.261 832.935 266.835 833.041 266.312H834.225C834.129 266.877 833.916 267.379 833.585 267.816C833.265 268.243 832.865 268.573 832.385 268.808C831.905 269.043 831.372 269.16 830.785 269.16ZM839.477 269.16C838.699 269.16 838.011 268.979 837.413 268.616C836.816 268.243 836.347 267.736 836.005 267.096C835.664 266.456 835.493 265.72 835.493 264.888C835.493 264.056 835.659 263.325 835.989 262.696C836.331 262.056 836.805 261.56 837.413 261.208C838.021 260.856 838.72 260.68 839.509 260.68C840.267 260.68 840.923 260.845 841.477 261.176C842.043 261.507 842.475 261.971 842.773 262.568C843.083 263.165 843.237 263.869 843.237 264.68C843.237 264.787 843.232 264.888 843.221 264.984C843.221 265.08 843.211 265.187 843.189 265.304H836.453V264.232H842.405L841.989 264.824C841.989 263.843 841.771 263.091 841.333 262.568C840.907 262.035 840.299 261.768 839.509 261.768C838.699 261.768 838.043 262.051 837.541 262.616C837.051 263.171 836.805 263.923 836.805 264.872C836.805 265.843 837.051 266.621 837.541 267.208C838.043 267.784 838.709 268.072 839.541 268.072C840.064 268.072 840.523 267.96 840.917 267.736C841.312 267.501 841.6 267.171 841.781 266.744H842.997C842.731 267.491 842.283 268.083 841.653 268.52C841.035 268.947 840.309 269.16 839.477 269.16Z" fill="#2B2A2E"/>
<mask id="path-12-outside-3_12167_1140" maskUnits="userSpaceOnUse" x="0.431152" y="184" width="387" height="45" fill="black">
<rect fill="white" x="0.431152" y="184" width="387" height="45"/>
<path d="M0.431152 185H387.431V229H0.431152V185Z"/>
</mask>
<path d="M0.431152 186H387.431V184H0.431152V186Z" fill="#D2D2D2" mask="url(#path-12-outside-3_12167_1140)"/>
<path d="M5.98334 213.144C4.63934 213.144 3.56734 212.813 2.76734 212.152C1.97801 211.491 1.51401 210.547 1.37534 209.32H2.65534C2.77267 210.205 3.10867 210.872 3.66334 211.32C4.21801 211.768 4.98601 211.992 5.96734 211.992C6.79934 211.992 7.42334 211.837 7.83934 211.528C8.26601 211.208 8.47934 210.744 8.47934 210.136C8.47934 209.613 8.33534 209.197 8.04734 208.888C7.75934 208.579 7.31134 208.323 6.70334 208.12L4.76734 207.448C3.78601 207.107 3.06067 206.696 2.59134 206.216C2.12201 205.725 1.88734 205.107 1.88734 204.36C1.88734 203.741 2.04201 203.208 2.35134 202.76C2.66067 202.301 3.09801 201.944 3.66334 201.688C4.22867 201.432 4.88467 201.304 5.63134 201.304C6.78334 201.304 7.70601 201.608 8.39934 202.216C9.09267 202.813 9.49267 203.667 9.59934 204.776H8.31934C8.18067 203.976 7.89267 203.389 7.45534 203.016C7.02867 202.643 6.41001 202.456 5.59934 202.456C4.83134 202.456 4.23401 202.611 3.80734 202.92C3.38067 203.229 3.16734 203.667 3.16734 204.232C3.16734 204.712 3.31667 205.096 3.61534 205.384C3.91401 205.672 4.37801 205.923 5.00734 206.136L7.07134 206.856C7.96734 207.165 8.63934 207.587 9.08734 208.12C9.53534 208.643 9.75934 209.309 9.75934 210.12C9.75934 211.08 9.42867 211.827 8.76734 212.36C8.11667 212.883 7.18867 213.144 5.98334 213.144ZM15.8297 213.144C15.0617 213.144 14.4164 212.957 13.8937 212.584C13.371 212.211 13.0137 211.683 12.8217 211L13.0777 210.968V216.28H11.7977V204.84H12.9977V206.744L12.8217 206.696C13.0244 206.067 13.4084 205.576 13.9737 205.224C14.539 204.861 15.195 204.68 15.9417 204.68C16.667 204.68 17.2964 204.856 17.8297 205.208C18.3737 205.56 18.795 206.051 19.0937 206.68C19.3924 207.309 19.5417 208.045 19.5417 208.888C19.5417 209.741 19.387 210.488 19.0777 211.128C18.7684 211.768 18.3364 212.264 17.7817 212.616C17.227 212.968 16.5764 213.144 15.8297 213.144ZM15.6377 212.024C16.4484 212.024 17.083 211.747 17.5417 211.192C18.0004 210.627 18.2297 209.859 18.2297 208.888C18.2297 207.928 18.0004 207.176 17.5417 206.632C17.083 206.077 16.4484 205.8 15.6377 205.8C14.827 205.8 14.187 206.083 13.7177 206.648C13.2484 207.203 13.0137 207.965 13.0137 208.936C13.0137 209.885 13.2484 210.637 13.7177 211.192C14.187 211.747 14.827 212.024 15.6377 212.024ZM24.9248 213.16C24.1462 213.16 23.4582 212.979 22.8608 212.616C22.2635 212.243 21.7942 211.736 21.4528 211.096C21.1115 210.456 20.9408 209.72 20.9408 208.888C20.9408 208.056 21.1062 207.325 21.4368 206.696C21.7782 206.056 22.2528 205.56 22.8608 205.208C23.4688 204.856 24.1675 204.68 24.9568 204.68C25.7142 204.68 26.3702 204.845 26.9248 205.176C27.4902 205.507 27.9222 205.971 28.2208 206.568C28.5302 207.165 28.6848 207.869 28.6848 208.68C28.6848 208.787 28.6795 208.888 28.6688 208.984C28.6688 209.08 28.6582 209.187 28.6368 209.304H21.9008V208.232H27.8528L27.4368 208.824C27.4368 207.843 27.2182 207.091 26.7808 206.568C26.3542 206.035 25.7462 205.768 24.9568 205.768C24.1462 205.768 23.4902 206.051 22.9888 206.616C22.4982 207.171 22.2528 207.923 22.2528 208.872C22.2528 209.843 22.4982 210.621 22.9888 211.208C23.4902 211.784 24.1568 212.072 24.9888 212.072C25.5115 212.072 25.9702 211.96 26.3648 211.736C26.7595 211.501 27.0475 211.171 27.2288 210.744H28.4448C28.1782 211.491 27.7302 212.083 27.1008 212.52C26.4822 212.947 25.7568 213.16 24.9248 213.16ZM33.9241 213.16C33.1774 213.16 32.5108 212.979 31.9241 212.616C31.3481 212.243 30.8894 211.736 30.5481 211.096C30.2174 210.445 30.0521 209.709 30.0521 208.888C30.0521 208.067 30.2174 207.341 30.5481 206.712C30.8894 206.083 31.3481 205.587 31.9241 205.224C32.5108 204.861 33.1721 204.68 33.9081 204.68C34.5161 204.68 35.0601 204.797 35.5401 205.032C36.0308 205.267 36.4308 205.603 36.7401 206.04C37.0601 206.467 37.2628 206.968 37.3481 207.544H36.1641C36.0574 207.021 35.8121 206.595 35.4281 206.264C35.0441 205.933 34.5481 205.768 33.9401 205.768C33.4174 205.768 32.9641 205.896 32.5801 206.152C32.1961 206.408 31.8974 206.771 31.6841 207.24C31.4708 207.709 31.3641 208.259 31.3641 208.888C31.3641 209.517 31.4708 210.072 31.6841 210.552C31.8974 211.032 32.1961 211.405 32.5801 211.672C32.9748 211.939 33.4334 212.072 33.9561 212.072C34.5428 212.072 35.0334 211.912 35.4281 211.592C35.8228 211.261 36.0734 210.835 36.1801 210.312H37.3641C37.2681 210.877 37.0548 211.379 36.7241 211.816C36.4041 212.243 36.0041 212.573 35.5241 212.808C35.0441 213.043 34.5108 213.16 33.9241 213.16ZM39.2408 213V204.84H40.5208V213H39.2408ZM39.1448 202.984V201.48H40.6168V202.984H39.1448ZM48.1257 213C48.083 212.819 48.051 212.611 48.0297 212.376C48.019 212.141 48.0137 211.843 48.0137 211.48H47.9337V207.576C47.9337 206.957 47.7897 206.504 47.5017 206.216C47.2244 205.917 46.771 205.768 46.1417 205.768C45.523 205.768 45.027 205.896 44.6537 206.152C44.291 206.397 44.0884 206.749 44.0457 207.208H42.8137C42.867 206.419 43.1977 205.8 43.8057 205.352C44.4137 204.904 45.2084 204.68 46.1897 204.68C47.203 204.68 47.955 204.92 48.4457 205.4C48.9364 205.88 49.1817 206.6 49.1817 207.56V211.48C49.1817 211.715 49.1977 211.96 49.2297 212.216C49.2617 212.461 49.3044 212.723 49.3577 213H48.1257ZM45.3257 213.16C44.483 213.16 43.811 212.957 43.3097 212.552C42.819 212.136 42.5737 211.571 42.5737 210.856C42.5737 210.141 42.819 209.587 43.3097 209.192C43.8004 208.797 44.515 208.52 45.4537 208.36L48.3017 207.88V208.936L45.6457 209.352C45.0484 209.448 44.595 209.608 44.2857 209.832C43.9764 210.056 43.8217 210.381 43.8217 210.808C43.8217 211.224 43.9604 211.539 44.2377 211.752C44.5257 211.965 44.947 212.072 45.5017 212.072C46.2164 212.072 46.7977 211.912 47.2457 211.592C47.7044 211.261 47.9337 210.835 47.9337 210.312L48.1417 211.448C47.971 211.992 47.635 212.413 47.1337 212.712C46.643 213.011 46.0404 213.16 45.3257 213.16ZM51.729 213V201.48H53.009V213H51.729ZM55.6527 213V204.84H56.9327V213H55.6527ZM55.5567 202.984V201.48H57.0287V202.984H55.5567ZM58.9417 213V212.072L63.9017 205.336L64.3817 205.928H59.1017V204.84H65.1177V205.768L60.1577 212.504L59.6777 211.912H65.2777V213H58.9417ZM70.3442 213.16C69.5655 213.16 68.8775 212.979 68.2802 212.616C67.6829 212.243 67.2135 211.736 66.8722 211.096C66.5309 210.456 66.3602 209.72 66.3602 208.888C66.3602 208.056 66.5255 207.325 66.8562 206.696C67.1975 206.056 67.6722 205.56 68.2802 205.208C68.8882 204.856 69.5869 204.68 70.3762 204.68C71.1335 204.68 71.7895 204.845 72.3442 205.176C72.9095 205.507 73.3415 205.971 73.6402 206.568C73.9495 207.165 74.1042 207.869 74.1042 208.68C74.1042 208.787 74.0989 208.888 74.0882 208.984C74.0882 209.08 74.0775 209.187 74.0562 209.304H67.3202V208.232H73.2722L72.8562 208.824C72.8562 207.843 72.6375 207.091 72.2002 206.568C71.7735 206.035 71.1655 205.768 70.3762 205.768C69.5655 205.768 68.9095 206.051 68.4082 206.616C67.9175 207.171 67.6722 207.923 67.6722 208.872C67.6722 209.843 67.9175 210.621 68.4082 211.208C68.9095 211.784 69.5762 212.072 70.4082 212.072C70.9309 212.072 71.3895 211.96 71.7842 211.736C72.1789 211.501 72.4669 211.171 72.6482 210.744H73.8642C73.5975 211.491 73.1495 212.083 72.5202 212.52C71.9015 212.947 71.1762 213.16 70.3442 213.16ZM82.0475 213V211.096L82.2075 211.144C82.0048 211.763 81.6315 212.253 81.0875 212.616C80.5541 212.979 79.9141 213.16 79.1675 213.16C78.4315 213.16 77.7861 212.984 77.2315 212.632C76.6875 212.28 76.2608 211.789 75.9515 211.16C75.6528 210.531 75.5035 209.795 75.5035 208.952C75.5035 208.099 75.6581 207.352 75.9675 206.712C76.2768 206.072 76.7088 205.576 77.2635 205.224C77.8181 204.872 78.4688 204.696 79.2155 204.696C79.9835 204.696 80.6288 204.883 81.1515 205.256C81.6741 205.629 82.0315 206.157 82.2235 206.84L81.9675 206.872V201.48H83.2475V213H82.0475ZM79.4075 212.04C80.2288 212.04 80.8688 211.763 81.3275 211.208C81.7968 210.643 82.0315 209.875 82.0315 208.904C82.0315 207.955 81.7968 207.203 81.3275 206.648C80.8581 206.093 80.2181 205.816 79.4075 205.816C78.5968 205.816 77.9621 206.093 77.5035 206.648C77.0448 207.203 76.8155 207.971 76.8155 208.952C76.8155 209.912 77.0448 210.669 77.5035 211.224C77.9621 211.768 78.5968 212.04 79.4075 212.04ZM94.1537 213.16C93.3644 213.16 92.6337 213.016 91.9617 212.728C91.3004 212.429 90.7244 212.019 90.2337 211.496C89.743 210.963 89.3644 210.339 89.0977 209.624C88.831 208.899 88.6977 208.104 88.6977 207.24C88.6977 206.376 88.831 205.587 89.0977 204.872C89.3644 204.147 89.7377 203.523 90.2177 203C90.7084 202.467 91.2844 202.056 91.9457 201.768C92.6177 201.469 93.3484 201.32 94.1377 201.32C95.0017 201.32 95.775 201.496 96.4577 201.848C97.151 202.2 97.7164 202.696 98.1537 203.336C98.6017 203.976 98.879 204.723 98.9857 205.576H97.6737C97.5457 204.627 97.167 203.88 96.5377 203.336C95.919 202.781 95.1244 202.504 94.1537 202.504C93.3324 202.504 92.6124 202.707 91.9937 203.112C91.375 203.507 90.895 204.061 90.5537 204.776C90.2124 205.48 90.0417 206.301 90.0417 207.24C90.0417 208.179 90.2124 209.005 90.5537 209.72C90.895 210.424 91.375 210.979 91.9937 211.384C92.6124 211.779 93.327 211.976 94.1377 211.976C95.1297 211.976 95.9404 211.699 96.5697 211.144C97.2097 210.589 97.5884 209.843 97.7057 208.904H99.0177C98.911 209.757 98.6337 210.504 98.1857 211.144C97.7484 211.784 97.183 212.28 96.4897 212.632C95.807 212.984 95.0284 213.16 94.1537 213.16ZM104.462 213.16C103.662 213.16 102.958 212.973 102.35 212.6C101.742 212.227 101.268 211.72 100.926 211.08C100.596 210.429 100.43 209.699 100.43 208.888C100.43 208.067 100.601 207.341 100.942 206.712C101.284 206.083 101.753 205.587 102.35 205.224C102.958 204.861 103.662 204.68 104.462 204.68C105.273 204.68 105.977 204.861 106.574 205.224C107.182 205.587 107.652 206.083 107.982 206.712C108.324 207.341 108.494 208.067 108.494 208.888C108.494 209.699 108.324 210.429 107.982 211.08C107.652 211.72 107.182 212.227 106.574 212.6C105.977 212.973 105.273 213.16 104.462 213.16ZM104.462 212.072C105.017 212.072 105.497 211.939 105.902 211.672C106.308 211.395 106.622 211.016 106.846 210.536C107.07 210.056 107.182 209.501 107.182 208.872C107.182 207.933 106.932 207.181 106.43 206.616C105.94 206.051 105.284 205.768 104.462 205.768C103.652 205.768 102.996 206.051 102.494 206.616C101.993 207.181 101.742 207.933 101.742 208.872C101.742 209.501 101.854 210.056 102.078 210.536C102.302 211.016 102.617 211.395 103.022 211.672C103.438 211.939 103.918 212.072 104.462 212.072ZM113.15 213.16C112.617 213.16 112.142 213.053 111.726 212.84C111.31 212.616 110.985 212.307 110.75 211.912C110.515 211.507 110.398 211.043 110.398 210.52V204.84H111.678V210.184C111.678 210.803 111.827 211.267 112.126 211.576C112.435 211.885 112.873 212.04 113.438 212.04C113.95 212.04 114.403 211.923 114.798 211.688C115.193 211.453 115.502 211.128 115.726 210.712C115.961 210.285 116.078 209.8 116.078 209.256L116.286 211.192C116.019 211.8 115.603 212.28 115.038 212.632C114.473 212.984 113.843 213.16 113.15 213.16ZM116.158 213V211.08H116.078V204.84H117.358V213H116.158ZM119.996 213V204.84H121.196V206.92H121.276V213H119.996ZM121.276 208.744L121.068 206.808C121.26 206.115 121.601 205.587 122.092 205.224C122.583 204.861 123.148 204.68 123.788 204.68C124.055 204.68 124.236 204.701 124.332 204.744V205.976C124.279 205.955 124.204 205.944 124.108 205.944C124.012 205.933 123.895 205.928 123.756 205.928C122.945 205.928 122.327 206.173 121.9 206.664C121.484 207.144 121.276 207.837 121.276 208.744ZM128.609 213.16C127.607 213.16 126.807 212.931 126.209 212.472C125.612 212.003 125.271 211.341 125.185 210.488H126.417C126.492 211.011 126.721 211.411 127.105 211.688C127.489 211.965 128.001 212.104 128.641 212.104C129.207 212.104 129.649 211.997 129.969 211.784C130.289 211.571 130.449 211.267 130.449 210.872C130.449 210.595 130.359 210.355 130.177 210.152C129.996 209.939 129.633 209.763 129.089 209.624L127.777 209.288C127.031 209.096 126.471 208.803 126.097 208.408C125.724 208.003 125.537 207.523 125.537 206.968C125.537 206.264 125.799 205.709 126.321 205.304C126.844 204.888 127.553 204.68 128.449 204.68C129.335 204.68 130.055 204.893 130.609 205.32C131.164 205.747 131.479 206.339 131.553 207.096H130.321C130.247 206.659 130.044 206.323 129.713 206.088C129.383 205.853 128.945 205.736 128.401 205.736C127.879 205.736 127.473 205.837 127.185 206.04C126.897 206.232 126.753 206.509 126.753 206.872C126.753 207.149 126.855 207.389 127.057 207.592C127.271 207.795 127.623 207.965 128.113 208.104L129.393 208.456C130.151 208.659 130.721 208.968 131.105 209.384C131.489 209.8 131.681 210.301 131.681 210.888C131.681 211.603 131.409 212.163 130.865 212.568C130.321 212.963 129.569 213.16 128.609 213.16ZM137.109 213.16C136.331 213.16 135.643 212.979 135.045 212.616C134.448 212.243 133.979 211.736 133.637 211.096C133.296 210.456 133.125 209.72 133.125 208.888C133.125 208.056 133.291 207.325 133.621 206.696C133.963 206.056 134.437 205.56 135.045 205.208C135.653 204.856 136.352 204.68 137.141 204.68C137.899 204.68 138.555 204.845 139.109 205.176C139.675 205.507 140.107 205.971 140.405 206.568C140.715 207.165 140.869 207.869 140.869 208.68C140.869 208.787 140.864 208.888 140.853 208.984C140.853 209.08 140.843 209.187 140.821 209.304H134.085V208.232H140.037L139.621 208.824C139.621 207.843 139.403 207.091 138.965 206.568C138.539 206.035 137.931 205.768 137.141 205.768C136.331 205.768 135.675 206.051 135.173 206.616C134.683 207.171 134.437 207.923 134.437 208.872C134.437 209.843 134.683 210.621 135.173 211.208C135.675 211.784 136.341 212.072 137.173 212.072C137.696 212.072 138.155 211.96 138.549 211.736C138.944 211.501 139.232 211.171 139.413 210.744H140.629C140.363 211.491 139.915 212.083 139.285 212.52C138.667 212.947 137.941 213.16 137.109 213.16ZM145.644 213.16C144.642 213.16 143.842 212.931 143.244 212.472C142.647 212.003 142.306 211.341 142.22 210.488H143.452C143.527 211.011 143.756 211.411 144.14 211.688C144.524 211.965 145.036 212.104 145.676 212.104C146.242 212.104 146.684 211.997 147.004 211.784C147.324 211.571 147.484 211.267 147.484 210.872C147.484 210.595 147.394 210.355 147.212 210.152C147.031 209.939 146.668 209.763 146.124 209.624L144.812 209.288C144.066 209.096 143.506 208.803 143.132 208.408C142.759 208.003 142.572 207.523 142.572 206.968C142.572 206.264 142.834 205.709 143.356 205.304C143.879 204.888 144.588 204.68 145.484 204.68C146.37 204.68 147.09 204.893 147.644 205.32C148.199 205.747 148.514 206.339 148.588 207.096H147.356C147.282 206.659 147.079 206.323 146.748 206.088C146.418 205.853 145.98 205.736 145.436 205.736C144.914 205.736 144.508 205.837 144.22 206.04C143.932 206.232 143.788 206.509 143.788 206.872C143.788 207.149 143.89 207.389 144.092 207.592C144.306 207.795 144.658 207.965 145.148 208.104L146.428 208.456C147.186 208.659 147.756 208.968 148.14 209.384C148.524 209.8 148.716 210.301 148.716 210.888C148.716 211.603 148.444 212.163 147.9 212.568C147.356 212.963 146.604 213.16 145.644 213.16Z" fill="#2B2A2E"/>
<path d="M307.913 220V196.96L310.433 199.48H302.873V194.8H313.745V220H307.913ZM328.922 220.432C326.858 220.432 325.01 219.928 323.378 218.92C321.746 217.888 320.462 216.4 319.526 214.456C318.59 212.512 318.122 210.16 318.122 207.4C318.122 204.64 318.59 202.288 319.526 200.344C320.462 198.4 321.746 196.924 323.378 195.916C325.01 194.884 326.858 194.368 328.922 194.368C331.01 194.368 332.858 194.884 334.466 195.916C336.098 196.924 337.382 198.4 338.318 200.344C339.254 202.288 339.722 204.64 339.722 207.4C339.722 210.16 339.254 212.512 338.318 214.456C337.382 216.4 336.098 217.888 334.466 218.92C332.858 219.928 331.01 220.432 328.922 220.432ZM328.922 215.5C329.906 215.5 330.758 215.224 331.478 214.672C332.222 214.12 332.798 213.244 333.206 212.044C333.638 210.844 333.854 209.296 333.854 207.4C333.854 205.504 333.638 203.956 333.206 202.756C332.798 201.556 332.222 200.68 331.478 200.128C330.758 199.576 329.906 199.3 328.922 199.3C327.962 199.3 327.11 199.576 326.366 200.128C325.646 200.68 325.07 201.556 324.638 202.756C324.23 203.956 324.026 205.504 324.026 207.4C324.026 209.296 324.23 210.844 324.638 212.044C325.07 213.244 325.646 214.12 326.366 214.672C327.11 215.224 327.962 215.5 328.922 215.5ZM353.356 220.432C351.292 220.432 349.444 219.928 347.812 218.92C346.18 217.888 344.896 216.4 343.96 214.456C343.024 212.512 342.556 210.16 342.556 207.4C342.556 204.64 343.024 202.288 343.96 200.344C344.896 198.4 346.18 196.924 347.812 195.916C349.444 194.884 351.292 194.368 353.356 194.368C355.444 194.368 357.292 194.884 358.9 195.916C360.532 196.924 361.816 198.4 362.752 200.344C363.688 202.288 364.156 204.64 364.156 207.4C364.156 210.16 363.688 212.512 362.752 214.456C361.816 216.4 360.532 217.888 358.9 218.92C357.292 219.928 355.444 220.432 353.356 220.432ZM353.356 215.5C354.34 215.5 355.192 215.224 355.912 214.672C356.656 214.12 357.232 213.244 357.64 212.044C358.072 210.844 358.288 209.296 358.288 207.4C358.288 205.504 358.072 203.956 357.64 202.756C357.232 201.556 356.656 200.68 355.912 200.128C355.192 199.576 354.34 199.3 353.356 199.3C352.396 199.3 351.544 199.576 350.8 200.128C350.08 200.68 349.504 201.556 349.072 202.756C348.664 203.956 348.46 205.504 348.46 207.4C348.46 209.296 348.664 210.844 349.072 212.044C349.504 213.244 350.08 214.12 350.8 214.672C351.544 215.224 352.396 215.5 353.356 215.5ZM374.151 215.716V199.084H378.795V215.716H374.151ZM367.923 209.596V205.204H385.059V209.596H367.923Z" fill="#2B2A2E"/>
</svg>
