<svg width="41" height="15" viewBox="0 0 41 15" fill="none" xmlns="http://www.w3.org/2000/svg">
<g id="logo-active-life-centre 1" clip-path="url(#clip0_12390_903)">
<g id="s9QgqL">
<path id="Vector" d="M12.9256 14.4999L12.871 12.4727L10.9521 11.4881L10.8039 11.5212C10.5308 11.877 10.2968 12.2824 10.0238 12.6382C9.59476 13.1926 9.40754 13.4243 8.68989 13.2753C7.81622 13.0933 6.95035 12.7954 6.09229 12.5638L6.46671 10.8758L8.31546 11.2482L10.3592 7.42546C10.3904 7.3179 10.2032 7.36754 10.1408 7.40064C9.85998 7.69024 9.43875 8.45147 9.04872 8.51766C8.41687 8.62523 7.88643 8.11222 7.98003 7.43374C8.07364 6.75525 9.15012 5.9692 9.42315 5.53066L11.3265 5.1335C11.0379 4.14887 11.7243 2.96565 12.7072 2.86636C14.4389 2.68433 15.3282 4.72806 14.1035 6.00229V6.08504L14.6964 6.78007C15.219 6.84627 16.0303 6.61459 16.4125 7.10277C16.7947 7.59095 16.5919 8.50939 15.9679 8.6004C15.3438 8.69142 14.5481 8.54248 13.9085 8.6004L13.2298 8.02121L12.6136 9.4361L14.3219 10.8096C14.3921 10.8924 14.595 11.2068 14.595 11.2978V14.4999H12.9178H12.9256ZM12.1222 3.73515C10.9989 4.92664 12.7228 6.75525 13.8461 5.53894C14.9382 4.35572 13.2376 2.55194 12.1222 3.73515ZM13.4483 13.9621H14.0879V11.3805C14.0879 11.3309 13.9241 11.1571 13.8695 11.1158L11.9427 9.60158L13.0738 7.14414L14.1035 8.0543H15.8821C16.1629 7.95501 16.1863 7.53303 15.9445 7.37582C15.7026 7.21861 14.7978 7.37582 14.4545 7.30135L13.6511 6.33326C13.5809 6.30017 13.2298 6.43255 13.0894 6.44083C12.481 6.4822 11.8569 6.18433 11.5449 5.62168L9.68837 6.01057C9.43875 6.30017 9.16573 6.58976 8.92391 6.89591C8.68209 7.20206 8.54948 7.33444 8.50267 7.44201C8.38566 7.73988 8.61968 8.02948 8.91611 7.96329C9.21253 7.89709 9.72737 6.9952 9.93799 6.81317L11.1549 6.87109L8.56508 11.8025L8.41687 11.8439L6.85675 11.4716L6.67733 12.15L8.93171 12.7872C9.15012 12.8368 9.30614 12.6879 9.44655 12.5307C9.87558 12.0259 10.2578 11.3226 10.6556 10.7765L13.3313 12.1004L13.3781 13.8463L13.4327 13.9456L13.4483 13.9621Z" fill="#1A3A5A"/>
<path id="Vector_2" d="M8.20609 0.499913L8.32309 0.988092C7.33242 1.26942 6.38074 1.6914 5.48367 2.2044C3.86895 3.13939 0.967121 5.34034 1.77838 7.6323C2.34783 9.24578 4.15757 10.1394 5.67869 10.3297L5.63969 10.7931L5.55388 10.8593C4.25118 10.6441 2.94068 10.1063 2.04361 9.04719C-0.83482 5.63821 3.82214 2.31197 6.46655 1.11221C6.67717 1.01292 8.10468 0.425445 8.20609 0.499913Z" fill="#1A3A5A"/>
<path id="Vector_3" d="M4.89885 11.7776L4.78184 12.2657C4.68044 12.3319 3.86917 11.9762 3.70536 11.91C2.50407 11.3639 1.37298 10.4868 0.678723 9.2953C-0.475767 7.31776 -0.109138 5.07544 1.41198 3.47852L1.73961 3.8674C0.842536 4.86031 0.335496 6.10145 0.546113 7.49152C0.88934 9.72556 2.9721 11.2232 4.89105 11.7776H4.89885Z" fill="#1A3A5A"/>
<path id="Vector_4" d="M6.38119 8.59207C6.35779 8.70791 6.4358 9.08025 6.31879 9.12162C5.49973 9.10507 4.61046 8.9975 3.8928 8.56724C2.34828 7.6488 2.87092 5.95259 3.73679 4.71973L4.16582 5.00932C3.74459 5.62162 3.22195 6.54006 3.46377 7.32611C3.70559 8.11216 5.49973 8.58379 6.389 8.58379L6.38119 8.59207Z" fill="#1A3A5A"/>
</g>
<path id="Vector_5" d="M20.9135 6.79669L20.7185 5.95272H19.6342L19.4392 6.79669H18.6123L19.681 3.23877H20.6561L21.7247 6.79669H20.9057H20.9135ZM20.3362 4.50473C20.3206 4.43853 20.2972 4.36407 20.2816 4.2896C20.266 4.21513 20.2426 4.13239 20.227 4.04964C20.2114 3.9669 20.1958 3.88416 20.1802 3.79314C20.1568 3.92553 20.1334 4.04964 20.1022 4.17376C20.071 4.29787 20.0476 4.40544 20.0242 4.50473L19.8058 5.33215H20.5547L20.3362 4.50473Z" fill="#1A3A5A"/>
<path id="Vector_6" d="M22.9963 6.84644C22.7544 6.84644 22.5438 6.7968 22.3722 6.69751C22.2006 6.59822 22.0602 6.44928 21.9666 6.24242C21.873 6.03557 21.8262 5.77079 21.8262 5.45637C21.8262 5.14195 21.8808 4.85235 21.9822 4.6455C22.0836 4.43864 22.2318 4.28143 22.419 4.18214C22.6062 4.08285 22.8169 4.0332 23.0587 4.0332C23.3005 4.0332 23.3629 4.04975 23.4955 4.09112C23.6281 4.12422 23.7451 4.17387 23.8309 4.22351L23.6125 4.77788C23.5189 4.73651 23.4331 4.70342 23.3551 4.67032C23.2771 4.6455 23.1991 4.62895 23.1055 4.62895C23.0119 4.62895 22.9027 4.66204 22.8247 4.71996C22.7466 4.77788 22.692 4.8689 22.653 4.99301C22.614 5.11713 22.5906 5.26606 22.5906 5.4481C22.5906 5.63013 22.614 5.77907 22.653 5.8949C22.692 6.01074 22.7544 6.10176 22.8325 6.15968C22.9105 6.2176 22.9963 6.24242 23.1055 6.24242C23.2147 6.24242 23.3395 6.22587 23.4487 6.17623C23.5579 6.13486 23.6593 6.07694 23.7529 6.00247V6.63131C23.6515 6.70578 23.5423 6.75543 23.4253 6.78852C23.3083 6.82162 23.1679 6.83817 23.0041 6.83817L22.9963 6.84644Z" fill="#1A3A5A"/>
<path id="Vector_7" d="M25.2739 6.25876C25.3519 6.25876 25.4143 6.25876 25.4845 6.23394C25.5469 6.21739 25.6171 6.20084 25.6873 6.17602V6.7304C25.6093 6.76349 25.5157 6.79659 25.4143 6.81314C25.3129 6.83796 25.1881 6.85451 25.0477 6.85451C24.9073 6.85451 24.7669 6.82969 24.6498 6.77177C24.5328 6.72212 24.4392 6.6311 24.3768 6.49872C24.3144 6.36633 24.2754 6.1843 24.2754 5.95262V4.64529H23.9712V4.33087L24.3378 4.08264L24.5406 3.51172H25.0243V4.09091H25.6639V4.64529H25.0243V5.95262C25.0243 6.05191 25.0477 6.13465 25.0945 6.1843C25.1413 6.23394 25.2037 6.25876 25.2817 6.25876H25.2739Z" fill="#1A3A5A"/>
<path id="Vector_8" d="M26.4286 3.02368C26.5378 3.02368 26.6314 3.0485 26.7094 3.09815C26.7874 3.1478 26.8264 3.24709 26.8264 3.37947C26.8264 3.51186 26.7874 3.61115 26.7094 3.6608C26.6314 3.71044 26.5378 3.74354 26.4286 3.74354C26.3194 3.74354 26.218 3.71872 26.14 3.6608C26.062 3.61115 26.0229 3.51186 26.0229 3.37947C26.0229 3.24709 26.062 3.1478 26.14 3.09815C26.218 3.0485 26.3116 3.02368 26.4286 3.02368ZM26.7952 4.09106V6.80501H26.0464V4.09106H26.7952Z" fill="#1A3A5A"/>
<path id="Vector_9" d="M27.942 6.79671L27.0215 4.08276H27.8015L28.2306 5.63005C28.2462 5.68796 28.2618 5.75416 28.2696 5.82035C28.2774 5.88655 28.2852 5.95274 28.293 6.01066C28.293 6.07685 28.3008 6.13477 28.3008 6.18442H28.3164C28.3164 6.1265 28.3164 6.06858 28.332 6.00239C28.332 5.93619 28.3476 5.87827 28.3554 5.81208C28.371 5.74588 28.3788 5.68796 28.3944 5.63005L28.8234 4.08276H29.6113L28.6908 6.79671H27.9342H27.942Z" fill="#1A3A5A"/>
<path id="Vector_10" d="M30.8903 4.04126C31.1165 4.04126 31.3115 4.09091 31.4831 4.18192C31.647 4.28121 31.7796 4.4136 31.8654 4.59563C31.959 4.77767 31.998 5.00107 31.998 5.26585V5.62164H30.4769C30.4769 5.82849 30.5315 5.99398 30.6329 6.10982C30.7265 6.22566 30.8669 6.29185 31.0385 6.29185C31.2101 6.29185 31.3349 6.2753 31.4597 6.24221C31.5845 6.20911 31.7172 6.15119 31.8498 6.07672V6.64764C31.7328 6.71384 31.608 6.76348 31.4753 6.79658C31.3427 6.82968 31.1711 6.84622 30.9683 6.84622C30.7655 6.84622 30.5081 6.79658 30.3209 6.69729C30.1336 6.598 29.9854 6.44079 29.8762 6.24221C29.767 6.03535 29.7124 5.77885 29.7124 5.46443C29.7124 5.15001 29.7592 4.88523 29.8606 4.6701C29.962 4.46325 30.0946 4.30604 30.274 4.19847C30.4535 4.09091 30.6563 4.04126 30.8825 4.04126H30.8903ZM30.9059 4.56254C30.7967 4.56254 30.7031 4.61218 30.6251 4.7032C30.5471 4.79421 30.5081 4.94315 30.4925 5.13346H31.3115C31.3115 5.02589 31.2959 4.9266 31.2647 4.84386C31.2335 4.76112 31.1867 4.68665 31.1321 4.637C31.0775 4.58736 30.9995 4.56254 30.9059 4.56254Z" fill="#1A3A5A"/>
<path id="Vector_11" d="M33.5112 6.79674V3.25537H34.2679V6.17617H35.5082V6.79674H33.5112Z" fill="#1A3A5A"/>
<path id="Vector_12" d="M36.265 3.02368C36.3742 3.02368 36.4678 3.0485 36.5458 3.09815C36.6238 3.1478 36.6628 3.24709 36.6628 3.37947C36.6628 3.51186 36.6238 3.61115 36.5458 3.6608C36.4678 3.71044 36.3742 3.74354 36.265 3.74354C36.1558 3.74354 36.0544 3.71872 35.9764 3.6608C35.8984 3.61115 35.8594 3.51186 35.8594 3.37947C35.8594 3.24709 35.8984 3.1478 35.9764 3.09815C36.0544 3.0485 36.148 3.02368 36.265 3.02368ZM36.6394 4.09106V6.80501H35.8906V4.09106H36.6394Z" fill="#1A3A5A"/>
<path id="Vector_13" d="M38.5898 4.64535H38.0437V6.79665H37.2949V4.64535H36.9517V4.28956L37.3027 4.09098V3.8924C37.3027 3.66072 37.3339 3.47868 37.3963 3.35457C37.4587 3.23046 37.5523 3.13944 37.6771 3.08152C37.8019 3.03188 37.9579 2.99878 38.1374 2.99878C38.3168 2.99878 38.3792 3.00705 38.4806 3.03188C38.582 3.0567 38.6756 3.08152 38.7692 3.11462L38.5976 3.65244C38.5508 3.63589 38.4962 3.61935 38.4416 3.6028C38.387 3.58625 38.3246 3.57798 38.2622 3.57798C38.1998 3.57798 38.1296 3.61107 38.0905 3.66899C38.0515 3.73519 38.0359 3.80965 38.0359 3.90894V4.07443H38.582V4.6288L38.5898 4.64535Z" fill="#1A3A5A"/>
<path id="Vector_14" d="M39.8922 4.04126C40.1185 4.04126 40.3135 4.09091 40.4851 4.18192C40.6489 4.28121 40.7815 4.4136 40.8673 4.59563C40.9609 4.77767 40.9999 5.00107 40.9999 5.26585V5.62164H39.4788C39.4788 5.82849 39.5334 5.99398 39.6348 6.10982C39.7284 6.22566 39.8688 6.29185 40.0405 6.29185C40.2121 6.29185 40.3369 6.2753 40.4617 6.24221C40.5865 6.20911 40.7191 6.15119 40.8517 6.07672V6.64764C40.7347 6.71384 40.6099 6.76348 40.4773 6.79658C40.3447 6.82968 40.1731 6.84622 39.9703 6.84622C39.7674 6.84622 39.51 6.79658 39.3228 6.69729C39.1356 6.598 38.9874 6.44079 38.8782 6.24221C38.769 6.03535 38.7144 5.77885 38.7144 5.46443C38.7144 5.15001 38.7612 4.88523 38.8626 4.6701C38.964 4.46325 39.0966 4.30604 39.276 4.19847C39.4554 4.09091 39.6582 4.04126 39.8844 4.04126H39.8922ZM39.9 4.56254C39.7908 4.56254 39.6972 4.61218 39.6192 4.7032C39.5412 4.79421 39.5022 4.94315 39.4866 5.13346H40.3057C40.3057 5.02589 40.2901 4.9266 40.2589 4.84386C40.2277 4.76112 40.1809 4.68665 40.1263 4.637C40.0717 4.58736 39.9937 4.56254 39.9 4.56254Z" fill="#1A3A5A"/>
<path id="Vector_15" d="M21.2725 8.61701C21.0228 8.61701 20.8044 8.66666 20.6094 8.76595C20.4144 8.86524 20.2428 9.0059 20.1102 9.18793C19.9698 9.36997 19.8684 9.60164 19.7982 9.86642C19.7279 10.1312 19.6889 10.4291 19.6889 10.76C19.6889 11.091 19.7513 11.5792 19.8606 11.9019C19.9776 12.2246 20.157 12.4728 20.391 12.6466C20.625 12.8203 20.9214 12.9031 21.2725 12.9031C21.6235 12.9031 21.6703 12.8865 21.8575 12.8451C22.0447 12.8038 22.2241 12.7541 22.4114 12.6962V13.2754C22.2319 13.3499 22.0525 13.4078 21.8653 13.4409C21.6781 13.474 21.4519 13.4905 21.1945 13.4905C20.7108 13.4905 20.313 13.3747 19.9932 13.1596C19.6733 12.9362 19.4315 12.6217 19.2755 12.208C19.1195 11.7943 19.0337 11.3144 19.0337 10.7518C19.0337 10.1891 19.0805 9.98226 19.1819 9.65129C19.2833 9.32032 19.4237 9.03072 19.6187 8.79077C19.8138 8.55082 20.0478 8.36051 20.3286 8.22812C20.6094 8.09573 20.9292 8.02954 21.2959 8.02954C21.6625 8.02954 21.7639 8.05436 21.9901 8.11228C22.2163 8.1702 22.4192 8.24467 22.5986 8.34396L22.3568 8.90661C22.2085 8.83214 22.0525 8.76595 21.8653 8.70803C21.6859 8.65011 21.4909 8.61701 21.2881 8.61701H21.2725Z" fill="#1A3A5A"/>
<path id="Vector_16" d="M24.65 9.35352C24.9542 9.35352 25.2194 9.42798 25.4378 9.57692C25.6562 9.72586 25.8279 9.93271 25.9449 10.2058C26.0619 10.4788 26.1243 10.7932 26.1243 11.1573V11.5545H23.7061C23.7139 12.0095 23.8153 12.3488 24.0103 12.5887C24.2053 12.8287 24.4706 12.9445 24.8216 12.9445C25.1726 12.9445 25.2428 12.9197 25.4222 12.8701C25.5938 12.8204 25.7811 12.7542 25.9683 12.6632V13.2341C25.7889 13.3251 25.6094 13.3913 25.43 13.4327C25.2584 13.4741 25.04 13.4989 24.7982 13.4989C24.5564 13.4989 24.1663 13.4244 23.9089 13.2672C23.6515 13.11 23.4487 12.8866 23.3083 12.5805C23.16 12.2743 23.0898 11.902 23.0898 11.4634C23.0898 11.0249 23.1522 10.6526 23.2849 10.3381C23.4175 10.0237 23.5969 9.78378 23.8387 9.61829C24.0727 9.45281 24.3535 9.36179 24.6656 9.36179L24.65 9.35352ZM24.65 9.89134C24.3769 9.89134 24.1663 9.99063 24.0025 10.1892C23.8465 10.3878 23.7529 10.6691 23.7217 11.0249H25.4924C25.4924 10.7932 25.4612 10.5947 25.3988 10.4292C25.3364 10.2637 25.2428 10.1313 25.118 10.032C24.9932 9.93271 24.8372 9.88307 24.6422 9.88307L24.65 9.89134Z" fill="#1A3A5A"/>
<path id="Vector_17" d="M28.6673 9.35352C29.0885 9.35352 29.4084 9.46935 29.6268 9.70103C29.8452 9.93271 29.9544 10.3051 29.9544 10.8181V13.4162H29.346V10.8594C29.346 10.5367 29.2836 10.2968 29.1587 10.1396C29.0339 9.98236 28.8389 9.89961 28.5737 9.89961C28.1915 9.89961 27.9262 10.0237 27.778 10.272C27.6298 10.5202 27.5596 10.876 27.5596 11.3476V13.4162H26.9512V9.42798H27.4426L27.5362 9.97408H27.5752C27.6532 9.83342 27.7468 9.71758 27.8638 9.62657C27.9809 9.53555 28.1135 9.46936 28.2539 9.41971C28.3943 9.37006 28.5425 9.35352 28.6907 9.35352H28.6673Z" fill="#1A3A5A"/>
<path id="Vector_18" d="M32.1776 12.9611C32.2634 12.9611 32.3571 12.9528 32.4507 12.9362C32.5443 12.9197 32.6223 12.9031 32.6847 12.8783V13.3748C32.6223 13.4079 32.5287 13.441 32.4039 13.4575C32.2869 13.4823 32.1698 13.4906 32.0606 13.4906C31.8734 13.4906 31.7018 13.4575 31.538 13.383C31.382 13.3086 31.2494 13.1845 31.1558 13.0107C31.0622 12.8287 31.0154 12.5804 31.0154 12.2577V9.93269H30.5161V9.61827L31.031 9.36177L31.265 8.50952H31.6316V9.42796H32.6535V9.93269H31.6316V12.2412C31.6316 12.4812 31.6862 12.6632 31.7876 12.779C31.889 12.8949 32.0216 12.9528 32.1776 12.9528V12.9611Z" fill="#1A3A5A"/>
<path id="Vector_19" d="M34.9935 9.35352C35.0559 9.35352 35.1261 9.35352 35.2041 9.36179C35.2821 9.36179 35.3446 9.37834 35.3992 9.39489L35.329 9.99891C35.2743 9.98236 35.2119 9.97408 35.1417 9.96581C35.0715 9.95753 35.0091 9.94926 34.9467 9.94926C34.8141 9.94926 34.6815 9.98236 34.5567 10.0486C34.4319 10.1147 34.3227 10.2058 34.2291 10.3216C34.1355 10.4374 34.0575 10.5781 34.0028 10.7436C33.9482 10.9091 33.917 11.0911 33.917 11.298V13.4244H33.3086V9.43626H33.8078L33.878 10.1644H33.9092C33.9872 10.0155 34.0731 9.88307 34.1823 9.75895C34.2915 9.63484 34.4085 9.54382 34.5411 9.46935C34.6737 9.39489 34.8297 9.36179 34.9935 9.36179V9.35352Z" fill="#1A3A5A"/>
<path id="Vector_20" d="M37.3726 9.35352C37.6768 9.35352 37.9421 9.42798 38.1605 9.57692C38.3789 9.72586 38.5505 9.93271 38.6675 10.2058C38.7845 10.4788 38.8469 10.7932 38.8469 11.1573V11.5545H36.4287C36.4365 12.0095 36.538 12.3488 36.733 12.5887C36.928 12.8287 37.1932 12.9445 37.5442 12.9445C37.8953 12.9445 37.9655 12.9197 38.1449 12.8701C38.3165 12.8204 38.5037 12.7542 38.6909 12.6632V13.2341C38.5115 13.3251 38.3321 13.3913 38.1527 13.4327C37.9811 13.4741 37.7627 13.4989 37.5208 13.4989C37.279 13.4989 36.889 13.4244 36.6316 13.2672C36.3741 13.11 36.1713 12.8866 36.0309 12.5805C35.8827 12.2743 35.8125 11.902 35.8125 11.4634C35.8125 11.0249 35.8749 10.6526 36.0075 10.3381C36.1401 10.0237 36.3195 9.78378 36.5614 9.61829C36.7954 9.45281 37.0762 9.36179 37.3882 9.36179L37.3726 9.35352ZM37.3726 9.89134C37.0996 9.89134 36.889 9.99063 36.7252 10.1892C36.5692 10.3878 36.4756 10.6691 36.4443 11.0249H38.2151C38.2151 10.7932 38.1839 10.5947 38.1215 10.4292C38.0591 10.2637 37.9655 10.1313 37.8407 10.032C37.7158 9.93271 37.5598 9.88307 37.3648 9.88307L37.3726 9.89134Z" fill="#1A3A5A"/>
</g>
<defs>
<clipPath id="clip0_12390_903">
<rect width="41" height="14" fill="white" transform="translate(0 0.5)"/>
</clipPath>
</defs>
</svg>
