<svg width="59" height="25" viewBox="0 0 59 25" fill="none" xmlns="http://www.w3.org/2000/svg">
<rect y="0.5" width="59" height="24" rx="12" fill="#F8F5F0"/>
<g clip-path="url(#clip0_12390_902)">
<path d="M21.9256 19.4999L21.871 17.4727L19.9521 16.4881L19.8039 16.5212C19.5308 16.877 19.2968 17.2824 19.0238 17.6382C18.5948 18.1926 18.4075 18.4243 17.6899 18.2753C16.8162 18.0933 15.9504 17.7954 15.0923 17.5638L15.4667 15.8758L17.3155 16.2482L19.3592 12.4255C19.3904 12.3179 19.2032 12.3675 19.1408 12.4006C18.86 12.6902 18.4387 13.4515 18.0487 13.5177C17.4169 13.6252 16.8864 13.1122 16.98 12.4337C17.0736 11.7552 18.1501 10.9692 18.4231 10.5307L20.3265 10.1335C20.0379 9.14887 20.7243 7.96565 21.7072 7.86636C23.4389 7.68433 24.3282 9.72806 23.1035 11.0023V11.085L23.6964 11.7801C24.219 11.8463 25.0303 11.6146 25.4125 12.1028C25.7947 12.5909 25.5919 13.5094 24.9679 13.6004C24.3438 13.6914 23.5481 13.5425 22.9085 13.6004L22.2298 13.0212L21.6136 14.4361L23.3219 15.8096C23.3921 15.8924 23.595 16.2068 23.595 16.2978V19.4999H21.9178H21.9256ZM21.1222 8.73515C19.9989 9.92664 21.7228 11.7552 22.8461 10.5389C23.9382 9.35572 22.2376 7.55194 21.1222 8.73515ZM22.4483 18.9621H23.0879V16.3805C23.0879 16.3309 22.9241 16.1571 22.8695 16.1158L20.9427 14.6016L22.0738 12.1441L23.1035 13.0543H24.8821C25.1629 12.955 25.1863 12.533 24.9445 12.3758C24.7026 12.2186 23.7978 12.3758 23.4545 12.3013L22.6511 11.3333C22.5809 11.3002 22.2298 11.4326 22.0894 11.4408C21.481 11.4822 20.8569 11.1843 20.5449 10.6217L18.6884 11.0106C18.4387 11.3002 18.1657 11.5898 17.9239 11.8959C17.6821 12.2021 17.5495 12.3344 17.5027 12.442C17.3857 12.7399 17.6197 13.0295 17.9161 12.9633C18.2125 12.8971 18.7274 11.9952 18.938 11.8132L20.1549 11.8711L17.5651 16.8025L17.4169 16.8439L15.8567 16.4716L15.6773 17.15L17.9317 17.7872C18.1501 17.8368 18.3061 17.6879 18.4465 17.5307C18.8756 17.0259 19.2578 16.3226 19.6556 15.7765L22.3313 17.1004L22.3781 18.8463L22.4327 18.9456L22.4483 18.9621Z" fill="#1A3A5A"/>
<path d="M17.2061 5.49991L17.3231 5.98809C16.3324 6.26942 15.3807 6.6914 14.4837 7.2044C12.8689 8.13939 9.96712 10.3403 10.7784 12.6323C11.3478 14.2458 13.1576 15.1394 14.6787 15.3297L14.6397 15.7931L14.5539 15.8593C13.2512 15.6441 11.9407 15.1063 11.0436 14.0472C8.16518 10.6382 12.8221 7.31197 15.4666 6.11221C15.6772 6.01292 17.1047 5.42544 17.2061 5.49991Z" fill="#1A3A5A"/>
<path d="M13.8989 16.7776L13.7818 17.2657C13.6804 17.3319 12.8692 16.9762 12.7054 16.91C11.5041 16.3639 10.373 15.4868 9.67872 14.2953C8.52423 12.3178 8.89086 10.0754 10.412 8.47852L10.7396 8.8674C9.84254 9.86031 9.3355 11.1014 9.54611 12.4915C9.88934 14.7256 11.9721 16.2232 13.8911 16.7776H13.8989Z" fill="#1A3A5A"/>
<path d="M15.3812 13.5921C15.3578 13.7079 15.4358 14.0802 15.3188 14.1216C14.4997 14.1051 13.6105 13.9975 12.8928 13.5672C11.3483 12.6488 11.8709 10.9526 12.7368 9.71973L13.1658 10.0093C12.7446 10.6216 12.2219 11.5401 12.4638 12.3261C12.7056 13.1122 14.4997 13.5838 15.389 13.5838L15.3812 13.5921Z" fill="#1A3A5A"/>
<path d="M29.9135 11.7967L29.7185 10.9527H28.6342L28.4392 11.7967H27.6123L28.681 8.23877H29.6561L30.7247 11.7967H29.9057H29.9135ZM29.3362 9.50473C29.3206 9.43853 29.2972 9.36407 29.2816 9.2896C29.266 9.21513 29.2426 9.13239 29.227 9.04964C29.2114 8.9669 29.1958 8.88416 29.1802 8.79314C29.1568 8.92553 29.1334 9.04964 29.1022 9.17376C29.071 9.29787 29.0476 9.40544 29.0242 9.50473L28.8058 10.3322H29.5547L29.3362 9.50473Z" fill="#1A3A5A"/>
<path d="M31.9963 11.8464C31.7544 11.8464 31.5438 11.7968 31.3722 11.6975C31.2006 11.5982 31.0602 11.4493 30.9666 11.2424C30.873 11.0356 30.8262 10.7708 30.8262 10.4564C30.8262 10.142 30.8808 9.85235 30.9822 9.6455C31.0836 9.43864 31.2318 9.28143 31.419 9.18214C31.6062 9.08285 31.8169 9.0332 32.0587 9.0332C32.3005 9.0332 32.3629 9.04975 32.4955 9.09112C32.6281 9.12422 32.7451 9.17387 32.8309 9.22351L32.6125 9.77788C32.5189 9.73651 32.4331 9.70342 32.3551 9.67032C32.2771 9.6455 32.1991 9.62895 32.1055 9.62895C32.0119 9.62895 31.9027 9.66204 31.8247 9.71996C31.7466 9.77788 31.692 9.8689 31.653 9.99301C31.614 10.1171 31.5906 10.2661 31.5906 10.4481C31.5906 10.6301 31.614 10.7791 31.653 10.8949C31.692 11.0107 31.7544 11.1018 31.8325 11.1597C31.9105 11.2176 31.9963 11.2424 32.1055 11.2424C32.2147 11.2424 32.3395 11.2259 32.4487 11.1762C32.5579 11.1349 32.6593 11.0769 32.7529 11.0025V11.6313C32.6515 11.7058 32.5423 11.7554 32.4253 11.7885C32.3083 11.8216 32.1679 11.8382 32.0041 11.8382L31.9963 11.8464Z" fill="#1A3A5A"/>
<path d="M34.2739 11.2588C34.3519 11.2588 34.4143 11.2588 34.4845 11.2339C34.5469 11.2174 34.6171 11.2008 34.6873 11.176V11.7304C34.6093 11.7635 34.5157 11.7966 34.4143 11.8131C34.3129 11.838 34.1881 11.8545 34.0477 11.8545C33.9073 11.8545 33.7669 11.8297 33.6498 11.7718C33.5328 11.7221 33.4392 11.6311 33.3768 11.4987C33.3144 11.3663 33.2754 11.1843 33.2754 10.9526V9.64529H32.9712V9.33087L33.3378 9.08264L33.5406 8.51172H34.0243V9.09091H34.6639V9.64529H34.0243V10.9526C34.0243 11.0519 34.0477 11.1346 34.0945 11.1843C34.1413 11.2339 34.2037 11.2588 34.2817 11.2588H34.2739Z" fill="#1A3A5A"/>
<path d="M35.4286 8.02368C35.5378 8.02368 35.6314 8.0485 35.7094 8.09815C35.7874 8.1478 35.8264 8.24709 35.8264 8.37947C35.8264 8.51186 35.7874 8.61115 35.7094 8.6608C35.6314 8.71044 35.5378 8.74354 35.4286 8.74354C35.3194 8.74354 35.218 8.71872 35.14 8.6608C35.062 8.61115 35.0229 8.51186 35.0229 8.37947C35.0229 8.24709 35.062 8.1478 35.14 8.09815C35.218 8.0485 35.3116 8.02368 35.4286 8.02368ZM35.7952 9.09106V11.805H35.0464V9.09106H35.7952Z" fill="#1A3A5A"/>
<path d="M36.942 11.7967L36.0215 9.08276H36.8015L37.2306 10.63C37.2462 10.688 37.2618 10.7542 37.2696 10.8204C37.2774 10.8865 37.2852 10.9527 37.293 11.0107C37.293 11.0769 37.3008 11.1348 37.3008 11.1844H37.3164C37.3164 11.1265 37.3164 11.0686 37.332 11.0024C37.332 10.9362 37.3476 10.8783 37.3554 10.8121C37.371 10.7459 37.3788 10.688 37.3944 10.63L37.8234 9.08276H38.6113L37.6908 11.7967H36.9342H36.942Z" fill="#1A3A5A"/>
<path d="M39.8903 9.04126C40.1165 9.04126 40.3115 9.09091 40.4831 9.18192C40.647 9.28121 40.7796 9.4136 40.8654 9.59563C40.959 9.77767 40.998 10.0011 40.998 10.2658V10.6216H39.4769C39.4769 10.8285 39.5315 10.994 39.6329 11.1098C39.7265 11.2257 39.8669 11.2919 40.0385 11.2919C40.2101 11.2919 40.3349 11.2753 40.4597 11.2422C40.5845 11.2091 40.7172 11.1512 40.8498 11.0767V11.6476C40.7328 11.7138 40.608 11.7635 40.4753 11.7966C40.3427 11.8297 40.1711 11.8462 39.9683 11.8462C39.7655 11.8462 39.5081 11.7966 39.3209 11.6973C39.1336 11.598 38.9854 11.4408 38.8762 11.2422C38.767 11.0353 38.7124 10.7788 38.7124 10.4644C38.7124 10.15 38.7592 9.88523 38.8606 9.6701C38.962 9.46325 39.0946 9.30604 39.274 9.19847C39.4535 9.09091 39.6563 9.04126 39.8825 9.04126H39.8903ZM39.9059 9.56254C39.7967 9.56254 39.7031 9.61218 39.6251 9.7032C39.5471 9.79421 39.5081 9.94315 39.4925 10.1335H40.3115C40.3115 10.0259 40.2959 9.9266 40.2647 9.84386C40.2335 9.76112 40.1867 9.68665 40.1321 9.637C40.0775 9.58736 39.9995 9.56254 39.9059 9.56254Z" fill="#1A3A5A"/>
<path d="M42.5112 11.7967V8.25537H43.2679V11.1762H44.5082V11.7967H42.5112Z" fill="#1A3A5A"/>
<path d="M45.265 8.02368C45.3742 8.02368 45.4678 8.0485 45.5458 8.09815C45.6238 8.1478 45.6628 8.24709 45.6628 8.37947C45.6628 8.51186 45.6238 8.61115 45.5458 8.6608C45.4678 8.71044 45.3742 8.74354 45.265 8.74354C45.1558 8.74354 45.0544 8.71872 44.9764 8.6608C44.8984 8.61115 44.8594 8.51186 44.8594 8.37947C44.8594 8.24709 44.8984 8.1478 44.9764 8.09815C45.0544 8.0485 45.148 8.02368 45.265 8.02368ZM45.6394 9.09106V11.805H44.8906V9.09106H45.6394Z" fill="#1A3A5A"/>
<path d="M47.5898 9.64535H47.0437V11.7967H46.2949V9.64535H45.9517V9.28956L46.3027 9.09098V8.8924C46.3027 8.66072 46.3339 8.47868 46.3963 8.35457C46.4587 8.23046 46.5523 8.13944 46.6771 8.08152C46.8019 8.03188 46.9579 7.99878 47.1374 7.99878C47.3168 7.99878 47.3792 8.00705 47.4806 8.03188C47.582 8.0567 47.6756 8.08152 47.7692 8.11462L47.5976 8.65244C47.5508 8.63589 47.4962 8.61935 47.4416 8.6028C47.387 8.58625 47.3246 8.57798 47.2622 8.57798C47.1998 8.57798 47.1296 8.61107 47.0905 8.66899C47.0515 8.73519 47.0359 8.80965 47.0359 8.90894V9.07443H47.582V9.6288L47.5898 9.64535Z" fill="#1A3A5A"/>
<path d="M48.8922 9.04126C49.1185 9.04126 49.3135 9.09091 49.4851 9.18192C49.6489 9.28121 49.7815 9.4136 49.8673 9.59563C49.9609 9.77767 49.9999 10.0011 49.9999 10.2658V10.6216H48.4788C48.4788 10.8285 48.5334 10.994 48.6348 11.1098C48.7284 11.2257 48.8688 11.2919 49.0405 11.2919C49.2121 11.2919 49.3369 11.2753 49.4617 11.2422C49.5865 11.2091 49.7191 11.1512 49.8517 11.0767V11.6476C49.7347 11.7138 49.6099 11.7635 49.4773 11.7966C49.3447 11.8297 49.1731 11.8462 48.9703 11.8462C48.7674 11.8462 48.51 11.7966 48.3228 11.6973C48.1356 11.598 47.9874 11.4408 47.8782 11.2422C47.769 11.0353 47.7144 10.7788 47.7144 10.4644C47.7144 10.15 47.7612 9.88523 47.8626 9.6701C47.964 9.46325 48.0966 9.30604 48.276 9.19847C48.4554 9.09091 48.6582 9.04126 48.8844 9.04126H48.8922ZM48.9 9.56254C48.7908 9.56254 48.6972 9.61218 48.6192 9.7032C48.5412 9.79421 48.5022 9.94315 48.4866 10.1335H49.3057C49.3057 10.0259 49.2901 9.9266 49.2589 9.84386C49.2277 9.76112 49.1809 9.68665 49.1263 9.637C49.0717 9.58736 48.9937 9.56254 48.9 9.56254Z" fill="#1A3A5A"/>
<path d="M30.2725 13.617C30.0228 13.617 29.8044 13.6667 29.6094 13.7659C29.4144 13.8652 29.2428 14.0059 29.1102 14.1879C28.9698 14.37 28.8684 14.6016 28.7982 14.8664C28.7279 15.1312 28.6889 15.4291 28.6889 15.76C28.6889 16.091 28.7513 16.5792 28.8606 16.9019C28.9776 17.2246 29.157 17.4728 29.391 17.6466C29.625 17.8203 29.9214 17.9031 30.2725 17.9031C30.6235 17.9031 30.6703 17.8865 30.8575 17.8451C31.0447 17.8038 31.2241 17.7541 31.4114 17.6962V18.2754C31.2319 18.3499 31.0525 18.4078 30.8653 18.4409C30.6781 18.474 30.4519 18.4905 30.1945 18.4905C29.7108 18.4905 29.313 18.3747 28.9932 18.1596C28.6733 17.9362 28.4315 17.6217 28.2755 17.208C28.1195 16.7943 28.0337 16.3144 28.0337 15.7518C28.0337 15.1891 28.0805 14.9823 28.1819 14.6513C28.2833 14.3203 28.4237 14.0307 28.6187 13.7908C28.8138 13.5508 29.0478 13.3605 29.3286 13.2281C29.6094 13.0957 29.9292 13.0295 30.2959 13.0295C30.6625 13.0295 30.7639 13.0544 30.9901 13.1123C31.2163 13.1702 31.4192 13.2447 31.5986 13.344L31.3568 13.9066C31.2085 13.8321 31.0525 13.7659 30.8653 13.708C30.6859 13.6501 30.4909 13.617 30.2881 13.617H30.2725Z" fill="#1A3A5A"/>
<path d="M33.65 14.3535C33.9542 14.3535 34.2194 14.428 34.4378 14.5769C34.6562 14.7259 34.8279 14.9327 34.9449 15.2058C35.0619 15.4788 35.1243 15.7932 35.1243 16.1573V16.5545H32.7061C32.7139 17.0095 32.8153 17.3488 33.0103 17.5887C33.2053 17.8287 33.4706 17.9445 33.8216 17.9445C34.1726 17.9445 34.2428 17.9197 34.4222 17.8701C34.5938 17.8204 34.7811 17.7542 34.9683 17.6632V18.2341C34.7889 18.3251 34.6094 18.3913 34.43 18.4327C34.2584 18.4741 34.04 18.4989 33.7982 18.4989C33.5564 18.4989 33.1663 18.4244 32.9089 18.2672C32.6515 18.11 32.4487 17.8866 32.3083 17.5805C32.16 17.2743 32.0898 16.902 32.0898 16.4634C32.0898 16.0249 32.1522 15.6526 32.2849 15.3381C32.4175 15.0237 32.5969 14.7838 32.8387 14.6183C33.0727 14.4528 33.3535 14.3618 33.6656 14.3618L33.65 14.3535ZM33.65 14.8913C33.3769 14.8913 33.1663 14.9906 33.0025 15.1892C32.8465 15.3878 32.7529 15.6691 32.7217 16.0249H34.4924C34.4924 15.7932 34.4612 15.5947 34.3988 15.4292C34.3364 15.2637 34.2428 15.1313 34.118 15.032C33.9932 14.9327 33.8372 14.8831 33.6422 14.8831L33.65 14.8913Z" fill="#1A3A5A"/>
<path d="M37.6673 14.3535C38.0885 14.3535 38.4084 14.4694 38.6268 14.701C38.8452 14.9327 38.9544 15.3051 38.9544 15.8181V18.4162H38.346V15.8594C38.346 15.5367 38.2836 15.2968 38.1587 15.1396C38.0339 14.9824 37.8389 14.8996 37.5737 14.8996C37.1915 14.8996 36.9262 15.0237 36.778 15.272C36.6298 15.5202 36.5596 15.876 36.5596 16.3476V18.4162H35.9512V14.428H36.4426L36.5362 14.9741H36.5752C36.6532 14.8334 36.7468 14.7176 36.8638 14.6266C36.9809 14.5355 37.1135 14.4694 37.2539 14.4197C37.3943 14.3701 37.5425 14.3535 37.6907 14.3535H37.6673Z" fill="#1A3A5A"/>
<path d="M41.1776 17.9611C41.2634 17.9611 41.3571 17.9528 41.4507 17.9362C41.5443 17.9197 41.6223 17.9031 41.6847 17.8783V18.3748C41.6223 18.4079 41.5287 18.441 41.4039 18.4575C41.2869 18.4823 41.1698 18.4906 41.0606 18.4906C40.8734 18.4906 40.7018 18.4575 40.538 18.383C40.382 18.3086 40.2494 18.1845 40.1558 18.0107C40.0622 17.8287 40.0154 17.5804 40.0154 17.2577V14.9327H39.5161V14.6183L40.031 14.3618L40.265 13.5095H40.6316V14.428H41.6535V14.9327H40.6316V17.2412C40.6316 17.4812 40.6862 17.6632 40.7876 17.779C40.889 17.8949 41.0216 17.9528 41.1776 17.9528V17.9611Z" fill="#1A3A5A"/>
<path d="M43.9935 14.3535C44.0559 14.3535 44.1261 14.3535 44.2041 14.3618C44.2821 14.3618 44.3446 14.3783 44.3992 14.3949L44.329 14.9989C44.2743 14.9824 44.2119 14.9741 44.1417 14.9658C44.0715 14.9575 44.0091 14.9493 43.9467 14.9493C43.8141 14.9493 43.6815 14.9824 43.5567 15.0486C43.4319 15.1147 43.3227 15.2058 43.2291 15.3216C43.1355 15.4374 43.0575 15.5781 43.0028 15.7436C42.9482 15.9091 42.917 16.0911 42.917 16.298V18.4244H42.3086V14.4363H42.8078L42.878 15.1644H42.9092C42.9872 15.0155 43.0731 14.8831 43.1823 14.759C43.2915 14.6348 43.4085 14.5438 43.5411 14.4694C43.6737 14.3949 43.8297 14.3618 43.9935 14.3618V14.3535Z" fill="#1A3A5A"/>
<path d="M46.3726 14.3535C46.6768 14.3535 46.9421 14.428 47.1605 14.5769C47.3789 14.7259 47.5505 14.9327 47.6675 15.2058C47.7845 15.4788 47.8469 15.7932 47.8469 16.1573V16.5545H45.4287C45.4365 17.0095 45.538 17.3488 45.733 17.5887C45.928 17.8287 46.1932 17.9445 46.5442 17.9445C46.8953 17.9445 46.9655 17.9197 47.1449 17.8701C47.3165 17.8204 47.5037 17.7542 47.6909 17.6632V18.2341C47.5115 18.3251 47.3321 18.3913 47.1527 18.4327C46.9811 18.4741 46.7627 18.4989 46.5208 18.4989C46.279 18.4989 45.889 18.4244 45.6316 18.2672C45.3741 18.11 45.1713 17.8866 45.0309 17.5805C44.8827 17.2743 44.8125 16.902 44.8125 16.4634C44.8125 16.0249 44.8749 15.6526 45.0075 15.3381C45.1401 15.0237 45.3195 14.7838 45.5614 14.6183C45.7954 14.4528 46.0762 14.3618 46.3882 14.3618L46.3726 14.3535ZM46.3726 14.8913C46.0996 14.8913 45.889 14.9906 45.7252 15.1892C45.5692 15.3878 45.4756 15.6691 45.4443 16.0249H47.2151C47.2151 15.7932 47.1839 15.5947 47.1215 15.4292C47.0591 15.2637 46.9655 15.1313 46.8407 15.032C46.7158 14.9327 46.5598 14.8831 46.3648 14.8831L46.3726 14.8913Z" fill="#1A3A5A"/>
</g>
<defs>
<clipPath id="clip0_12390_902">
<rect width="41" height="14" fill="white" transform="translate(9 5.5)"/>
</clipPath>
</defs>
</svg>
