<svg width="390" height="153" viewBox="0 0 390 153" fill="none" xmlns="http://www.w3.org/2000/svg">
<circle cx="196.5" cy="54.5" r="54.5" fill="#FFEFE9"/>
<circle cx="152.5" cy="90.5" r="42.5" fill="#FEFBE8"/>
<circle cx="212.5" cy="117.5" r="33.5" fill="#EBF5FF"/>
<mask id="path-4-outside-1_12167_2380" maskUnits="userSpaceOnUse" x="195" y="42" width="195" height="25" fill="black">
<rect fill="white" x="195" y="42" width="195" height="25"/>
<path d="M195 43H390V67H195V43Z"/>
</mask>
<path d="M195 44H390V42H195V44Z" fill="#D2D2D2" mask="url(#path-4-outside-1_12167_2380)"/>
<path d="M198.251 64V51L199.391 52.18H195.291V50H200.851V64H198.251ZM209.468 64.2C208.361 64.2 207.361 63.92 206.468 63.36C205.588 62.8 204.895 61.9867 204.388 60.92C203.881 59.84 203.628 58.5333 203.628 57C203.628 55.4667 203.881 54.1667 204.388 53.1C204.895 52.02 205.588 51.2 206.468 50.64C207.361 50.08 208.361 49.8 209.468 49.8C210.588 49.8 211.588 50.08 212.468 50.64C213.348 51.2 214.041 52.02 214.548 53.1C215.068 54.1667 215.328 55.4667 215.328 57C215.328 58.5333 215.068 59.84 214.548 60.92C214.041 61.9867 213.348 62.8 212.468 63.36C211.588 63.92 210.588 64.2 209.468 64.2ZM209.468 61.94C210.121 61.94 210.688 61.7667 211.168 61.42C211.648 61.06 212.021 60.5133 212.288 59.78C212.568 59.0467 212.708 58.12 212.708 57C212.708 55.8667 212.568 54.94 212.288 54.22C212.021 53.4867 211.648 52.9467 211.168 52.6C210.688 52.24 210.121 52.06 209.468 52.06C208.841 52.06 208.281 52.24 207.788 52.6C207.308 52.9467 206.928 53.4867 206.648 54.22C206.381 54.94 206.248 55.8667 206.248 57C206.248 58.12 206.381 59.0467 206.648 59.78C206.928 60.5133 207.308 61.06 207.788 61.42C208.281 61.7667 208.841 61.94 209.468 61.94ZM222.925 64.2C221.818 64.2 220.818 63.92 219.925 63.36C219.045 62.8 218.352 61.9867 217.845 60.92C217.338 59.84 217.085 58.5333 217.085 57C217.085 55.4667 217.338 54.1667 217.845 53.1C218.352 52.02 219.045 51.2 219.925 50.64C220.818 50.08 221.818 49.8 222.925 49.8C224.045 49.8 225.045 50.08 225.925 50.64C226.805 51.2 227.498 52.02 228.005 53.1C228.525 54.1667 228.785 55.4667 228.785 57C228.785 58.5333 228.525 59.84 228.005 60.92C227.498 61.9867 226.805 62.8 225.925 63.36C225.045 63.92 224.045 64.2 222.925 64.2ZM222.925 61.94C223.578 61.94 224.145 61.7667 224.625 61.42C225.105 61.06 225.478 60.5133 225.745 59.78C226.025 59.0467 226.165 58.12 226.165 57C226.165 55.8667 226.025 54.94 225.745 54.22C225.478 53.4867 225.105 52.9467 224.625 52.6C224.145 52.24 223.578 52.06 222.925 52.06C222.298 52.06 221.738 52.24 221.245 52.6C220.765 52.9467 220.385 53.4867 220.105 54.22C219.838 54.94 219.705 55.8667 219.705 57C219.705 58.12 219.838 59.0467 220.105 59.78C220.385 60.5133 220.765 61.06 221.245 61.42C221.738 61.7667 222.298 61.94 222.925 61.94ZM232.502 64L242.062 50H244.022L234.462 64H232.502ZM233.662 57.54C233.009 57.54 232.429 57.38 231.922 57.06C231.415 56.74 231.022 56.2933 230.742 55.72C230.462 55.1467 230.322 54.4733 230.322 53.7C230.322 52.9267 230.462 52.2533 230.742 51.68C231.022 51.1067 231.415 50.66 231.922 50.34C232.429 50.02 233.009 49.86 233.662 49.86C234.342 49.86 234.929 50.02 235.422 50.34C235.929 50.66 236.322 51.1067 236.602 51.68C236.882 52.2533 237.022 52.9267 237.022 53.7C237.022 54.4733 236.882 55.1467 236.602 55.72C236.322 56.2933 235.929 56.74 235.422 57.06C234.929 57.38 234.342 57.54 233.662 57.54ZM233.682 56.14C234.215 56.14 234.629 55.9333 234.922 55.52C235.229 55.0933 235.382 54.4867 235.382 53.7C235.382 52.9133 235.229 52.3133 234.922 51.9C234.629 51.4733 234.215 51.26 233.682 51.26C233.149 51.26 232.722 51.4733 232.402 51.9C232.095 52.3267 231.942 52.9267 231.942 53.7C231.942 54.4733 232.095 55.0733 232.402 55.5C232.722 55.9267 233.149 56.14 233.682 56.14ZM242.842 64.14C242.189 64.14 241.609 63.98 241.102 63.66C240.595 63.34 240.202 62.8933 239.922 62.32C239.642 61.7467 239.502 61.0733 239.502 60.3C239.502 59.5267 239.642 58.8533 239.922 58.28C240.202 57.7067 240.595 57.26 241.102 56.94C241.609 56.62 242.189 56.46 242.842 56.46C243.522 56.46 244.109 56.62 244.602 56.94C245.109 57.26 245.502 57.7067 245.782 58.28C246.062 58.8533 246.202 59.5267 246.202 60.3C246.202 61.0733 246.062 61.7467 245.782 62.32C245.502 62.8933 245.109 63.34 244.602 63.66C244.109 63.98 243.522 64.14 242.842 64.14ZM242.842 62.74C243.375 62.74 243.795 62.5267 244.102 62.1C244.409 61.6733 244.562 61.0733 244.562 60.3C244.562 59.5267 244.409 58.9267 244.102 58.5C243.795 58.0733 243.375 57.86 242.842 57.86C242.322 57.86 241.902 58.0733 241.582 58.5C241.275 58.9133 241.122 59.5133 241.122 60.3C241.122 61.0867 241.275 61.6933 241.582 62.12C241.902 62.5333 242.322 62.74 242.842 62.74Z" fill="#2B2A2E"/>
<path d="M320.502 59.14C319.812 59.14 319.172 59.014 318.584 58.762C318.006 58.5007 317.502 58.1413 317.072 57.684C316.643 57.2173 316.312 56.6713 316.078 56.046C315.845 55.4113 315.728 54.716 315.728 53.96C315.728 53.204 315.845 52.5133 316.078 51.888C316.312 51.2533 316.638 50.7073 317.058 50.25C317.488 49.7833 317.992 49.424 318.57 49.172C319.158 48.9107 319.798 48.78 320.488 48.78C321.244 48.78 321.921 48.934 322.518 49.242C323.125 49.55 323.62 49.984 324.002 50.544C324.394 51.104 324.637 51.7573 324.73 52.504H323.582C323.47 51.6733 323.139 51.02 322.588 50.544C322.047 50.0587 321.352 49.816 320.502 49.816C319.784 49.816 319.154 49.9933 318.612 50.348C318.071 50.6933 317.651 51.1787 317.352 51.804C317.054 52.42 316.904 53.1387 316.904 53.96C316.904 54.7813 317.054 55.5047 317.352 56.13C317.651 56.746 318.071 57.2313 318.612 57.586C319.154 57.9313 319.779 58.104 320.488 58.104C321.356 58.104 322.066 57.8613 322.616 57.376C323.176 56.8907 323.508 56.2373 323.61 55.416H324.758C324.665 56.1627 324.422 56.816 324.03 57.376C323.648 57.936 323.153 58.37 322.546 58.678C321.949 58.986 321.268 59.14 320.502 59.14ZM329.41 59.14C328.729 59.14 328.127 58.9813 327.604 58.664C327.082 58.3373 326.671 57.894 326.372 57.334C326.074 56.774 325.924 56.13 325.924 55.402C325.924 54.674 326.069 54.0347 326.358 53.484C326.657 52.924 327.072 52.49 327.604 52.182C328.136 51.874 328.748 51.72 329.438 51.72C330.101 51.72 330.675 51.8647 331.16 52.154C331.655 52.4433 332.033 52.8493 332.294 53.372C332.565 53.8947 332.7 54.5107 332.7 55.22C332.7 55.3133 332.696 55.402 332.686 55.486C332.686 55.57 332.677 55.6633 332.658 55.766H326.764V54.828H331.972L331.608 55.346C331.608 54.4873 331.417 53.8293 331.034 53.372C330.661 52.9053 330.129 52.672 329.438 52.672C328.729 52.672 328.155 52.9193 327.716 53.414C327.287 53.8993 327.072 54.5573 327.072 55.388C327.072 56.2373 327.287 56.9187 327.716 57.432C328.155 57.936 328.738 58.188 329.466 58.188C329.924 58.188 330.325 58.09 330.67 57.894C331.016 57.6887 331.268 57.3993 331.426 57.026H332.49C332.257 57.6793 331.865 58.1973 331.314 58.58C330.773 58.9533 330.138 59.14 329.41 59.14ZM334.387 59V51.86H335.437V53.68H335.507V59H334.387ZM335.507 55.276L335.325 53.582C335.493 52.9753 335.791 52.5133 336.221 52.196C336.65 51.8787 337.145 51.72 337.705 51.72C337.938 51.72 338.097 51.7387 338.181 51.776V52.854C338.134 52.8353 338.069 52.826 337.985 52.826C337.901 52.8167 337.798 52.812 337.677 52.812C336.967 52.812 336.426 53.0267 336.053 53.456C335.689 53.876 335.507 54.4827 335.507 55.276ZM342.657 59.126C341.863 59.126 341.285 58.9487 340.921 58.594C340.566 58.23 340.389 57.7073 340.389 57.026V50.194L341.509 49.774V57.012C341.509 57.4133 341.611 57.7073 341.817 57.894C342.022 58.0807 342.358 58.174 342.825 58.174C343.011 58.174 343.17 58.1647 343.301 58.146C343.441 58.118 343.553 58.0853 343.637 58.048V59C343.543 59.0373 343.408 59.0653 343.231 59.084C343.063 59.112 342.871 59.126 342.657 59.126ZM338.919 52.812V51.86H343.637V52.812H338.919ZM345.078 59V51.86H346.198V59H345.078ZM344.994 50.236V48.92H346.282V50.236H344.994ZM349.002 59V50.852C349.002 50.1987 349.189 49.69 349.562 49.326C349.945 48.962 350.523 48.78 351.298 48.78C351.485 48.78 351.629 48.7893 351.732 48.808C351.844 48.8267 351.937 48.85 352.012 48.878V49.76C351.947 49.7413 351.853 49.7227 351.732 49.704C351.62 49.6853 351.499 49.676 351.368 49.676C350.939 49.676 350.621 49.7833 350.416 49.998C350.22 50.2127 350.122 50.516 350.122 50.908V59H349.002ZM353.51 59V51.86H354.63V59H353.51ZM347.532 52.812V51.86H354.14V52.812H347.532ZM353.426 50.236V48.92H354.714V50.236H353.426ZM359.625 59.14C358.944 59.14 358.342 58.9813 357.819 58.664C357.296 58.3373 356.886 57.894 356.587 57.334C356.288 56.774 356.139 56.13 356.139 55.402C356.139 54.674 356.284 54.0347 356.573 53.484C356.872 52.924 357.287 52.49 357.819 52.182C358.351 51.874 358.962 51.72 359.653 51.72C360.316 51.72 360.89 51.8647 361.375 52.154C361.87 52.4433 362.248 52.8493 362.509 53.372C362.78 53.8947 362.915 54.5107 362.915 55.22C362.915 55.3133 362.91 55.402 362.901 55.486C362.901 55.57 362.892 55.6633 362.873 55.766H356.979V54.828H362.187L361.823 55.346C361.823 54.4873 361.632 53.8293 361.249 53.372C360.876 52.9053 360.344 52.672 359.653 52.672C358.944 52.672 358.37 52.9193 357.931 53.414C357.502 53.8993 357.287 54.5573 357.287 55.388C357.287 56.2373 357.502 56.9187 357.931 57.432C358.37 57.936 358.953 58.188 359.681 58.188C360.138 58.188 360.54 58.09 360.885 57.894C361.23 57.6887 361.482 57.3993 361.641 57.026H362.705C362.472 57.6793 362.08 58.1973 361.529 58.58C360.988 58.9533 360.353 59.14 359.625 59.14ZM369.795 59V57.334L369.935 57.376C369.758 57.9173 369.431 58.3467 368.955 58.664C368.489 58.9813 367.929 59.14 367.275 59.14C366.631 59.14 366.067 58.986 365.581 58.678C365.105 58.37 364.732 57.9407 364.461 57.39C364.2 56.8393 364.069 56.1953 364.069 55.458C364.069 54.7113 364.205 54.058 364.475 53.498C364.746 52.938 365.124 52.504 365.609 52.196C366.095 51.888 366.664 51.734 367.317 51.734C367.989 51.734 368.554 51.8973 369.011 52.224C369.469 52.5507 369.781 53.0127 369.949 53.61L369.725 53.638V48.92H370.845V59H369.795ZM367.485 58.16C368.204 58.16 368.764 57.9173 369.165 57.432C369.576 56.9373 369.781 56.2653 369.781 55.416C369.781 54.5853 369.576 53.9273 369.165 53.442C368.755 52.9567 368.195 52.714 367.485 52.714C366.776 52.714 366.221 52.9567 365.819 53.442C365.418 53.9273 365.217 54.5993 365.217 55.458C365.217 56.298 365.418 56.9607 365.819 57.446C366.221 57.922 366.776 58.16 367.485 58.16ZM309.93 81V70.92H311.078V81H309.93ZM313.4 81V73.86H314.45V75.54H314.52V81H313.4ZM318.51 81V76.324C318.51 75.7827 318.375 75.3767 318.104 75.106C317.834 74.8353 317.432 74.7 316.9 74.7C316.434 74.7 316.018 74.8027 315.654 75.008C315.3 75.2133 315.02 75.498 314.814 75.862C314.618 76.226 314.52 76.6507 314.52 77.136L314.338 75.442C314.581 74.91 314.95 74.49 315.444 74.182C315.948 73.874 316.518 73.72 317.152 73.72C317.899 73.72 318.496 73.9347 318.944 74.364C319.402 74.784 319.63 75.3393 319.63 76.03V81H318.51ZM324.176 81.14C323.298 81.14 322.598 80.9393 322.076 80.538C321.553 80.1273 321.254 79.5487 321.18 78.802H322.258C322.323 79.2593 322.524 79.6093 322.86 79.852C323.196 80.0947 323.644 80.216 324.204 80.216C324.698 80.216 325.086 80.1227 325.366 79.936C325.646 79.7493 325.786 79.4833 325.786 79.138C325.786 78.8953 325.706 78.6853 325.548 78.508C325.389 78.3213 325.072 78.1673 324.596 78.046L323.448 77.752C322.794 77.584 322.304 77.3273 321.978 76.982C321.651 76.6273 321.488 76.2073 321.488 75.722C321.488 75.106 321.716 74.6207 322.174 74.266C322.631 73.902 323.252 73.72 324.036 73.72C324.81 73.72 325.44 73.9067 325.926 74.28C326.411 74.6533 326.686 75.1713 326.752 75.834H325.674C325.608 75.4513 325.431 75.1573 325.142 74.952C324.852 74.7467 324.47 74.644 323.994 74.644C323.536 74.644 323.182 74.7327 322.93 74.91C322.678 75.078 322.552 75.3207 322.552 75.638C322.552 75.8807 322.64 76.0907 322.818 76.268C323.004 76.4453 323.312 76.5947 323.742 76.716L324.862 77.024C325.524 77.2013 326.024 77.472 326.36 77.836C326.696 78.2 326.864 78.6387 326.864 79.152C326.864 79.7773 326.626 80.2673 326.15 80.622C325.674 80.9673 325.016 81.14 324.176 81.14ZM331.227 81.126C330.434 81.126 329.855 80.9487 329.491 80.594C329.136 80.23 328.959 79.7073 328.959 79.026V72.194L330.079 71.774V79.012C330.079 79.4133 330.182 79.7073 330.387 79.894C330.592 80.0807 330.928 80.174 331.395 80.174C331.582 80.174 331.74 80.1647 331.871 80.146C332.011 80.118 332.123 80.0853 332.207 80.048V81C332.114 81.0373 331.978 81.0653 331.801 81.084C331.633 81.112 331.442 81.126 331.227 81.126ZM327.489 74.812V73.86H332.207V74.812H327.489ZM333.648 81V73.86H334.698V75.68H334.768V81H333.648ZM334.768 77.276L334.586 75.582C334.754 74.9753 335.053 74.5133 335.482 74.196C335.912 73.8787 336.406 73.72 336.966 73.72C337.2 73.72 337.358 73.7387 337.442 73.776V74.854C337.396 74.8353 337.33 74.826 337.246 74.826C337.162 74.8167 337.06 74.812 336.938 74.812C336.229 74.812 335.688 75.0267 335.314 75.456C334.95 75.876 334.768 76.4827 334.768 77.276ZM341.113 81.14C340.646 81.14 340.231 81.0467 339.867 80.86C339.503 80.664 339.218 80.3933 339.013 80.048C338.808 79.6933 338.705 79.2873 338.705 78.83V73.86H339.825V78.536C339.825 79.0773 339.956 79.4833 340.217 79.754C340.488 80.0247 340.87 80.16 341.365 80.16C341.813 80.16 342.21 80.0573 342.555 79.852C342.9 79.6467 343.171 79.362 343.367 78.998C343.572 78.6247 343.675 78.2 343.675 77.724L343.857 79.418C343.624 79.95 343.26 80.37 342.765 80.678C342.27 80.986 341.72 81.14 341.113 81.14ZM343.745 81V79.32H343.675V73.86H344.795V81H343.745ZM349.834 81.14C349.18 81.14 348.597 80.9813 348.084 80.664C347.58 80.3373 347.178 79.894 346.88 79.334C346.59 78.7647 346.446 78.1207 346.446 77.402C346.446 76.6833 346.59 76.0487 346.88 75.498C347.178 74.9473 347.58 74.5133 348.084 74.196C348.597 73.8787 349.176 73.72 349.82 73.72C350.352 73.72 350.828 73.8227 351.248 74.028C351.677 74.2333 352.027 74.5273 352.298 74.91C352.578 75.2833 352.755 75.722 352.83 76.226H351.794C351.7 75.7687 351.486 75.3953 351.15 75.106C350.814 74.8167 350.38 74.672 349.848 74.672C349.39 74.672 348.994 74.784 348.658 75.008C348.322 75.232 348.06 75.5493 347.874 75.96C347.687 76.3707 347.594 76.8513 347.594 77.402C347.594 77.9527 347.687 78.438 347.874 78.858C348.06 79.278 348.322 79.6047 348.658 79.838C349.003 80.0713 349.404 80.188 349.862 80.188C350.375 80.188 350.804 80.048 351.15 79.768C351.495 79.4787 351.714 79.1053 351.808 78.648H352.844C352.76 79.1427 352.573 79.5813 352.284 79.964C352.004 80.3373 351.654 80.6267 351.234 80.832C350.814 81.0373 350.347 81.14 349.834 81.14ZM357.299 81.126C356.506 81.126 355.927 80.9487 355.563 80.594C355.209 80.23 355.031 79.7073 355.031 79.026V72.194L356.151 71.774V79.012C356.151 79.4133 356.254 79.7073 356.459 79.894C356.665 80.0807 357.001 80.174 357.467 80.174C357.654 80.174 357.813 80.1647 357.943 80.146C358.083 80.118 358.195 80.0853 358.279 80.048V81C358.186 81.0373 358.051 81.0653 357.873 81.084C357.705 81.112 357.514 81.126 357.299 81.126ZM353.561 74.812V73.86H358.279V74.812H353.561ZM362.525 81.14C361.825 81.14 361.209 80.9767 360.677 80.65C360.145 80.3233 359.729 79.88 359.431 79.32C359.141 78.7507 358.997 78.1113 358.997 77.402C358.997 76.6833 359.146 76.0487 359.445 75.498C359.743 74.9473 360.154 74.5133 360.677 74.196C361.209 73.8787 361.825 73.72 362.525 73.72C363.234 73.72 363.85 73.8787 364.373 74.196C364.905 74.5133 365.315 74.9473 365.605 75.498C365.903 76.0487 366.053 76.6833 366.053 77.402C366.053 78.1113 365.903 78.7507 365.605 79.32C365.315 79.88 364.905 80.3233 364.373 80.65C363.85 80.9767 363.234 81.14 362.525 81.14ZM362.525 80.188C363.01 80.188 363.43 80.0713 363.785 79.838C364.139 79.5953 364.415 79.264 364.611 78.844C364.807 78.424 364.905 77.9387 364.905 77.388C364.905 76.5667 364.685 75.9087 364.247 75.414C363.817 74.9193 363.243 74.672 362.525 74.672C361.815 74.672 361.241 74.9193 360.803 75.414C360.364 75.9087 360.145 76.5667 360.145 77.388C360.145 77.9387 360.243 78.424 360.439 78.844C360.635 79.264 360.91 79.5953 361.265 79.838C361.629 80.0713 362.049 80.188 362.525 80.188ZM367.732 81V73.86H368.782V75.68H368.852V81H367.732ZM368.852 77.276L368.67 75.582C368.838 74.9753 369.137 74.5133 369.566 74.196C369.996 73.8787 370.49 73.72 371.05 73.72C371.284 73.72 371.442 73.7387 371.526 73.776V74.854C371.48 74.8353 371.414 74.826 371.33 74.826C371.246 74.8167 371.144 74.812 371.022 74.812C370.313 74.812 369.772 75.0267 369.398 75.456C369.034 75.876 368.852 76.4827 368.852 77.276ZM375.199 81.14C374.322 81.14 373.622 80.9393 373.099 80.538C372.577 80.1273 372.278 79.5487 372.203 78.802H373.281C373.347 79.2593 373.547 79.6093 373.883 79.852C374.219 80.0947 374.667 80.216 375.227 80.216C375.722 80.216 376.109 80.1227 376.389 79.936C376.669 79.7493 376.809 79.4833 376.809 79.138C376.809 78.8953 376.73 78.6853 376.571 78.508C376.413 78.3213 376.095 78.1673 375.619 78.046L374.471 77.752C373.818 77.584 373.328 77.3273 373.001 76.982C372.675 76.6273 372.511 76.2073 372.511 75.722C372.511 75.106 372.74 74.6207 373.197 74.266C373.655 73.902 374.275 73.72 375.059 73.72C375.834 73.72 376.464 73.9067 376.949 74.28C377.435 74.6533 377.71 75.1713 377.775 75.834H376.697C376.632 75.4513 376.455 75.1573 376.165 74.952C375.876 74.7467 375.493 74.644 375.017 74.644C374.56 74.644 374.205 74.7327 373.953 74.91C373.701 75.078 373.575 75.3207 373.575 75.638C373.575 75.8807 373.664 76.0907 373.841 76.268C374.028 76.4453 374.336 76.5947 374.765 76.716L375.885 77.024C376.548 77.2013 377.047 77.472 377.383 77.836C377.719 78.2 377.887 78.6387 377.887 79.152C377.887 79.7773 377.649 80.2673 377.173 80.622C376.697 80.9673 376.039 81.14 375.199 81.14Z" fill="#2B2A2E"/>
<mask id="path-8-outside-2_12167_2380" maskUnits="userSpaceOnUse" x="212" y="111" width="178" height="25" fill="black">
<rect fill="white" x="212" y="111" width="178" height="25"/>
<path d="M212 112H390V136H212V112Z"/>
</mask>
<path d="M212 113H390V111H212V113Z" fill="#D2D2D2" mask="url(#path-8-outside-2_12167_2380)"/>
<path d="M215.136 133V120L216.276 121.18H212.176V119H217.736V133H215.136ZM226.353 133.2C225.246 133.2 224.246 132.92 223.353 132.36C222.473 131.8 221.779 130.987 221.273 129.92C220.766 128.84 220.513 127.533 220.513 126C220.513 124.467 220.766 123.167 221.273 122.1C221.779 121.02 222.473 120.2 223.353 119.64C224.246 119.08 225.246 118.8 226.353 118.8C227.473 118.8 228.473 119.08 229.353 119.64C230.233 120.2 230.926 121.02 231.433 122.1C231.953 123.167 232.213 124.467 232.213 126C232.213 127.533 231.953 128.84 231.433 129.92C230.926 130.987 230.233 131.8 229.353 132.36C228.473 132.92 227.473 133.2 226.353 133.2ZM226.353 130.94C227.006 130.94 227.573 130.767 228.053 130.42C228.533 130.06 228.906 129.513 229.173 128.78C229.453 128.047 229.593 127.12 229.593 126C229.593 124.867 229.453 123.94 229.173 123.22C228.906 122.487 228.533 121.947 228.053 121.6C227.573 121.24 227.006 121.06 226.353 121.06C225.726 121.06 225.166 121.24 224.673 121.6C224.193 121.947 223.813 122.487 223.533 123.22C223.266 123.94 223.133 124.867 223.133 126C223.133 127.12 223.266 128.047 223.533 128.78C223.813 129.513 224.193 130.06 224.673 130.42C225.166 130.767 225.726 130.94 226.353 130.94ZM238.028 130.5V121.5H240.168V130.5H238.028ZM234.488 127V125H243.708V127H234.488Z" fill="#2B2A2E"/>
<path d="M330.68 128V123.436L326.858 117.92H328.258L331.576 122.764H331.044L334.362 117.92H335.65L331.828 123.436V128H330.68ZM338.676 128.14C337.995 128.14 337.393 127.981 336.87 127.664C336.347 127.337 335.937 126.894 335.638 126.334C335.339 125.774 335.19 125.13 335.19 124.402C335.19 123.674 335.335 123.035 335.624 122.484C335.923 121.924 336.338 121.49 336.87 121.182C337.402 120.874 338.013 120.72 338.704 120.72C339.367 120.72 339.941 120.865 340.426 121.154C340.921 121.443 341.299 121.849 341.56 122.372C341.831 122.895 341.966 123.511 341.966 124.22C341.966 124.313 341.961 124.402 341.952 124.486C341.952 124.57 341.943 124.663 341.924 124.766H336.03V123.828H341.238L340.874 124.346C340.874 123.487 340.683 122.829 340.3 122.372C339.927 121.905 339.395 121.672 338.704 121.672C337.995 121.672 337.421 121.919 336.982 122.414C336.553 122.899 336.338 123.557 336.338 124.388C336.338 125.237 336.553 125.919 336.982 126.432C337.421 126.936 338.004 127.188 338.732 127.188C339.189 127.188 339.591 127.09 339.936 126.894C340.281 126.689 340.533 126.399 340.692 126.026H341.756C341.523 126.679 341.131 127.197 340.58 127.58C340.039 127.953 339.404 128.14 338.676 128.14ZM347.993 128C347.956 127.841 347.928 127.659 347.909 127.454C347.9 127.249 347.895 126.987 347.895 126.67H347.825V123.254C347.825 122.713 347.699 122.316 347.447 122.064C347.205 121.803 346.808 121.672 346.257 121.672C345.716 121.672 345.282 121.784 344.955 122.008C344.638 122.223 344.461 122.531 344.423 122.932H343.345C343.392 122.241 343.681 121.7 344.213 121.308C344.745 120.916 345.441 120.72 346.299 120.72C347.186 120.72 347.844 120.93 348.273 121.35C348.703 121.77 348.917 122.4 348.917 123.24V126.67C348.917 126.875 348.931 127.09 348.959 127.314C348.987 127.529 349.025 127.757 349.071 128H347.993ZM345.543 128.14C344.806 128.14 344.218 127.963 343.779 127.608C343.35 127.244 343.135 126.749 343.135 126.124C343.135 125.499 343.35 125.013 343.779 124.668C344.209 124.323 344.834 124.08 345.655 123.94L348.147 123.52V124.444L345.823 124.808C345.301 124.892 344.904 125.032 344.633 125.228C344.363 125.424 344.227 125.709 344.227 126.082C344.227 126.446 344.349 126.721 344.591 126.908C344.843 127.095 345.212 127.188 345.697 127.188C346.323 127.188 346.831 127.048 347.223 126.768C347.625 126.479 347.825 126.105 347.825 125.648L348.007 126.642C347.858 127.118 347.564 127.487 347.125 127.748C346.696 128.009 346.169 128.14 345.543 128.14ZM351.076 128V120.86H352.126V122.68H352.196V128H351.076ZM352.196 124.276L352.014 122.582C352.182 121.975 352.481 121.513 352.91 121.196C353.339 120.879 353.834 120.72 354.394 120.72C354.627 120.72 354.786 120.739 354.87 120.776V121.854C354.823 121.835 354.758 121.826 354.674 121.826C354.59 121.817 354.487 121.812 354.366 121.812C353.657 121.812 353.115 122.027 352.742 122.456C352.378 122.876 352.196 123.483 352.196 124.276ZM358.543 128.14C357.666 128.14 356.966 127.939 356.443 127.538C355.92 127.127 355.622 126.549 355.547 125.802H356.625C356.69 126.259 356.891 126.609 357.227 126.852C357.563 127.095 358.011 127.216 358.571 127.216C359.066 127.216 359.453 127.123 359.733 126.936C360.013 126.749 360.153 126.483 360.153 126.138C360.153 125.895 360.074 125.685 359.915 125.508C359.756 125.321 359.439 125.167 358.963 125.046L357.815 124.752C357.162 124.584 356.672 124.327 356.345 123.982C356.018 123.627 355.855 123.207 355.855 122.722C355.855 122.106 356.084 121.621 356.541 121.266C356.998 120.902 357.619 120.72 358.403 120.72C359.178 120.72 359.808 120.907 360.293 121.28C360.778 121.653 361.054 122.171 361.119 122.834H360.041C359.976 122.451 359.798 122.157 359.509 121.952C359.22 121.747 358.837 121.644 358.361 121.644C357.904 121.644 357.549 121.733 357.297 121.91C357.045 122.078 356.919 122.321 356.919 122.638C356.919 122.881 357.008 123.091 357.185 123.268C357.372 123.445 357.68 123.595 358.109 123.716L359.229 124.024C359.892 124.201 360.391 124.472 360.727 124.836C361.063 125.2 361.231 125.639 361.231 126.152C361.231 126.777 360.993 127.267 360.517 127.622C360.041 127.967 359.383 128.14 358.543 128.14ZM368.509 128.14C367.809 128.14 367.193 127.977 366.661 127.65C366.129 127.323 365.714 126.88 365.415 126.32C365.126 125.751 364.981 125.111 364.981 124.402C364.981 123.683 365.13 123.049 365.429 122.498C365.728 121.947 366.138 121.513 366.661 121.196C367.193 120.879 367.809 120.72 368.509 120.72C369.218 120.72 369.834 120.879 370.357 121.196C370.889 121.513 371.3 121.947 371.589 122.498C371.888 123.049 372.037 123.683 372.037 124.402C372.037 125.111 371.888 125.751 371.589 126.32C371.3 126.88 370.889 127.323 370.357 127.65C369.834 127.977 369.218 128.14 368.509 128.14ZM368.509 127.188C368.994 127.188 369.414 127.071 369.769 126.838C370.124 126.595 370.399 126.264 370.595 125.844C370.791 125.424 370.889 124.939 370.889 124.388C370.889 123.567 370.67 122.909 370.231 122.414C369.802 121.919 369.228 121.672 368.509 121.672C367.8 121.672 367.226 121.919 366.787 122.414C366.348 122.909 366.129 123.567 366.129 124.388C366.129 124.939 366.227 125.424 366.423 125.844C366.619 126.264 366.894 126.595 367.249 126.838C367.613 127.071 368.033 127.188 368.509 127.188ZM374.236 128V119.852C374.236 119.199 374.423 118.69 374.796 118.326C375.179 117.962 375.758 117.78 376.532 117.78C376.719 117.78 376.864 117.789 376.966 117.808C377.078 117.827 377.172 117.85 377.246 117.878V118.76C377.181 118.741 377.088 118.723 376.966 118.704C376.854 118.685 376.733 118.676 376.602 118.676C376.173 118.676 375.856 118.783 375.65 118.998C375.454 119.213 375.356 119.516 375.356 119.908V128H374.236ZM372.766 121.812V120.86H377.092V121.812H372.766ZM316.844 150V139.92H317.992V150H316.844ZM317.432 150V148.992H323.592V150H317.432ZM317.432 145.254V144.246H323.088V145.254H317.432ZM317.432 140.928V139.92H323.48V140.928H317.432ZM330.135 150L327.769 146.682L324.941 142.86H326.243L328.427 145.926L331.437 150H330.135ZM327.839 145.982L330.079 142.86H331.339L328.427 146.738L327.839 145.982ZM328.315 146.752L325.893 150H324.619L327.769 145.954L328.315 146.752ZM336.53 150.126C335.858 150.126 335.293 149.963 334.836 149.636C334.379 149.309 334.066 148.847 333.898 148.25L334.122 148.222V152.87H333.002V142.86H334.052V144.526L333.898 144.484C334.075 143.933 334.411 143.504 334.906 143.196C335.401 142.879 335.975 142.72 336.628 142.72C337.263 142.72 337.813 142.874 338.28 143.182C338.756 143.49 339.125 143.919 339.386 144.47C339.647 145.021 339.778 145.665 339.778 146.402C339.778 147.149 339.643 147.802 339.372 148.362C339.101 148.922 338.723 149.356 338.238 149.664C337.753 149.972 337.183 150.126 336.53 150.126ZM336.362 149.146C337.071 149.146 337.627 148.903 338.028 148.418C338.429 147.923 338.63 147.251 338.63 146.402C338.63 145.562 338.429 144.904 338.028 144.428C337.627 143.943 337.071 143.7 336.362 143.7C335.653 143.7 335.093 143.947 334.682 144.442C334.271 144.927 334.066 145.595 334.066 146.444C334.066 147.275 334.271 147.933 334.682 148.418C335.093 148.903 335.653 149.146 336.362 149.146ZM344.418 150.14C343.737 150.14 343.135 149.981 342.612 149.664C342.089 149.337 341.679 148.894 341.38 148.334C341.081 147.774 340.932 147.13 340.932 146.402C340.932 145.674 341.077 145.035 341.366 144.484C341.665 143.924 342.08 143.49 342.612 143.182C343.144 142.874 343.755 142.72 344.446 142.72C345.109 142.72 345.683 142.865 346.168 143.154C346.663 143.443 347.041 143.849 347.302 144.372C347.573 144.895 347.708 145.511 347.708 146.22C347.708 146.313 347.703 146.402 347.694 146.486C347.694 146.57 347.685 146.663 347.666 146.766H341.772V145.828H346.98L346.616 146.346C346.616 145.487 346.425 144.829 346.042 144.372C345.669 143.905 345.137 143.672 344.446 143.672C343.737 143.672 343.163 143.919 342.724 144.414C342.295 144.899 342.08 145.557 342.08 146.388C342.08 147.237 342.295 147.919 342.724 148.432C343.163 148.936 343.746 149.188 344.474 149.188C344.931 149.188 345.333 149.09 345.678 148.894C346.023 148.689 346.275 148.399 346.434 148.026H347.498C347.265 148.679 346.873 149.197 346.322 149.58C345.781 149.953 345.146 150.14 344.418 150.14ZM349.394 150V142.86H350.444V144.68H350.514V150H349.394ZM350.514 146.276L350.332 144.582C350.5 143.975 350.799 143.513 351.228 143.196C351.658 142.879 352.152 142.72 352.712 142.72C352.946 142.72 353.104 142.739 353.188 142.776V143.854C353.142 143.835 353.076 143.826 352.992 143.826C352.908 143.817 352.806 143.812 352.684 143.812C351.975 143.812 351.434 144.027 351.06 144.456C350.696 144.876 350.514 145.483 350.514 146.276ZM354.521 150V142.86H355.641V150H354.521ZM354.437 141.236V139.92H355.725V141.236H354.437ZM360.783 150.14C360.102 150.14 359.5 149.981 358.977 149.664C358.455 149.337 358.044 148.894 357.745 148.334C357.447 147.774 357.297 147.13 357.297 146.402C357.297 145.674 357.442 145.035 357.731 144.484C358.03 143.924 358.445 143.49 358.977 143.182C359.509 142.874 360.121 142.72 360.811 142.72C361.474 142.72 362.048 142.865 362.533 143.154C363.028 143.443 363.406 143.849 363.667 144.372C363.938 144.895 364.073 145.511 364.073 146.22C364.073 146.313 364.069 146.402 364.059 146.486C364.059 146.57 364.05 146.663 364.031 146.766H358.137V145.828H363.345L362.981 146.346C362.981 145.487 362.79 144.829 362.407 144.372C362.034 143.905 361.502 143.672 360.811 143.672C360.102 143.672 359.528 143.919 359.089 144.414C358.66 144.899 358.445 145.557 358.445 146.388C358.445 147.237 358.66 147.919 359.089 148.432C359.528 148.936 360.111 149.188 360.839 149.188C361.297 149.188 361.698 149.09 362.043 148.894C362.389 148.689 362.641 148.399 362.799 148.026H363.863C363.63 148.679 363.238 149.197 362.687 149.58C362.146 149.953 361.511 150.14 360.783 150.14ZM365.76 150V142.86H366.81V144.54H366.88V150H365.76ZM370.87 150V145.324C370.87 144.783 370.734 144.377 370.464 144.106C370.193 143.835 369.792 143.7 369.26 143.7C368.793 143.7 368.378 143.803 368.014 144.008C367.659 144.213 367.379 144.498 367.174 144.862C366.978 145.226 366.88 145.651 366.88 146.136L366.698 144.442C366.94 143.91 367.309 143.49 367.804 143.182C368.308 142.874 368.877 142.72 369.512 142.72C370.258 142.72 370.856 142.935 371.304 143.364C371.761 143.784 371.99 144.339 371.99 145.03V150H370.87ZM376.969 150.14C376.315 150.14 375.732 149.981 375.219 149.664C374.715 149.337 374.313 148.894 374.015 148.334C373.725 147.765 373.581 147.121 373.581 146.402C373.581 145.683 373.725 145.049 374.015 144.498C374.313 143.947 374.715 143.513 375.219 143.196C375.732 142.879 376.311 142.72 376.955 142.72C377.487 142.72 377.963 142.823 378.383 143.028C378.812 143.233 379.162 143.527 379.433 143.91C379.713 144.283 379.89 144.722 379.965 145.226H378.929C378.835 144.769 378.621 144.395 378.285 144.106C377.949 143.817 377.515 143.672 376.983 143.672C376.525 143.672 376.129 143.784 375.793 144.008C375.457 144.232 375.195 144.549 375.009 144.96C374.822 145.371 374.729 145.851 374.729 146.402C374.729 146.953 374.822 147.438 375.009 147.858C375.195 148.278 375.457 148.605 375.793 148.838C376.138 149.071 376.539 149.188 376.997 149.188C377.51 149.188 377.939 149.048 378.285 148.768C378.63 148.479 378.849 148.105 378.943 147.648H379.979C379.895 148.143 379.708 148.581 379.419 148.964C379.139 149.337 378.789 149.627 378.369 149.832C377.949 150.037 377.482 150.14 376.969 150.14ZM384.504 150.14C383.823 150.14 383.221 149.981 382.698 149.664C382.175 149.337 381.765 148.894 381.466 148.334C381.167 147.774 381.018 147.13 381.018 146.402C381.018 145.674 381.163 145.035 381.452 144.484C381.751 143.924 382.166 143.49 382.698 143.182C383.23 142.874 383.841 142.72 384.532 142.72C385.195 142.72 385.769 142.865 386.254 143.154C386.749 143.443 387.127 143.849 387.388 144.372C387.659 144.895 387.794 145.511 387.794 146.22C387.794 146.313 387.789 146.402 387.78 146.486C387.78 146.57 387.771 146.663 387.752 146.766H381.858V145.828H387.066L386.702 146.346C386.702 145.487 386.511 144.829 386.128 144.372C385.755 143.905 385.223 143.672 384.532 143.672C383.823 143.672 383.249 143.919 382.81 144.414C382.381 144.899 382.166 145.557 382.166 146.388C382.166 147.237 382.381 147.919 382.81 148.432C383.249 148.936 383.832 149.188 384.56 149.188C385.017 149.188 385.419 149.09 385.764 148.894C386.109 148.689 386.361 148.399 386.52 148.026H387.584C387.351 148.679 386.959 149.197 386.408 149.58C385.867 149.953 385.232 150.14 384.504 150.14Z" fill="#2B2A2E"/>
<mask id="path-12-outside-3_12167_2380" maskUnits="userSpaceOnUse" x="0" y="83" width="177" height="26" fill="black">
<rect fill="white" y="83" width="177" height="26"/>
<path d="M0 84H176.114V108.27H0V84Z"/>
</mask>
<path d="M0 85H176.114V83H0V85Z" fill="#D2D2D2" mask="url(#path-12-outside-3_12167_2380)"/>
<path d="M5.79383 100.126C4.61783 100.126 3.67983 99.8367 2.97983 99.258C2.28916 98.6793 1.88316 97.8533 1.76183 96.78H2.88183C2.98449 97.5547 3.27849 98.138 3.76383 98.53C4.24916 98.922 4.92116 99.118 5.77983 99.118C6.50783 99.118 7.05383 98.9827 7.41783 98.712C7.79116 98.432 7.97783 98.026 7.97783 97.494C7.97783 97.0367 7.85183 96.6727 7.59983 96.402C7.34783 96.1313 6.95583 95.9073 6.42383 95.73L4.72983 95.142C3.87116 94.8433 3.23649 94.484 2.82583 94.064C2.41516 93.6347 2.20983 93.0933 2.20983 92.44C2.20983 91.8987 2.34516 91.432 2.61583 91.04C2.88649 90.6387 3.26916 90.326 3.76383 90.102C4.25849 89.878 4.83249 89.766 5.48583 89.766C6.49383 89.766 7.30116 90.032 7.90783 90.564C8.51449 91.0867 8.8645 91.8333 8.95783 92.804H7.83783C7.7165 92.104 7.4645 91.5907 7.08183 91.264C6.7085 90.9373 6.16716 90.774 5.45783 90.774C4.78583 90.774 4.26316 90.9093 3.88983 91.18C3.51649 91.4507 3.32983 91.8333 3.32983 92.328C3.32983 92.748 3.46049 93.084 3.72183 93.336C3.98316 93.588 4.38916 93.8073 4.93983 93.994L6.74583 94.624C7.52983 94.8947 8.11783 95.2633 8.50983 95.73C8.90183 96.1873 9.09783 96.7707 9.09783 97.48C9.09783 98.32 8.8085 98.9733 8.22983 99.44C7.6605 99.8973 6.8485 100.126 5.79383 100.126ZM14.3394 100.126C13.6674 100.126 13.1027 99.9627 12.6454 99.636C12.1881 99.3093 11.8754 98.8473 11.7074 98.25L11.9314 98.222V102.87H10.8114V92.86H11.8614V94.526L11.7074 94.484C11.8847 93.9333 12.2207 93.504 12.7154 93.196C13.2101 92.8787 13.7841 92.72 14.4374 92.72C15.0721 92.72 15.6227 92.874 16.0894 93.182C16.5654 93.49 16.9341 93.9193 17.1954 94.47C17.4567 95.0207 17.5874 95.6647 17.5874 96.402C17.5874 97.1487 17.4521 97.802 17.1814 98.362C16.9107 98.922 16.5327 99.356 16.0474 99.664C15.5621 99.972 14.9927 100.126 14.3394 100.126ZM14.1714 99.146C14.8807 99.146 15.4361 98.9033 15.8374 98.418C16.2387 97.9233 16.4394 97.2513 16.4394 96.402C16.4394 95.562 16.2387 94.904 15.8374 94.428C15.4361 93.9427 14.8807 93.7 14.1714 93.7C13.4621 93.7 12.9021 93.9473 12.4914 94.442C12.0807 94.9273 11.8754 95.5947 11.8754 96.444C11.8754 97.2747 12.0807 97.9327 12.4914 98.418C12.9021 98.9033 13.4621 99.146 14.1714 99.146ZM22.2276 100.14C21.5463 100.14 20.9443 99.9813 20.4216 99.664C19.899 99.3373 19.4883 98.894 19.1896 98.334C18.891 97.774 18.7416 97.13 18.7416 96.402C18.7416 95.674 18.8863 95.0347 19.1756 94.484C19.4743 93.924 19.8896 93.49 20.4216 93.182C20.9536 92.874 21.565 92.72 22.2556 92.72C22.9183 92.72 23.4923 92.8647 23.9776 93.154C24.4723 93.4433 24.8503 93.8493 25.1116 94.372C25.3823 94.8947 25.5176 95.5107 25.5176 96.22C25.5176 96.3133 25.513 96.402 25.5036 96.486C25.5036 96.57 25.4943 96.6633 25.4756 96.766H19.5816V95.828H24.7896L24.4256 96.346C24.4256 95.4873 24.2343 94.8293 23.8516 94.372C23.4783 93.9053 22.9463 93.672 22.2556 93.672C21.5463 93.672 20.9723 93.9193 20.5336 94.414C20.1043 94.8993 19.8896 95.5573 19.8896 96.388C19.8896 97.2373 20.1043 97.9187 20.5336 98.432C20.9723 98.936 21.5556 99.188 22.2836 99.188C22.741 99.188 23.1423 99.09 23.4876 98.894C23.833 98.6887 24.085 98.3993 24.2436 98.026H25.3076C25.0743 98.6793 24.6823 99.1973 24.1316 99.58C23.5903 99.9533 22.9556 100.14 22.2276 100.14ZM30.032 100.14C29.3787 100.14 28.7953 99.9813 28.282 99.664C27.778 99.3373 27.3767 98.894 27.078 98.334C26.7887 97.7647 26.644 97.1207 26.644 96.402C26.644 95.6833 26.7887 95.0487 27.078 94.498C27.3767 93.9473 27.778 93.5133 28.282 93.196C28.7953 92.8787 29.374 92.72 30.018 92.72C30.55 92.72 31.026 92.8227 31.446 93.028C31.8753 93.2333 32.2253 93.5273 32.496 93.91C32.776 94.2833 32.9533 94.722 33.028 95.226H31.992C31.8987 94.7687 31.684 94.3953 31.348 94.106C31.012 93.8167 30.578 93.672 30.046 93.672C29.5887 93.672 29.192 93.784 28.856 94.008C28.52 94.232 28.2587 94.5493 28.072 94.96C27.8853 95.3707 27.792 95.8513 27.792 96.402C27.792 96.9527 27.8853 97.438 28.072 97.858C28.2587 98.278 28.52 98.6047 28.856 98.838C29.2013 99.0713 29.6027 99.188 30.06 99.188C30.5733 99.188 31.0027 99.048 31.348 98.768C31.6933 98.4787 31.9127 98.1053 32.006 97.648H33.042C32.958 98.1427 32.7713 98.5813 32.482 98.964C32.202 99.3373 31.852 99.6267 31.432 99.832C31.012 100.037 30.5453 100.14 30.032 100.14ZM34.6141 100V92.86H35.7341V100H34.6141ZM34.5301 91.236V89.92H35.8181V91.236H34.5301ZM42.3184 100C42.2811 99.8413 42.2531 99.6593 42.2344 99.454C42.2251 99.2487 42.2204 98.9873 42.2204 98.67H42.1504V95.254C42.1504 94.7127 42.0244 94.316 41.7724 94.064C41.5297 93.8027 41.1331 93.672 40.5824 93.672C40.0411 93.672 39.6071 93.784 39.2804 94.008C38.9631 94.2227 38.7857 94.5307 38.7484 94.932H37.6704C37.7171 94.2413 38.0064 93.7 38.5384 93.308C39.0704 92.916 39.7657 92.72 40.6244 92.72C41.5111 92.72 42.1691 92.93 42.5984 93.35C43.0277 93.77 43.2424 94.4 43.2424 95.24V98.67C43.2424 98.8753 43.2564 99.09 43.2844 99.314C43.3124 99.5287 43.3497 99.7573 43.3964 100H42.3184ZM39.8684 100.14C39.1311 100.14 38.5431 99.9627 38.1044 99.608C37.6751 99.244 37.4604 98.7493 37.4604 98.124C37.4604 97.4987 37.6751 97.0133 38.1044 96.668C38.5337 96.3227 39.1591 96.08 39.9804 95.94L42.4724 95.52V96.444L40.1484 96.808C39.6257 96.892 39.2291 97.032 38.9584 97.228C38.6877 97.424 38.5524 97.7087 38.5524 98.082C38.5524 98.446 38.6737 98.7213 38.9164 98.908C39.1684 99.0947 39.5371 99.188 40.0224 99.188C40.6477 99.188 41.1564 99.048 41.5484 98.768C41.9497 98.4787 42.1504 98.1053 42.1504 97.648L42.3324 98.642C42.1831 99.118 41.8891 99.4867 41.4504 99.748C41.0211 100.009 40.4937 100.14 39.8684 100.14ZM45.4013 100V89.92H46.5213V100H45.4013ZM48.7645 100V92.86H49.8845V100H48.7645ZM48.6805 91.236V89.92H49.9685V91.236H48.6805ZM51.5724 100V99.188L55.9124 93.294L56.3324 93.812H51.7124V92.86H56.9764V93.672L52.6364 99.566L52.2164 99.048H57.1164V100H51.5724ZM61.4796 100.14C60.7983 100.14 60.1963 99.9813 59.6736 99.664C59.1509 99.3373 58.7403 98.894 58.4416 98.334C58.1429 97.774 57.9936 97.13 57.9936 96.402C57.9936 95.674 58.1383 95.0347 58.4276 94.484C58.7263 93.924 59.1416 93.49 59.6736 93.182C60.2056 92.874 60.8169 92.72 61.5076 92.72C62.1703 92.72 62.7443 92.8647 63.2296 93.154C63.7243 93.4433 64.1023 93.8493 64.3636 94.372C64.6343 94.8947 64.7696 95.5107 64.7696 96.22C64.7696 96.3133 64.7649 96.402 64.7556 96.486C64.7556 96.57 64.7463 96.6633 64.7276 96.766H58.8336V95.828H64.0416L63.6776 96.346C63.6776 95.4873 63.4863 94.8293 63.1036 94.372C62.7303 93.9053 62.1983 93.672 61.5076 93.672C60.7983 93.672 60.2243 93.9193 59.7856 94.414C59.3563 94.8993 59.1416 95.5573 59.1416 96.388C59.1416 97.2373 59.3563 97.9187 59.7856 98.432C60.2243 98.936 60.8076 99.188 61.5356 99.188C61.9929 99.188 62.3943 99.09 62.7396 98.894C63.0849 98.6887 63.3369 98.3993 63.4956 98.026H64.5596C64.3263 98.6793 63.9343 99.1973 63.3836 99.58C62.8423 99.9533 62.2076 100.14 61.4796 100.14ZM71.6499 100V98.334L71.7899 98.376C71.6126 98.9173 71.2859 99.3467 70.8099 99.664C70.3433 99.9813 69.7833 100.14 69.1299 100.14C68.4859 100.14 67.9213 99.986 67.4359 99.678C66.9599 99.37 66.5866 98.9407 66.3159 98.39C66.0546 97.8393 65.9239 97.1953 65.9239 96.458C65.9239 95.7113 66.0593 95.058 66.3299 94.498C66.6006 93.938 66.9786 93.504 67.4639 93.196C67.9493 92.888 68.5186 92.734 69.1719 92.734C69.8439 92.734 70.4086 92.8973 70.8659 93.224C71.3233 93.5507 71.6359 94.0127 71.8039 94.61L71.5799 94.638V89.92H72.6999V100H71.6499ZM69.3399 99.16C70.0586 99.16 70.6186 98.9173 71.0199 98.432C71.4306 97.9373 71.6359 97.2653 71.6359 96.416C71.6359 95.5853 71.4306 94.9273 71.0199 94.442C70.6093 93.9567 70.0493 93.714 69.3399 93.714C68.6306 93.714 68.0753 93.9567 67.6739 94.442C67.2726 94.9273 67.0719 95.5993 67.0719 96.458C67.0719 97.298 67.2726 97.9607 67.6739 98.446C68.0753 98.922 68.6306 99.16 69.3399 99.16ZM16.3822 122.14C15.6915 122.14 15.0522 122.014 14.4642 121.762C13.8855 121.501 13.3815 121.141 12.9522 120.684C12.5229 120.217 12.1915 119.671 11.9582 119.046C11.7249 118.411 11.6082 117.716 11.6082 116.96C11.6082 116.204 11.7249 115.513 11.9582 114.888C12.1915 114.253 12.5182 113.707 12.9382 113.25C13.3675 112.783 13.8715 112.424 14.4502 112.172C15.0382 111.911 15.6775 111.78 16.3682 111.78C17.1242 111.78 17.8009 111.934 18.3982 112.242C19.0049 112.55 19.4995 112.984 19.8822 113.544C20.2742 114.104 20.5169 114.757 20.6102 115.504H19.4622C19.3502 114.673 19.0189 114.02 18.4682 113.544C17.9269 113.059 17.2315 112.816 16.3822 112.816C15.6635 112.816 15.0335 112.993 14.4922 113.348C13.9509 113.693 13.5309 114.179 13.2322 114.804C12.9335 115.42 12.7842 116.139 12.7842 116.96C12.7842 117.781 12.9335 118.505 13.2322 119.13C13.5309 119.746 13.9509 120.231 14.4922 120.586C15.0335 120.931 15.6589 121.104 16.3682 121.104C17.2362 121.104 17.9455 120.861 18.4962 120.376C19.0562 119.891 19.3875 119.237 19.4902 118.416H20.6382C20.5449 119.163 20.3022 119.816 19.9102 120.376C19.5275 120.936 19.0329 121.37 18.4262 121.678C17.8289 121.986 17.1475 122.14 16.3822 122.14ZM25.3321 122.14C24.6321 122.14 24.0161 121.977 23.4841 121.65C22.9521 121.323 22.5368 120.88 22.2381 120.32C21.9488 119.751 21.8041 119.111 21.8041 118.402C21.8041 117.683 21.9535 117.049 22.2521 116.498C22.5508 115.947 22.9615 115.513 23.4841 115.196C24.0161 114.879 24.6321 114.72 25.3321 114.72C26.0415 114.72 26.6575 114.879 27.1801 115.196C27.7121 115.513 28.1228 115.947 28.4121 116.498C28.7108 117.049 28.8601 117.683 28.8601 118.402C28.8601 119.111 28.7108 119.751 28.4121 120.32C28.1228 120.88 27.7121 121.323 27.1801 121.65C26.6575 121.977 26.0415 122.14 25.3321 122.14ZM25.3321 121.188C25.8175 121.188 26.2375 121.071 26.5921 120.838C26.9468 120.595 27.2221 120.264 27.4181 119.844C27.6141 119.424 27.7121 118.939 27.7121 118.388C27.7121 117.567 27.4928 116.909 27.0541 116.414C26.6248 115.919 26.0508 115.672 25.3321 115.672C24.6228 115.672 24.0488 115.919 23.6101 116.414C23.1715 116.909 22.9521 117.567 22.9521 118.388C22.9521 118.939 23.0501 119.424 23.2461 119.844C23.4421 120.264 23.7175 120.595 24.0721 120.838C24.4361 121.071 24.8561 121.188 25.3321 121.188ZM32.8639 122.14C32.3973 122.14 31.9819 122.047 31.6179 121.86C31.2539 121.664 30.9693 121.393 30.7639 121.048C30.5586 120.693 30.4559 120.287 30.4559 119.83V114.86H31.5759V119.536C31.5759 120.077 31.7066 120.483 31.9679 120.754C32.2386 121.025 32.6213 121.16 33.1159 121.16C33.5639 121.16 33.9606 121.057 34.3059 120.852C34.6513 120.647 34.9219 120.362 35.1179 119.998C35.3233 119.625 35.4259 119.2 35.4259 118.724L35.6079 120.418C35.3746 120.95 35.0106 121.37 34.5159 121.678C34.0213 121.986 33.4706 122.14 32.8639 122.14ZM35.4959 122V120.32H35.4259V114.86H36.5459V122H35.4959ZM38.7841 122V114.86H39.8341V116.68H39.9041V122H38.7841ZM39.9041 118.276L39.7221 116.582C39.8901 115.975 40.1887 115.513 40.6181 115.196C41.0474 114.879 41.5421 114.72 42.1021 114.72C42.3354 114.72 42.4941 114.739 42.5781 114.776V115.854C42.5314 115.835 42.4661 115.826 42.3821 115.826C42.2981 115.817 42.1954 115.812 42.0741 115.812C41.3647 115.812 40.8234 116.027 40.4501 116.456C40.0861 116.876 39.9041 117.483 39.9041 118.276ZM46.251 122.14C45.3737 122.14 44.6737 121.939 44.151 121.538C43.6283 121.127 43.3297 120.549 43.255 119.802H44.333C44.3983 120.259 44.599 120.609 44.935 120.852C45.271 121.095 45.719 121.216 46.279 121.216C46.7737 121.216 47.161 121.123 47.441 120.936C47.721 120.749 47.861 120.483 47.861 120.138C47.861 119.895 47.7817 119.685 47.623 119.508C47.4643 119.321 47.147 119.167 46.671 119.046L45.523 118.752C44.8697 118.584 44.3797 118.327 44.053 117.982C43.7263 117.627 43.563 117.207 43.563 116.722C43.563 116.106 43.7917 115.621 44.249 115.266C44.7063 114.902 45.327 114.72 46.111 114.72C46.8857 114.72 47.5157 114.907 48.001 115.28C48.4863 115.653 48.7617 116.171 48.827 116.834H47.749C47.6837 116.451 47.5063 116.157 47.217 115.952C46.9277 115.747 46.545 115.644 46.069 115.644C45.6117 115.644 45.257 115.733 45.005 115.91C44.753 116.078 44.627 116.321 44.627 116.638C44.627 116.881 44.7157 117.091 44.893 117.268C45.0797 117.445 45.3877 117.595 45.817 117.716L46.937 118.024C47.5997 118.201 48.099 118.472 48.435 118.836C48.771 119.2 48.939 119.639 48.939 120.152C48.939 120.777 48.701 121.267 48.225 121.622C47.749 121.967 47.091 122.14 46.251 122.14ZM53.6183 122.14C52.9369 122.14 52.3349 121.981 51.8123 121.664C51.2896 121.337 50.8789 120.894 50.5803 120.334C50.2816 119.774 50.1323 119.13 50.1323 118.402C50.1323 117.674 50.2769 117.035 50.5663 116.484C50.8649 115.924 51.2803 115.49 51.8123 115.182C52.3443 114.874 52.9556 114.72 53.6463 114.72C54.3089 114.72 54.8829 114.865 55.3683 115.154C55.8629 115.443 56.2409 115.849 56.5023 116.372C56.7729 116.895 56.9083 117.511 56.9083 118.22C56.9083 118.313 56.9036 118.402 56.8943 118.486C56.8943 118.57 56.8849 118.663 56.8663 118.766H50.9723V117.828H56.1803L55.8163 118.346C55.8163 117.487 55.6249 116.829 55.2423 116.372C54.8689 115.905 54.3369 115.672 53.6463 115.672C52.9369 115.672 52.3629 115.919 51.9243 116.414C51.4949 116.899 51.2803 117.557 51.2803 118.388C51.2803 119.237 51.4949 119.919 51.9243 120.432C52.3629 120.936 52.9463 121.188 53.6743 121.188C54.1316 121.188 54.5329 121.09 54.8783 120.894C55.2236 120.689 55.4756 120.399 55.6343 120.026H56.6983C56.4649 120.679 56.0729 121.197 55.5223 121.58C54.9809 121.953 54.3463 122.14 53.6183 122.14ZM61.0166 122.14C60.1393 122.14 59.4393 121.939 58.9166 121.538C58.3939 121.127 58.0953 120.549 58.0206 119.802H59.0986C59.1639 120.259 59.3646 120.609 59.7006 120.852C60.0366 121.095 60.4846 121.216 61.0446 121.216C61.5393 121.216 61.9266 121.123 62.2066 120.936C62.4866 120.749 62.6266 120.483 62.6266 120.138C62.6266 119.895 62.5473 119.685 62.3886 119.508C62.2299 119.321 61.9126 119.167 61.4366 119.046L60.2886 118.752C59.6353 118.584 59.1453 118.327 58.8186 117.982C58.4919 117.627 58.3286 117.207 58.3286 116.722C58.3286 116.106 58.5573 115.621 59.0146 115.266C59.4719 114.902 60.0926 114.72 60.8766 114.72C61.6513 114.72 62.2813 114.907 62.7666 115.28C63.2519 115.653 63.5273 116.171 63.5926 116.834H62.5146C62.4493 116.451 62.2719 116.157 61.9826 115.952C61.6933 115.747 61.3106 115.644 60.8346 115.644C60.3773 115.644 60.0226 115.733 59.7706 115.91C59.5186 116.078 59.3926 116.321 59.3926 116.638C59.3926 116.881 59.4813 117.091 59.6586 117.268C59.8453 117.445 60.1533 117.595 60.5826 117.716L61.7026 118.024C62.3653 118.201 62.8646 118.472 63.2006 118.836C63.5366 119.2 63.7046 119.639 63.7046 120.152C63.7046 120.777 63.4666 121.267 62.9906 121.622C62.5146 121.967 61.8566 122.14 61.0166 122.14Z" fill="#2B2A2E"/>
<path d="M132.521 105V92L133.661 93.18H129.561V91H135.121V105H132.521ZM143.739 105.2C142.632 105.2 141.632 104.92 140.739 104.36C139.859 103.8 139.165 102.987 138.659 101.92C138.152 100.84 137.899 99.5333 137.899 98C137.899 96.4667 138.152 95.1667 138.659 94.1C139.165 93.02 139.859 92.2 140.739 91.64C141.632 91.08 142.632 90.8 143.739 90.8C144.859 90.8 145.859 91.08 146.739 91.64C147.619 92.2 148.312 93.02 148.819 94.1C149.339 95.1667 149.599 96.4667 149.599 98C149.599 99.5333 149.339 100.84 148.819 101.92C148.312 102.987 147.619 103.8 146.739 104.36C145.859 104.92 144.859 105.2 143.739 105.2ZM143.739 102.94C144.392 102.94 144.959 102.767 145.439 102.42C145.919 102.06 146.292 101.513 146.559 100.78C146.839 100.047 146.979 99.12 146.979 98C146.979 96.8667 146.839 95.94 146.559 95.22C146.292 94.4867 145.919 93.9467 145.439 93.6C144.959 93.24 144.392 93.06 143.739 93.06C143.112 93.06 142.552 93.24 142.059 93.6C141.579 93.9467 141.199 94.4867 140.919 95.22C140.652 95.94 140.519 96.8667 140.519 98C140.519 99.12 140.652 100.047 140.919 100.78C141.199 101.513 141.579 102.06 142.059 102.42C142.552 102.767 143.112 102.94 143.739 102.94ZM157.196 105.2C156.089 105.2 155.089 104.92 154.196 104.36C153.316 103.8 152.622 102.987 152.116 101.92C151.609 100.84 151.356 99.5333 151.356 98C151.356 96.4667 151.609 95.1667 152.116 94.1C152.622 93.02 153.316 92.2 154.196 91.64C155.089 91.08 156.089 90.8 157.196 90.8C158.316 90.8 159.316 91.08 160.196 91.64C161.076 92.2 161.769 93.02 162.276 94.1C162.796 95.1667 163.056 96.4667 163.056 98C163.056 99.5333 162.796 100.84 162.276 101.92C161.769 102.987 161.076 103.8 160.196 104.36C159.316 104.92 158.316 105.2 157.196 105.2ZM157.196 102.94C157.849 102.94 158.416 102.767 158.896 102.42C159.376 102.06 159.749 101.513 160.016 100.78C160.296 100.047 160.436 99.12 160.436 98C160.436 96.8667 160.296 95.94 160.016 95.22C159.749 94.4867 159.376 93.9467 158.896 93.6C158.416 93.24 157.849 93.06 157.196 93.06C156.569 93.06 156.009 93.24 155.516 93.6C155.036 93.9467 154.656 94.4867 154.376 95.22C154.109 95.94 153.976 96.8667 153.976 98C153.976 99.12 154.109 100.047 154.376 100.78C154.656 101.513 155.036 102.06 155.516 102.42C156.009 102.767 156.569 102.94 157.196 102.94ZM168.87 102.5V93.5H171.01V102.5H168.87ZM165.33 99V97H174.55V99H165.33Z" fill="#2B2A2E"/>
</svg>
