<svg width="97" height="40" viewBox="0 0 97 40" fill="none" xmlns="http://www.w3.org/2000/svg">
<rect width="97" height="40" rx="20" fill="#F8F5F0"/>
<g clip-path="url(#clip0_12441_971)">
<path d="M35.5681 31.9999L35.4749 28.5247L32.1986 26.8368L31.9456 26.8935C31.4794 27.5034 31.0799 28.1985 30.6138 28.8084C29.8813 29.7587 29.5616 30.1559 28.3364 29.9006C26.8447 29.5885 25.3664 29.0779 23.9014 28.6807L24.5407 25.7871L27.6971 26.4254L31.1865 19.8722C31.2397 19.6878 30.9201 19.7729 30.8135 19.8297C30.3341 20.3261 29.6149 21.6311 28.949 21.7446C27.8702 21.929 26.9646 21.0495 27.1244 19.8864C27.2842 18.7233 29.1221 17.3758 29.5883 16.624L32.8379 15.9431C32.3451 14.2552 33.5171 12.2268 35.1952 12.0566C38.1518 11.7446 39.6701 15.2481 37.5791 17.4325V17.5743L38.5913 18.7658C39.4836 18.8793 40.8687 18.4821 41.5213 19.319C42.1739 20.1559 41.8276 21.7304 40.7622 21.8864C39.6967 22.0424 38.3383 21.7871 37.2462 21.8864L36.0875 20.8935L35.0354 23.319L37.9521 25.6736C38.0719 25.8155 38.4182 26.3545 38.4182 26.5105V31.9999H35.5548H35.5681ZM34.1963 13.546C32.2785 15.5885 35.2218 18.7233 37.1396 16.6382C39.0042 14.6098 36.1008 11.5176 34.1963 13.546ZM36.4604 31.0779H37.5525V26.6524C37.5525 26.5673 37.2728 26.2694 37.1796 26.1985L33.89 23.6027L35.8212 19.39L37.5791 20.9502H40.6157C41.0951 20.78 41.1351 20.0566 40.7222 19.7871C40.3094 19.5176 38.7645 19.7871 38.1785 19.6595L36.8067 17.9999C36.6868 17.9431 36.0875 18.1701 35.8478 18.1843C34.809 18.2552 33.7435 17.7446 33.2108 16.78L30.0411 17.4467C29.6149 17.9431 29.1488 18.4396 28.7359 18.9644C28.3231 19.4892 28.0966 19.7162 28.0167 19.9006C27.817 20.4112 28.2165 20.9077 28.7226 20.7942C29.2287 20.6807 30.1077 19.1346 30.4673 18.8226L32.5449 18.9219L28.1233 27.3758L27.8702 27.4467L25.2066 26.8084L24.9003 27.9715L28.7492 29.0637C29.1221 29.1488 29.3885 28.8935 29.6282 28.624C30.3607 27.7587 31.0133 26.5531 31.6925 25.6169L36.2607 27.8864L36.3406 30.8793L36.4338 31.0495L36.4604 31.0779Z" fill="#1A3A5A"/>
<path d="M27.5107 7.99992L27.7104 8.8368C26.019 9.31907 24.3942 10.0425 22.8626 10.9219C20.1058 12.5247 15.1514 16.2978 16.5365 20.2269C17.5088 22.9928 20.5986 24.5247 23.1956 24.851L23.129 25.6453L22.9825 25.7588C20.7584 25.39 18.5209 24.468 16.9893 22.6524C12.075 16.8084 20.0259 11.1063 24.5407 9.04957C24.9003 8.87935 27.3375 7.87226 27.5107 7.99992Z" fill="#1A3A5A"/>
<path d="M21.8637 27.3332L21.6639 28.17C21.4908 28.2835 20.1057 27.6736 19.826 27.5601C17.7751 26.6239 15.8439 25.1204 14.6586 23.0778C12.6875 19.6878 13.3135 15.8438 15.9105 13.1062L16.4699 13.7729C14.9383 15.475 14.0726 17.6027 14.4322 19.9856C15.0182 23.8154 18.5741 26.3828 21.8504 27.3332H21.8637Z" fill="#1A3A5A"/>
<path d="M24.3942 21.8722C24.3543 22.0708 24.4874 22.7091 24.2877 22.78C22.8893 22.7516 21.371 22.5672 20.1457 21.8296C17.5088 20.2552 18.4011 17.3474 19.8794 15.2339L20.6119 15.7303C19.8927 16.78 19.0004 18.3545 19.4132 19.702C19.8261 21.0495 22.8893 21.858 24.4075 21.858L24.3942 21.8722Z" fill="#1A3A5A"/>
<path d="M49.2059 18.7944L48.8729 17.3476H47.0217L46.6887 18.7944H45.277L47.1016 12.6951H48.7664L50.5909 18.7944H49.1925H49.2059ZM48.2203 14.8653C48.1937 14.7518 48.1537 14.6241 48.1271 14.4965C48.1005 14.3688 48.0605 14.227 48.0339 14.0851C48.0072 13.9433 47.9806 13.8015 47.954 13.6454C47.914 13.8724 47.8741 14.0851 47.8208 14.2979C47.7675 14.5107 47.7276 14.6951 47.6876 14.8653L47.3147 16.2837H48.5932L48.2203 14.8653Z" fill="#1A3A5A"/>
<path d="M52.7618 18.8793C52.3489 18.8793 51.9894 18.7942 51.6964 18.624C51.4034 18.4538 51.1636 18.1985 51.0038 17.8439C50.844 17.4893 50.7641 17.0354 50.7641 16.4964C50.7641 15.9574 50.8573 15.4609 51.0304 15.1063C51.2036 14.7517 51.4566 14.4822 51.7763 14.312C52.0959 14.1417 52.4555 14.0566 52.8683 14.0566C53.2812 14.0566 53.3878 14.085 53.6142 14.1559C53.8406 14.2127 54.0403 14.2978 54.1868 14.3829L53.8139 15.3332C53.6541 15.2623 53.5076 15.2056 53.3744 15.1488C53.2413 15.1063 53.1081 15.0779 52.9483 15.0779C52.7884 15.0779 52.602 15.1347 52.4688 15.2339C52.3356 15.3332 52.2424 15.4893 52.1758 15.702C52.1092 15.9148 52.0693 16.1701 52.0693 16.4822C52.0693 16.7942 52.1092 17.0495 52.1758 17.2481C52.2424 17.4467 52.3489 17.6027 52.4821 17.702C52.6153 17.8013 52.7618 17.8439 52.9483 17.8439C53.1347 17.8439 53.3478 17.8155 53.5343 17.7304C53.7207 17.6595 53.8938 17.5602 54.0537 17.4325V18.5105C53.8805 18.6382 53.6941 18.7233 53.4943 18.78C53.2945 18.8368 53.0548 18.8652 52.7751 18.8652L52.7618 18.8793Z" fill="#1A3A5A"/>
<path d="M56.6507 17.8723C56.7839 17.8723 56.8904 17.8723 57.0103 17.8298C57.1168 17.8014 57.2367 17.773 57.3565 17.7305V18.6808C57.2234 18.7376 57.0635 18.7943 56.8904 18.8227C56.7173 18.8652 56.5042 18.8936 56.2645 18.8936C56.0247 18.8936 55.785 18.851 55.5852 18.7517C55.3855 18.6666 55.2256 18.5106 55.1191 18.2837C55.0126 18.0567 54.946 17.7446 54.946 17.3475V15.1063H54.4266V14.5673L55.0525 14.1418L55.3988 13.1631H56.2245V14.156H57.3166V15.1063H56.2245V17.3475C56.2245 17.5177 56.2645 17.6595 56.3444 17.7446C56.4243 17.8298 56.5308 17.8723 56.664 17.8723H56.6507Z" fill="#1A3A5A"/>
<path d="M58.6218 12.3262C58.8082 12.3262 58.968 12.3687 59.1012 12.4538C59.2344 12.5389 59.301 12.7092 59.301 12.9361C59.301 13.1631 59.2344 13.3333 59.1012 13.4184C58.968 13.5035 58.8082 13.5602 58.6218 13.5602C58.4353 13.5602 58.2622 13.5177 58.129 13.4184C57.9958 13.3333 57.9292 13.1631 57.9292 12.9361C57.9292 12.7092 57.9958 12.5389 58.129 12.4538C58.2622 12.3687 58.422 12.3262 58.6218 12.3262ZM59.2477 14.156V18.8084H57.9692V14.156H59.2477Z" fill="#1A3A5A"/>
<path d="M61.2055 18.7943L59.6339 14.1418H60.9658L61.6982 16.7943C61.7249 16.8936 61.7515 17.0071 61.7648 17.1206C61.7782 17.234 61.7915 17.3475 61.8048 17.4468C61.8048 17.5603 61.8181 17.6596 61.8181 17.7447H61.8447C61.8447 17.6454 61.8448 17.5461 61.8714 17.4326C61.8714 17.3192 61.898 17.2199 61.9113 17.1064C61.938 16.9929 61.9513 16.8936 61.9779 16.7943L62.7104 14.1418H64.0556L62.484 18.7943H61.1922H61.2055Z" fill="#1A3A5A"/>
<path d="M66.2397 14.0708C66.626 14.0708 66.9589 14.1559 67.2519 14.3119C67.5316 14.4821 67.758 14.7091 67.9045 15.0212C68.0643 15.3332 68.1309 15.7162 68.1309 16.1701V16.78H65.5339C65.5339 17.1346 65.6271 17.4183 65.8002 17.6169C65.9601 17.8155 66.1998 17.929 66.4928 17.929C66.7858 17.929 66.9989 17.9006 67.212 17.8439C67.425 17.7871 67.6515 17.6878 67.8779 17.5602V18.5389C67.6781 18.6524 67.465 18.7375 67.2386 18.7942C67.0122 18.8509 66.7192 18.8793 66.3729 18.8793C66.0266 18.8793 65.5871 18.7942 65.2675 18.624C64.9479 18.4538 64.6948 18.1843 64.5084 17.8439C64.3219 17.4892 64.2287 17.0495 64.2287 16.5105C64.2287 15.9715 64.3086 15.5176 64.4817 15.1488C64.6549 14.7942 64.8813 14.5247 65.1876 14.3403C65.4939 14.1559 65.8402 14.0708 66.2264 14.0708H66.2397ZM66.2664 14.9644C66.0799 14.9644 65.9201 15.0495 65.7869 15.2056C65.6537 15.3616 65.5871 15.6169 65.5605 15.9431H66.9589C66.9589 15.7587 66.9323 15.5885 66.879 15.4467C66.8257 15.3048 66.7458 15.1772 66.6526 15.0921C66.5594 15.007 66.4262 14.9644 66.2664 14.9644Z" fill="#1A3A5A"/>
<path d="M70.7146 18.7943V12.7234H72.0065V17.7305H74.124V18.7943H70.7146Z" fill="#1A3A5A"/>
<path d="M75.4159 12.3262C75.6024 12.3262 75.7622 12.3687 75.8954 12.4538C76.0285 12.5389 76.0951 12.7092 76.0951 12.9361C76.0951 13.1631 76.0285 13.3333 75.8954 13.4184C75.7622 13.5035 75.6024 13.5602 75.4159 13.5602C75.2294 13.5602 75.0563 13.5177 74.9231 13.4184C74.7899 13.3333 74.7234 13.1631 74.7234 12.9361C74.7234 12.7092 74.7899 12.5389 74.9231 12.4538C75.0563 12.3687 75.2161 12.3262 75.4159 12.3262ZM76.0552 14.156V18.8084H74.7766V14.156H76.0552Z" fill="#1A3A5A"/>
<path d="M79.3847 15.1064H78.4524V18.7943H77.1739V15.1064H76.5879V14.4965L77.1872 14.156V13.8156C77.1872 13.4184 77.2405 13.1064 77.347 12.8936C77.4536 12.6809 77.6134 12.5248 77.8265 12.4255C78.0396 12.3404 78.3059 12.2837 78.6122 12.2837C78.9186 12.2837 79.0251 12.2979 79.1982 12.3404C79.3714 12.383 79.5312 12.4255 79.691 12.4823L79.398 13.4043C79.3181 13.3759 79.2249 13.3475 79.1316 13.3192C79.0384 13.2908 78.9319 13.2766 78.8253 13.2766C78.7188 13.2766 78.5989 13.3333 78.5323 13.4326C78.4657 13.5461 78.4391 13.6738 78.4391 13.844V14.1277H79.3714V15.078L79.3847 15.1064Z" fill="#1A3A5A"/>
<path d="M81.6088 14.0708C81.995 14.0708 82.328 14.1559 82.621 14.3119C82.9007 14.4821 83.1271 14.7091 83.2736 15.0212C83.4334 15.3332 83.5 15.7162 83.5 16.1701V16.78H80.903C80.903 17.1346 80.9962 17.4183 81.1693 17.6169C81.3291 17.8155 81.5689 17.929 81.8619 17.929C82.1549 17.929 82.3679 17.9006 82.581 17.8439C82.7941 17.7871 83.0205 17.6878 83.2469 17.5602V18.5389C83.0472 18.6524 82.8341 18.7375 82.6077 18.7942C82.3813 18.8509 82.0883 18.8793 81.742 18.8793C81.3957 18.8793 80.9562 18.7942 80.6366 18.624C80.317 18.4538 80.0639 18.1843 79.8775 17.8439C79.691 17.4892 79.5978 17.0495 79.5978 16.5105C79.5978 15.9715 79.6777 15.5176 79.8508 15.1488C80.024 14.7942 80.2504 14.5247 80.5567 14.3403C80.863 14.1559 81.2093 14.0708 81.5955 14.0708H81.6088ZM81.6221 14.9644C81.4357 14.9644 81.2759 15.0495 81.1427 15.2056C81.0095 15.3616 80.9429 15.6169 80.9163 15.9431H82.3147C82.3147 15.7587 82.288 15.5885 82.2348 15.4467C82.1815 15.3048 82.1016 15.1772 82.0084 15.0921C81.9151 15.007 81.782 14.9644 81.6221 14.9644Z" fill="#1A3A5A"/>
<path d="M49.8185 21.9148C49.3923 21.9148 49.0194 21.9999 48.6865 22.1701C48.3535 22.3403 48.0605 22.5815 47.8341 22.8935C47.5944 23.2056 47.4212 23.6028 47.3014 24.0567C47.1815 24.5106 47.1149 25.0212 47.1149 25.5886C47.1149 26.1559 47.2215 26.9928 47.4079 27.546C47.6077 28.0992 47.914 28.5247 48.3136 28.8226C48.7131 29.1205 49.2192 29.2623 49.8185 29.2623C50.4178 29.2623 50.4977 29.234 50.8174 29.163C51.137 29.0921 51.4433 29.007 51.7629 28.9077V29.9006C51.4566 30.0283 51.1503 30.1276 50.8307 30.1843C50.511 30.241 50.1248 30.2694 49.6853 30.2694C48.8596 30.2694 48.1804 30.0708 47.6343 29.702C47.0883 29.3191 46.6754 28.7801 46.4091 28.0708C46.1427 27.3616 45.9962 26.5389 45.9962 25.5744C45.9962 24.6098 46.0761 24.2552 46.2492 23.6879C46.4224 23.1205 46.6621 22.624 46.9951 22.2127C47.328 21.8013 47.7276 21.4751 48.207 21.2481C48.6865 21.0212 49.2325 20.9077 49.8585 20.9077C50.4844 20.9077 50.6575 20.9503 51.0438 21.0496C51.43 21.1488 51.7763 21.2765 52.0826 21.4467L51.6697 22.4113C51.4167 22.2836 51.1503 22.1701 50.8307 22.0708C50.5244 21.9715 50.1914 21.9148 49.8451 21.9148H49.8185Z" fill="#1A3A5A"/>
<path d="M55.5852 23.1772C56.1046 23.1772 56.5575 23.3049 56.9304 23.5602C57.3033 23.8155 57.5963 24.1702 57.796 24.6382C57.9958 25.1063 58.1024 25.6453 58.1024 26.2694V26.9503H53.9737C53.9871 27.7304 54.1602 28.312 54.4932 28.7233C54.8261 29.1347 55.2789 29.3333 55.8782 29.3333C56.4776 29.3333 56.5974 29.2907 56.9037 29.2056C57.1967 29.1205 57.5164 29.007 57.836 28.851V29.8297C57.5297 29.9858 57.2234 30.0992 56.917 30.1702C56.6241 30.2411 56.2511 30.2836 55.8383 30.2836C55.4254 30.2836 54.7595 30.156 54.32 29.8865C53.8805 29.617 53.5342 29.234 53.2945 28.7092C53.0415 28.1843 52.9216 27.546 52.9216 26.7943C52.9216 26.0425 53.0282 25.4042 53.2546 24.8652C53.481 24.3262 53.7873 23.9148 54.2002 23.6311C54.5997 23.3475 55.0792 23.1914 55.6119 23.1914L55.5852 23.1772ZM55.5852 24.0992C55.1191 24.0992 54.7595 24.2694 54.4798 24.6099C54.2135 24.9503 54.0537 25.4326 54.0004 26.0425H57.0236C57.0236 25.6453 56.9703 25.3049 56.8638 25.0212C56.7572 24.7375 56.5974 24.5106 56.3843 24.3404C56.1712 24.1702 55.9049 24.085 55.5719 24.085L55.5852 24.0992Z" fill="#1A3A5A"/>
<path d="M62.4441 23.1772C63.1632 23.1772 63.7093 23.3758 64.0822 23.773C64.4551 24.1702 64.6415 24.8085 64.6415 25.6879V30.1418H63.6027V25.7588C63.6027 25.2056 63.4962 24.7943 63.2831 24.5248C63.07 24.2553 62.7371 24.1134 62.2842 24.1134C61.6316 24.1134 61.1788 24.3262 60.9258 24.7517C60.6727 25.1772 60.5529 25.7872 60.5529 26.5957V30.1418H59.5141V23.3049H60.3531L60.5129 24.2411H60.5795C60.7127 23.9999 60.8725 23.8014 61.0723 23.6453C61.2721 23.4893 61.4985 23.3758 61.7382 23.2907C61.9779 23.2056 62.231 23.1772 62.484 23.1772H62.4441Z" fill="#1A3A5A"/>
<path d="M68.4372 29.3617C68.5837 29.3617 68.7435 29.3475 68.9034 29.3191C69.0632 29.2908 69.1964 29.2624 69.3029 29.2198V30.0709C69.1964 30.1276 69.0365 30.1844 68.8234 30.2127C68.6237 30.2553 68.4239 30.2695 68.2374 30.2695C67.9178 30.2695 67.6248 30.2127 67.3451 30.0851C67.0788 29.9574 66.8524 29.7447 66.6925 29.4468C66.5327 29.1347 66.4528 28.7092 66.4528 28.156V24.1702H65.6005V23.6312L66.4795 23.1915L66.879 21.7305H67.505V23.3049H69.2496V24.1702H67.505V28.1276C67.505 28.539 67.5982 28.851 67.7713 29.0496C67.9445 29.2482 68.1709 29.3475 68.4372 29.3475V29.3617Z" fill="#1A3A5A"/>
<path d="M73.2451 23.1772C73.3516 23.1772 73.4715 23.1772 73.6046 23.1914C73.7378 23.1914 73.8444 23.2198 73.9376 23.2482L73.8177 24.2836C73.7245 24.2553 73.618 24.2411 73.4981 24.2269C73.3782 24.2127 73.2717 24.1985 73.1652 24.1985C72.9387 24.1985 72.7123 24.2553 72.4992 24.3687C72.2862 24.4822 72.0997 24.6382 71.9399 24.8368C71.7801 25.0354 71.6469 25.2765 71.5537 25.5602C71.4604 25.8439 71.4072 26.156 71.4072 26.5106V30.156H70.3683V23.3191H71.2207L71.3406 24.5673H71.3938C71.527 24.312 71.6735 24.085 71.86 23.8723C72.0464 23.6595 72.2462 23.5035 72.4726 23.3758C72.699 23.2482 72.9654 23.1914 73.2451 23.1914V23.1772Z" fill="#1A3A5A"/>
<path d="M77.3071 23.1772C77.8265 23.1772 78.2793 23.3049 78.6522 23.5602C79.0251 23.8155 79.3181 24.1702 79.5179 24.6382C79.7177 25.1063 79.8242 25.6453 79.8242 26.2694V26.9503H75.6956C75.7089 27.7304 75.882 28.312 76.215 28.7233C76.548 29.1347 77.0008 29.3333 77.6001 29.3333C78.1994 29.3333 78.3193 29.2907 78.6256 29.2056C78.9186 29.1205 79.2382 29.007 79.5578 28.851V29.8297C79.2515 29.9858 78.9452 30.0992 78.6389 30.1702C78.3459 30.2411 77.973 30.2836 77.5601 30.2836C77.1473 30.2836 76.4814 30.156 76.0419 29.8865C75.6024 29.617 75.2561 29.234 75.0164 28.7092C74.7633 28.1843 74.6435 27.546 74.6435 26.7943C74.6435 26.0425 74.75 25.4042 74.9764 24.8652C75.2028 24.3262 75.5091 23.9148 75.922 23.6311C76.3215 23.3475 76.801 23.1914 77.3337 23.1914L77.3071 23.1772ZM77.3071 24.0992C76.841 24.0992 76.4814 24.2694 76.2017 24.6099C75.9353 24.9503 75.7755 25.4326 75.7222 26.0425H78.7454C78.7454 25.6453 78.6922 25.3049 78.5856 25.0212C78.4791 24.7375 78.3193 24.5106 78.1062 24.3404C77.8931 24.1702 77.6267 24.085 77.2938 24.085L77.3071 24.0992Z" fill="#1A3A5A"/>
</g>
<defs>
<clipPath id="clip0_12441_971">
<rect width="70" height="24" fill="white" transform="translate(13.5 8)"/>
</clipPath>
</defs>
</svg>
