<svg width="858" height="342" viewBox="0 0 858 342" fill="none" xmlns="http://www.w3.org/2000/svg">
<circle cx="519" cy="131.59" r="131.5" fill="#FFEFE9"/>
<circle cx="349" cy="206.59" r="97.5" fill="#FEFBE8"/>
<circle cx="490" cy="262.59" r="78.5" fill="#EBF5FF"/>
<mask id="path-4-outside-1_12167_1744" maskUnits="userSpaceOnUse" x="470.5" y="109.09" width="387" height="45" fill="black">
<rect fill="white" x="470.5" y="109.09" width="387" height="45"/>
<path d="M470.5 110.09H857.5V154.09H470.5V110.09Z"/>
</mask>
<path d="M470.5 111.09H857.5V109.09H470.5V111.09Z" fill="#D2D2D2" mask="url(#path-4-outside-1_12167_1744)"/>
<path d="M476.024 145.09V122.05L478.544 124.57H470.984V119.89H481.856V145.09H476.024ZM497.034 145.522C494.97 145.522 493.122 145.018 491.49 144.01C489.858 142.978 488.574 141.49 487.638 139.546C486.702 137.602 486.234 135.25 486.234 132.49C486.234 129.73 486.702 127.378 487.638 125.434C488.574 123.49 489.858 122.014 491.49 121.006C493.122 119.974 494.97 119.458 497.034 119.458C499.122 119.458 500.97 119.974 502.578 121.006C504.21 122.014 505.494 123.49 506.43 125.434C507.366 127.378 507.834 129.73 507.834 132.49C507.834 135.25 507.366 137.602 506.43 139.546C505.494 141.49 504.21 142.978 502.578 144.01C500.97 145.018 499.122 145.522 497.034 145.522ZM497.034 140.59C498.018 140.59 498.87 140.314 499.59 139.762C500.334 139.21 500.91 138.334 501.318 137.134C501.75 135.934 501.966 134.386 501.966 132.49C501.966 130.594 501.75 129.046 501.318 127.846C500.91 126.646 500.334 125.77 499.59 125.218C498.87 124.666 498.018 124.39 497.034 124.39C496.074 124.39 495.222 124.666 494.478 125.218C493.758 125.77 493.182 126.646 492.75 127.846C492.342 129.046 492.138 130.594 492.138 132.49C492.138 134.386 492.342 135.934 492.75 137.134C493.182 138.334 493.758 139.21 494.478 139.762C495.222 140.314 496.074 140.59 497.034 140.59ZM521.468 145.522C519.404 145.522 517.556 145.018 515.924 144.01C514.292 142.978 513.008 141.49 512.072 139.546C511.136 137.602 510.668 135.25 510.668 132.49C510.668 129.73 511.136 127.378 512.072 125.434C513.008 123.49 514.292 122.014 515.924 121.006C517.556 119.974 519.404 119.458 521.468 119.458C523.556 119.458 525.404 119.974 527.012 121.006C528.644 122.014 529.928 123.49 530.864 125.434C531.8 127.378 532.268 129.73 532.268 132.49C532.268 135.25 531.8 137.602 530.864 139.546C529.928 141.49 528.644 142.978 527.012 144.01C525.404 145.018 523.556 145.522 521.468 145.522ZM521.468 140.59C522.452 140.59 523.304 140.314 524.024 139.762C524.768 139.21 525.344 138.334 525.752 137.134C526.184 135.934 526.4 134.386 526.4 132.49C526.4 130.594 526.184 129.046 525.752 127.846C525.344 126.646 524.768 125.77 524.024 125.218C523.304 124.666 522.452 124.39 521.468 124.39C520.508 124.39 519.656 124.666 518.912 125.218C518.192 125.77 517.616 126.646 517.184 127.846C516.776 129.046 516.572 130.594 516.572 132.49C516.572 134.386 516.776 135.934 517.184 137.134C517.616 138.334 518.192 139.21 518.912 139.762C519.656 140.314 520.508 140.59 521.468 140.59ZM538.737 145.09L555.945 119.89H560.229L543.021 145.09H538.737ZM540.933 133.498C539.709 133.498 538.629 133.222 537.693 132.67C536.757 132.094 536.013 131.29 535.461 130.258C534.933 129.202 534.669 127.966 534.669 126.55C534.669 125.134 534.933 123.91 535.461 122.878C536.013 121.846 536.757 121.042 537.693 120.466C538.629 119.89 539.709 119.602 540.933 119.602C542.157 119.602 543.237 119.89 544.173 120.466C545.109 121.042 545.841 121.846 546.369 122.878C546.897 123.91 547.161 125.134 547.161 126.55C547.161 127.966 546.897 129.202 546.369 130.258C545.841 131.29 545.109 132.094 544.173 132.67C543.237 133.222 542.157 133.498 540.933 133.498ZM540.933 130.546C541.725 130.546 542.361 130.222 542.841 129.574C543.321 128.902 543.561 127.894 543.561 126.55C543.561 125.206 543.321 124.21 542.841 123.562C542.361 122.89 541.725 122.554 540.933 122.554C540.165 122.554 539.529 122.89 539.025 123.562C538.545 124.21 538.305 125.206 538.305 126.55C538.305 127.87 538.545 128.866 539.025 129.538C539.529 130.21 540.165 130.546 540.933 130.546ZM558.033 145.378C556.833 145.378 555.753 145.102 554.793 144.55C553.857 143.974 553.125 143.17 552.597 142.138C552.069 141.082 551.805 139.846 551.805 138.43C551.805 137.014 552.069 135.79 552.597 134.758C553.125 133.726 553.857 132.922 554.793 132.346C555.753 131.77 556.833 131.482 558.033 131.482C559.281 131.482 560.373 131.77 561.309 132.346C562.245 132.922 562.977 133.726 563.505 134.758C564.033 135.79 564.297 137.014 564.297 138.43C564.297 139.846 564.033 141.082 563.505 142.138C562.977 143.17 562.245 143.974 561.309 144.55C560.373 145.102 559.281 145.378 558.033 145.378ZM558.033 142.426C558.825 142.426 559.461 142.102 559.941 141.454C560.421 140.782 560.661 139.774 560.661 138.43C560.661 137.11 560.421 136.114 559.941 135.442C559.461 134.77 558.825 134.434 558.033 134.434C557.265 134.434 556.629 134.77 556.125 135.442C555.645 136.09 555.405 137.086 555.405 138.43C555.405 139.774 555.645 140.782 556.125 141.454C556.629 142.102 557.265 142.426 558.033 142.426Z" fill="#2B2A2E"/>
<path d="M714.113 138.25C713.324 138.25 712.593 138.106 711.921 137.818C711.26 137.519 710.684 137.109 710.193 136.586C709.703 136.053 709.324 135.429 709.057 134.714C708.791 133.989 708.657 133.194 708.657 132.33C708.657 131.466 708.791 130.677 709.057 129.962C709.324 129.237 709.697 128.613 710.177 128.09C710.668 127.557 711.244 127.146 711.905 126.858C712.577 126.559 713.308 126.41 714.097 126.41C714.961 126.41 715.735 126.586 716.417 126.938C717.111 127.29 717.676 127.786 718.113 128.426C718.561 129.066 718.839 129.813 718.945 130.666H717.633C717.505 129.717 717.127 128.97 716.497 128.426C715.879 127.871 715.084 127.594 714.113 127.594C713.292 127.594 712.572 127.797 711.953 128.202C711.335 128.597 710.855 129.151 710.513 129.866C710.172 130.57 710.001 131.391 710.001 132.33C710.001 133.269 710.172 134.095 710.513 134.81C710.855 135.514 711.335 136.069 711.953 136.474C712.572 136.869 713.287 137.066 714.097 137.066C715.089 137.066 715.9 136.789 716.529 136.234C717.169 135.679 717.548 134.933 717.665 133.994H718.977C718.871 134.847 718.593 135.594 718.145 136.234C717.708 136.874 717.143 137.37 716.449 137.722C715.767 138.074 714.988 138.25 714.113 138.25ZM724.374 138.25C723.595 138.25 722.907 138.069 722.31 137.706C721.712 137.333 721.243 136.826 720.902 136.186C720.56 135.546 720.39 134.81 720.39 133.978C720.39 133.146 720.555 132.415 720.886 131.786C721.227 131.146 721.702 130.65 722.31 130.298C722.918 129.946 723.616 129.77 724.406 129.77C725.163 129.77 725.819 129.935 726.374 130.266C726.939 130.597 727.371 131.061 727.67 131.658C727.979 132.255 728.134 132.959 728.134 133.77C728.134 133.877 728.128 133.978 728.118 134.074C728.118 134.17 728.107 134.277 728.086 134.394H721.35V133.322H727.302L726.886 133.914C726.886 132.933 726.667 132.181 726.23 131.658C725.803 131.125 725.195 130.858 724.406 130.858C723.595 130.858 722.939 131.141 722.438 131.706C721.947 132.261 721.702 133.013 721.702 133.962C721.702 134.933 721.947 135.711 722.438 136.298C722.939 136.874 723.606 137.162 724.438 137.162C724.96 137.162 725.419 137.05 725.814 136.826C726.208 136.591 726.496 136.261 726.678 135.834H727.894C727.627 136.581 727.179 137.173 726.55 137.61C725.931 138.037 725.206 138.25 724.374 138.25ZM730.141 138.09V129.93H731.341V132.01H731.421V138.09H730.141ZM731.421 133.834L731.213 131.898C731.405 131.205 731.746 130.677 732.237 130.314C732.728 129.951 733.293 129.77 733.933 129.77C734.2 129.77 734.381 129.791 734.477 129.834V131.066C734.424 131.045 734.349 131.034 734.253 131.034C734.157 131.023 734.04 131.018 733.901 131.018C733.09 131.018 732.472 131.263 732.045 131.754C731.629 132.234 731.421 132.927 731.421 133.834ZM739.672 138.234C738.766 138.234 738.104 138.031 737.688 137.626C737.283 137.21 737.08 136.613 737.08 135.834V128.026L738.36 127.546V135.818C738.36 136.277 738.478 136.613 738.712 136.826C738.947 137.039 739.331 137.146 739.864 137.146C740.078 137.146 740.259 137.135 740.408 137.114C740.568 137.082 740.696 137.045 740.792 137.002V138.09C740.686 138.133 740.531 138.165 740.328 138.186C740.136 138.218 739.918 138.234 739.672 138.234ZM735.4 131.018V129.93H740.792V131.018H735.4ZM742.52 138.09V129.93H743.8V138.09H742.52ZM742.424 128.074V126.57H743.896V128.074H742.424ZM747.084 138.09V128.778C747.084 128.031 747.298 127.45 747.724 127.034C748.162 126.618 748.823 126.41 749.708 126.41C749.922 126.41 750.087 126.421 750.204 126.442C750.332 126.463 750.439 126.49 750.524 126.522V127.53C750.45 127.509 750.343 127.487 750.204 127.466C750.076 127.445 749.938 127.434 749.788 127.434C749.298 127.434 748.935 127.557 748.7 127.802C748.476 128.047 748.364 128.394 748.364 128.842V138.09H747.084ZM752.236 138.09V129.93H753.516V138.09H752.236ZM745.404 131.018V129.93H752.956V131.018H745.404ZM752.14 128.074V126.57H753.612V128.074H752.14ZM759.305 138.25C758.526 138.25 757.838 138.069 757.241 137.706C756.644 137.333 756.174 136.826 755.833 136.186C755.492 135.546 755.321 134.81 755.321 133.978C755.321 133.146 755.486 132.415 755.817 131.786C756.158 131.146 756.633 130.65 757.241 130.298C757.849 129.946 758.548 129.77 759.337 129.77C760.094 129.77 760.75 129.935 761.305 130.266C761.87 130.597 762.302 131.061 762.601 131.658C762.91 132.255 763.065 132.959 763.065 133.77C763.065 133.877 763.06 133.978 763.049 134.074C763.049 134.17 763.038 134.277 763.017 134.394H756.281V133.322H762.233L761.817 133.914C761.817 132.933 761.598 132.181 761.161 131.658C760.734 131.125 760.126 130.858 759.337 130.858C758.526 130.858 757.87 131.141 757.369 131.706C756.878 132.261 756.633 133.013 756.633 133.962C756.633 134.933 756.878 135.711 757.369 136.298C757.87 136.874 758.537 137.162 759.369 137.162C759.892 137.162 760.35 137.05 760.745 136.826C761.14 136.591 761.428 136.261 761.609 135.834H762.825C762.558 136.581 762.11 137.173 761.481 137.61C760.862 138.037 760.137 138.25 759.305 138.25ZM771.008 138.09V136.186L771.168 136.234C770.966 136.853 770.592 137.343 770.048 137.706C769.515 138.069 768.875 138.25 768.128 138.25C767.392 138.25 766.747 138.074 766.192 137.722C765.648 137.37 765.222 136.879 764.912 136.25C764.614 135.621 764.464 134.885 764.464 134.042C764.464 133.189 764.619 132.442 764.928 131.802C765.238 131.162 765.67 130.666 766.224 130.314C766.779 129.962 767.43 129.786 768.176 129.786C768.944 129.786 769.59 129.973 770.112 130.346C770.635 130.719 770.992 131.247 771.184 131.93L770.928 131.962V126.57H772.208V138.09H771.008ZM768.368 137.13C769.19 137.13 769.83 136.853 770.288 136.298C770.758 135.733 770.992 134.965 770.992 133.994C770.992 133.045 770.758 132.293 770.288 131.738C769.819 131.183 769.179 130.906 768.368 130.906C767.558 130.906 766.923 131.183 766.464 131.738C766.006 132.293 765.776 133.061 765.776 134.042C765.776 135.002 766.006 135.759 766.464 136.314C766.923 136.858 767.558 137.13 768.368 137.13ZM778.234 138.09V126.57H779.546V138.09H778.234ZM782.281 138.09V129.93H783.481V131.85H783.561V138.09H782.281ZM788.121 138.09V132.746C788.121 132.127 787.966 131.663 787.657 131.354C787.348 131.045 786.889 130.89 786.281 130.89C785.748 130.89 785.273 131.007 784.857 131.242C784.452 131.477 784.132 131.802 783.897 132.218C783.673 132.634 783.561 133.119 783.561 133.674L783.353 131.738C783.63 131.13 784.052 130.65 784.617 130.298C785.193 129.946 785.844 129.77 786.569 129.77C787.422 129.77 788.105 130.015 788.617 130.506C789.14 130.986 789.401 131.621 789.401 132.41V138.09H788.121ZM794.676 138.25C793.673 138.25 792.873 138.021 792.276 137.562C791.678 137.093 791.337 136.431 791.252 135.578H792.484C792.558 136.101 792.788 136.501 793.172 136.778C793.556 137.055 794.068 137.194 794.708 137.194C795.273 137.194 795.716 137.087 796.036 136.874C796.356 136.661 796.516 136.357 796.516 135.962C796.516 135.685 796.425 135.445 796.244 135.242C796.062 135.029 795.7 134.853 795.156 134.714L793.844 134.378C793.097 134.186 792.537 133.893 792.164 133.498C791.79 133.093 791.604 132.613 791.604 132.058C791.604 131.354 791.865 130.799 792.388 130.394C792.91 129.978 793.62 129.77 794.516 129.77C795.401 129.77 796.121 129.983 796.676 130.41C797.23 130.837 797.545 131.429 797.62 132.186H796.388C796.313 131.749 796.11 131.413 795.78 131.178C795.449 130.943 795.012 130.826 794.468 130.826C793.945 130.826 793.54 130.927 793.252 131.13C792.964 131.322 792.82 131.599 792.82 131.962C792.82 132.239 792.921 132.479 793.124 132.682C793.337 132.885 793.689 133.055 794.18 133.194L795.46 133.546C796.217 133.749 796.788 134.058 797.172 134.474C797.556 134.89 797.748 135.391 797.748 135.978C797.748 136.693 797.476 137.253 796.932 137.658C796.388 138.053 795.636 138.25 794.676 138.25ZM802.814 138.234C801.908 138.234 801.246 138.031 800.83 137.626C800.425 137.21 800.222 136.613 800.222 135.834V128.026L801.502 127.546V135.818C801.502 136.277 801.62 136.613 801.854 136.826C802.089 137.039 802.473 137.146 803.006 137.146C803.22 137.146 803.401 137.135 803.55 137.114C803.71 137.082 803.838 137.045 803.934 137.002V138.09C803.828 138.133 803.673 138.165 803.47 138.186C803.278 138.218 803.06 138.234 802.814 138.234ZM798.542 131.018V129.93H803.934V131.018H798.542ZM805.662 138.09V129.93H806.862V132.01H806.942V138.09H805.662ZM806.942 133.834L806.734 131.898C806.926 131.205 807.267 130.677 807.758 130.314C808.248 129.951 808.814 129.77 809.454 129.77C809.72 129.77 809.902 129.791 809.998 129.834V131.066C809.944 131.045 809.87 131.034 809.774 131.034C809.678 131.023 809.56 131.018 809.422 131.018C808.611 131.018 807.992 131.263 807.566 131.754C807.15 132.234 806.942 132.927 806.942 133.834ZM814.273 138.25C813.739 138.25 813.265 138.143 812.849 137.93C812.433 137.706 812.107 137.397 811.873 137.002C811.638 136.597 811.521 136.133 811.521 135.61V129.93H812.801V135.274C812.801 135.893 812.95 136.357 813.249 136.666C813.558 136.975 813.995 137.13 814.561 137.13C815.073 137.13 815.526 137.013 815.921 136.778C816.315 136.543 816.625 136.218 816.849 135.802C817.083 135.375 817.201 134.89 817.201 134.346L817.409 136.282C817.142 136.89 816.726 137.37 816.161 137.722C815.595 138.074 814.966 138.25 814.273 138.25ZM817.281 138.09V136.17H817.201V129.93H818.481V138.09H817.281ZM824.319 138.25C823.573 138.25 822.906 138.069 822.319 137.706C821.743 137.333 821.285 136.826 820.943 136.186C820.613 135.535 820.447 134.799 820.447 133.978C820.447 133.157 820.613 132.431 820.943 131.802C821.285 131.173 821.743 130.677 822.319 130.314C822.906 129.951 823.567 129.77 824.303 129.77C824.911 129.77 825.455 129.887 825.935 130.122C826.426 130.357 826.826 130.693 827.135 131.13C827.455 131.557 827.658 132.058 827.743 132.634H826.559C826.453 132.111 826.207 131.685 825.823 131.354C825.439 131.023 824.943 130.858 824.335 130.858C823.813 130.858 823.359 130.986 822.975 131.242C822.591 131.498 822.293 131.861 822.079 132.33C821.866 132.799 821.759 133.349 821.759 133.978C821.759 134.607 821.866 135.162 822.079 135.642C822.293 136.122 822.591 136.495 822.975 136.762C823.37 137.029 823.829 137.162 824.351 137.162C824.938 137.162 825.429 137.002 825.823 136.682C826.218 136.351 826.469 135.925 826.575 135.402H827.759C827.663 135.967 827.45 136.469 827.119 136.906C826.799 137.333 826.399 137.663 825.919 137.898C825.439 138.133 824.906 138.25 824.319 138.25ZM832.931 138.234C832.025 138.234 831.363 138.031 830.947 137.626C830.542 137.21 830.339 136.613 830.339 135.834V128.026L831.619 127.546V135.818C831.619 136.277 831.737 136.613 831.971 136.826C832.206 137.039 832.59 137.146 833.123 137.146C833.337 137.146 833.518 137.135 833.667 137.114C833.827 137.082 833.955 137.045 834.051 137.002V138.09C833.945 138.133 833.79 138.165 833.587 138.186C833.395 138.218 833.177 138.234 832.931 138.234ZM828.659 131.018V129.93H834.051V131.018H828.659ZM838.983 138.25C838.183 138.25 837.479 138.063 836.871 137.69C836.263 137.317 835.788 136.81 835.447 136.17C835.116 135.519 834.951 134.789 834.951 133.978C834.951 133.157 835.122 132.431 835.463 131.802C835.804 131.173 836.274 130.677 836.871 130.314C837.479 129.951 838.183 129.77 838.983 129.77C839.794 129.77 840.498 129.951 841.095 130.314C841.703 130.677 842.172 131.173 842.503 131.802C842.844 132.431 843.015 133.157 843.015 133.978C843.015 134.789 842.844 135.519 842.503 136.17C842.172 136.81 841.703 137.317 841.095 137.69C840.498 138.063 839.794 138.25 838.983 138.25ZM838.983 137.162C839.538 137.162 840.018 137.029 840.423 136.762C840.828 136.485 841.143 136.106 841.367 135.626C841.591 135.146 841.703 134.591 841.703 133.962C841.703 133.023 841.452 132.271 840.951 131.706C840.46 131.141 839.804 130.858 838.983 130.858C838.172 130.858 837.516 131.141 837.015 131.706C836.514 132.271 836.263 133.023 836.263 133.962C836.263 134.591 836.375 135.146 836.599 135.626C836.823 136.106 837.138 136.485 837.543 136.762C837.959 137.029 838.439 137.162 838.983 137.162ZM845.015 138.09V129.93H846.215V132.01H846.295V138.09H845.015ZM846.295 133.834L846.087 131.898C846.279 131.205 846.62 130.677 847.111 130.314C847.601 129.951 848.167 129.77 848.807 129.77C849.073 129.77 849.255 129.791 849.351 129.834V131.066C849.297 131.045 849.223 131.034 849.127 131.034C849.031 131.023 848.913 131.018 848.775 131.018C847.964 131.018 847.345 131.263 846.919 131.754C846.503 132.234 846.295 132.927 846.295 133.834ZM853.628 138.25C852.626 138.25 851.826 138.021 851.228 137.562C850.631 137.093 850.29 136.431 850.204 135.578H851.436C851.511 136.101 851.74 136.501 852.124 136.778C852.508 137.055 853.02 137.194 853.66 137.194C854.226 137.194 854.668 137.087 854.988 136.874C855.308 136.661 855.468 136.357 855.468 135.962C855.468 135.685 855.378 135.445 855.196 135.242C855.015 135.029 854.652 134.853 854.108 134.714L852.796 134.378C852.05 134.186 851.49 133.893 851.116 133.498C850.743 133.093 850.556 132.613 850.556 132.058C850.556 131.354 850.818 130.799 851.34 130.394C851.863 129.978 852.572 129.77 853.468 129.77C854.354 129.77 855.074 129.983 855.628 130.41C856.183 130.837 856.498 131.429 856.572 132.186H855.34C855.266 131.749 855.063 131.413 854.732 131.178C854.402 130.943 853.964 130.826 853.42 130.826C852.898 130.826 852.492 130.927 852.204 131.13C851.916 131.322 851.772 131.599 851.772 131.962C851.772 132.239 851.874 132.479 852.076 132.682C852.29 132.885 852.642 133.055 853.132 133.194L854.412 133.546C855.17 133.749 855.74 134.058 856.124 134.474C856.508 134.89 856.7 135.391 856.7 135.978C856.7 136.693 856.428 137.253 855.884 137.658C855.34 138.053 854.588 138.25 853.628 138.25Z" fill="#2B2A2E"/>
<mask id="path-8-outside-2_12167_1744" maskUnits="userSpaceOnUse" x="457.5" y="240.09" width="387" height="45" fill="black">
<rect fill="white" x="457.5" y="240.09" width="387" height="45"/>
<path d="M457.5 241.09H844.5V285.09H457.5V241.09Z"/>
</mask>
<path d="M457.5 242.09H844.5V240.09H457.5V242.09Z" fill="#D2D2D2" mask="url(#path-8-outside-2_12167_1744)"/>
<path d="M463.198 276.09V253.05L465.718 255.57H458.158V250.89H469.03V276.09H463.198ZM484.208 276.522C482.144 276.522 480.296 276.018 478.664 275.01C477.032 273.978 475.748 272.49 474.812 270.546C473.876 268.602 473.408 266.25 473.408 263.49C473.408 260.73 473.876 258.378 474.812 256.434C475.748 254.49 477.032 253.014 478.664 252.006C480.296 250.974 482.144 250.458 484.208 250.458C486.296 250.458 488.144 250.974 489.752 252.006C491.384 253.014 492.668 254.49 493.604 256.434C494.54 258.378 495.008 260.73 495.008 263.49C495.008 266.25 494.54 268.602 493.604 270.546C492.668 272.49 491.384 273.978 489.752 275.01C488.144 276.018 486.296 276.522 484.208 276.522ZM484.208 271.59C485.192 271.59 486.044 271.314 486.764 270.762C487.508 270.21 488.084 269.334 488.492 268.134C488.924 266.934 489.14 265.386 489.14 263.49C489.14 261.594 488.924 260.046 488.492 258.846C488.084 257.646 487.508 256.77 486.764 256.218C486.044 255.666 485.192 255.39 484.208 255.39C483.248 255.39 482.396 255.666 481.652 256.218C480.932 256.77 480.356 257.646 479.924 258.846C479.516 260.046 479.312 261.594 479.312 263.49C479.312 265.386 479.516 266.934 479.924 268.134C480.356 269.334 480.932 270.21 481.652 270.762C482.396 271.314 483.248 271.59 484.208 271.59ZM505.003 271.806V255.174H509.647V271.806H505.003ZM498.775 265.686V261.294H515.911V265.686H498.775Z" fill="#2B2A2E"/>
<path d="M702.719 269.09V263.874L698.351 257.57H699.951L703.743 263.106H703.135L706.927 257.57H708.399L704.031 263.874V269.09H702.719ZM711.936 269.25C711.158 269.25 710.47 269.069 709.872 268.706C709.275 268.333 708.806 267.826 708.464 267.186C708.123 266.546 707.952 265.81 707.952 264.978C707.952 264.146 708.118 263.415 708.448 262.786C708.79 262.146 709.264 261.65 709.872 261.298C710.48 260.946 711.179 260.77 711.968 260.77C712.726 260.77 713.382 260.935 713.936 261.266C714.502 261.597 714.934 262.061 715.232 262.658C715.542 263.255 715.696 263.959 715.696 264.77C715.696 264.877 715.691 264.978 715.68 265.074C715.68 265.17 715.67 265.277 715.648 265.394H708.912V264.322H714.864L714.448 264.914C714.448 263.933 714.23 263.181 713.792 262.658C713.366 262.125 712.758 261.858 711.968 261.858C711.158 261.858 710.502 262.141 710 262.706C709.51 263.261 709.264 264.013 709.264 264.962C709.264 265.933 709.51 266.711 710 267.298C710.502 267.874 711.168 268.162 712 268.162C712.523 268.162 712.982 268.05 713.376 267.826C713.771 267.591 714.059 267.261 714.24 266.834H715.456C715.19 267.581 714.742 268.173 714.112 268.61C713.494 269.037 712.768 269.25 711.936 269.25ZM722.665 269.09C722.622 268.909 722.59 268.701 722.569 268.466C722.558 268.231 722.553 267.933 722.553 267.57H722.473V263.666C722.473 263.047 722.329 262.594 722.041 262.306C721.763 262.007 721.31 261.858 720.681 261.858C720.062 261.858 719.566 261.986 719.193 262.242C718.83 262.487 718.627 262.839 718.585 263.298H717.353C717.406 262.509 717.737 261.89 718.345 261.442C718.953 260.994 719.747 260.77 720.729 260.77C721.742 260.77 722.494 261.01 722.985 261.49C723.475 261.97 723.721 262.69 723.721 263.65V267.57C723.721 267.805 723.737 268.05 723.769 268.306C723.801 268.551 723.843 268.813 723.897 269.09H722.665ZM719.865 269.25C719.022 269.25 718.35 269.047 717.849 268.642C717.358 268.226 717.113 267.661 717.113 266.946C717.113 266.231 717.358 265.677 717.849 265.282C718.339 264.887 719.054 264.61 719.993 264.45L722.841 263.97V265.026L720.185 265.442C719.587 265.538 719.134 265.698 718.825 265.922C718.515 266.146 718.361 266.471 718.361 266.898C718.361 267.314 718.499 267.629 718.777 267.842C719.065 268.055 719.486 268.162 720.041 268.162C720.755 268.162 721.337 268.002 721.785 267.682C722.243 267.351 722.473 266.925 722.473 266.402L722.681 267.538C722.51 268.082 722.174 268.503 721.673 268.802C721.182 269.101 720.579 269.25 719.865 269.25ZM726.268 269.09V260.93H727.468V263.01H727.548V269.09H726.268ZM727.548 264.834L727.34 262.898C727.532 262.205 727.873 261.677 728.364 261.314C728.854 260.951 729.42 260.77 730.06 260.77C730.326 260.77 730.508 260.791 730.604 260.834V262.066C730.55 262.045 730.476 262.034 730.38 262.034C730.284 262.023 730.166 262.018 730.028 262.018C729.217 262.018 728.598 262.263 728.172 262.754C727.756 263.234 727.548 263.927 727.548 264.834ZM734.881 269.25C733.879 269.25 733.079 269.021 732.481 268.562C731.884 268.093 731.543 267.431 731.457 266.578H732.689C732.764 267.101 732.993 267.501 733.377 267.778C733.761 268.055 734.273 268.194 734.913 268.194C735.479 268.194 735.921 268.087 736.241 267.874C736.561 267.661 736.721 267.357 736.721 266.962C736.721 266.685 736.631 266.445 736.449 266.242C736.268 266.029 735.905 265.853 735.361 265.714L734.049 265.378C733.303 265.186 732.743 264.893 732.369 264.498C731.996 264.093 731.809 263.613 731.809 263.058C731.809 262.354 732.071 261.799 732.593 261.394C733.116 260.978 733.825 260.77 734.721 260.77C735.607 260.77 736.327 260.983 736.881 261.41C737.436 261.837 737.751 262.429 737.825 263.186H736.593C736.519 262.749 736.316 262.413 735.985 262.178C735.655 261.943 735.217 261.826 734.673 261.826C734.151 261.826 733.745 261.927 733.457 262.13C733.169 262.322 733.025 262.599 733.025 262.962C733.025 263.239 733.127 263.479 733.329 263.682C733.543 263.885 733.895 264.055 734.385 264.194L735.665 264.546C736.423 264.749 736.993 265.058 737.377 265.474C737.761 265.89 737.953 266.391 737.953 266.978C737.953 267.693 737.681 268.253 737.137 268.658C736.593 269.053 735.841 269.25 734.881 269.25ZM746.431 269.25C745.631 269.25 744.927 269.063 744.319 268.69C743.711 268.317 743.236 267.81 742.895 267.17C742.564 266.519 742.399 265.789 742.399 264.978C742.399 264.157 742.57 263.431 742.911 262.802C743.252 262.173 743.722 261.677 744.319 261.314C744.927 260.951 745.631 260.77 746.431 260.77C747.242 260.77 747.946 260.951 748.543 261.314C749.151 261.677 749.62 262.173 749.951 262.802C750.292 263.431 750.463 264.157 750.463 264.978C750.463 265.789 750.292 266.519 749.951 267.17C749.62 267.81 749.151 268.317 748.543 268.69C747.946 269.063 747.242 269.25 746.431 269.25ZM746.431 268.162C746.986 268.162 747.466 268.029 747.871 267.762C748.276 267.485 748.591 267.106 748.815 266.626C749.039 266.146 749.151 265.591 749.151 264.962C749.151 264.023 748.9 263.271 748.399 262.706C747.908 262.141 747.252 261.858 746.431 261.858C745.62 261.858 744.964 262.141 744.463 262.706C743.962 263.271 743.711 264.023 743.711 264.962C743.711 265.591 743.823 266.146 744.047 266.626C744.271 267.106 744.586 267.485 744.991 267.762C745.407 268.029 745.887 268.162 746.431 268.162ZM753.057 269.09V259.778C753.057 259.031 753.27 258.45 753.697 258.034C754.134 257.618 754.795 257.41 755.681 257.41C755.894 257.41 756.059 257.421 756.177 257.442C756.305 257.463 756.411 257.49 756.497 257.522V258.53C756.422 258.509 756.315 258.487 756.177 258.466C756.049 258.445 755.91 258.434 755.761 258.434C755.27 258.434 754.907 258.557 754.673 258.802C754.449 259.047 754.337 259.394 754.337 259.842V269.09H753.057ZM751.377 262.018V260.93H756.321V262.018H751.377ZM761.5 269.09V257.57H762.812V269.09H761.5ZM762.172 269.09V267.938H769.212V269.09H762.172ZM762.172 263.666V262.514H768.636V263.666H762.172ZM762.172 258.722V257.57H769.084V258.722H762.172ZM776.77 269.09L774.066 265.298L770.834 260.93H772.322L774.818 264.434L778.258 269.09H776.77ZM774.146 264.498L776.706 260.93H778.146L774.818 265.362L774.146 264.498ZM774.69 265.378L771.922 269.09H770.466L774.066 264.466L774.69 265.378ZM784.159 269.234C783.391 269.234 782.745 269.047 782.223 268.674C781.7 268.301 781.343 267.773 781.151 267.09L781.407 267.058V272.37H780.127V260.93H781.327V262.834L781.151 262.786C781.353 262.157 781.737 261.666 782.303 261.314C782.868 260.951 783.524 260.77 784.271 260.77C784.996 260.77 785.625 260.946 786.159 261.298C786.703 261.65 787.124 262.141 787.423 262.77C787.721 263.399 787.871 264.135 787.871 264.978C787.871 265.831 787.716 266.578 787.407 267.218C787.097 267.858 786.665 268.354 786.111 268.706C785.556 269.058 784.905 269.234 784.159 269.234ZM783.967 268.114C784.777 268.114 785.412 267.837 785.871 267.282C786.329 266.717 786.559 265.949 786.559 264.978C786.559 264.018 786.329 263.266 785.871 262.722C785.412 262.167 784.777 261.89 783.967 261.89C783.156 261.89 782.516 262.173 782.047 262.738C781.577 263.293 781.343 264.055 781.343 265.026C781.343 265.975 781.577 266.727 782.047 267.282C782.516 267.837 783.156 268.114 783.967 268.114ZM793.254 269.25C792.475 269.25 791.787 269.069 791.19 268.706C790.592 268.333 790.123 267.826 789.782 267.186C789.44 266.546 789.27 265.81 789.27 264.978C789.27 264.146 789.435 263.415 789.766 262.786C790.107 262.146 790.582 261.65 791.19 261.298C791.798 260.946 792.496 260.77 793.286 260.77C794.043 260.77 794.699 260.935 795.254 261.266C795.819 261.597 796.251 262.061 796.55 262.658C796.859 263.255 797.014 263.959 797.014 264.77C797.014 264.877 797.008 264.978 796.998 265.074C796.998 265.17 796.987 265.277 796.966 265.394H790.23V264.322H796.182L795.766 264.914C795.766 263.933 795.547 263.181 795.11 262.658C794.683 262.125 794.075 261.858 793.286 261.858C792.475 261.858 791.819 262.141 791.318 262.706C790.827 263.261 790.582 264.013 790.582 264.962C790.582 265.933 790.827 266.711 791.318 267.298C791.819 267.874 792.486 268.162 793.318 268.162C793.84 268.162 794.299 268.05 794.694 267.826C795.088 267.591 795.376 267.261 795.558 266.834H796.774C796.507 267.581 796.059 268.173 795.43 268.61C794.811 269.037 794.086 269.25 793.254 269.25ZM799.021 269.09V260.93H800.221V263.01H800.301V269.09H799.021ZM800.301 264.834L800.093 262.898C800.285 262.205 800.626 261.677 801.117 261.314C801.608 260.951 802.173 260.77 802.813 260.77C803.08 260.77 803.261 260.791 803.357 260.834V262.066C803.304 262.045 803.229 262.034 803.133 262.034C803.037 262.023 802.92 262.018 802.781 262.018C801.97 262.018 801.352 262.263 800.925 262.754C800.509 263.234 800.301 263.927 800.301 264.834ZM804.96 269.09V260.93H806.24V269.09H804.96ZM804.864 259.074V257.57H806.336V259.074H804.864ZM812.197 269.25C811.418 269.25 810.73 269.069 810.133 268.706C809.535 268.333 809.066 267.826 808.725 267.186C808.383 266.546 808.213 265.81 808.213 264.978C808.213 264.146 808.378 263.415 808.709 262.786C809.05 262.146 809.525 261.65 810.133 261.298C810.741 260.946 811.439 260.77 812.229 260.77C812.986 260.77 813.642 260.935 814.197 261.266C814.762 261.597 815.194 262.061 815.493 262.658C815.802 263.255 815.957 263.959 815.957 264.77C815.957 264.877 815.951 264.978 815.941 265.074C815.941 265.17 815.93 265.277 815.909 265.394H809.173V264.322H815.125L814.709 264.914C814.709 263.933 814.49 263.181 814.053 262.658C813.626 262.125 813.018 261.858 812.229 261.858C811.418 261.858 810.762 262.141 810.261 262.706C809.77 263.261 809.525 264.013 809.525 264.962C809.525 265.933 809.77 266.711 810.261 267.298C810.762 267.874 811.429 268.162 812.261 268.162C812.783 268.162 813.242 268.05 813.637 267.826C814.031 267.591 814.319 267.261 814.501 266.834H815.717C815.45 267.581 815.002 268.173 814.373 268.61C813.754 269.037 813.029 269.25 812.197 269.25ZM817.964 269.09V260.93H819.164V262.85H819.244V269.09H817.964ZM823.804 269.09V263.746C823.804 263.127 823.649 262.663 823.34 262.354C823.031 262.045 822.572 261.89 821.964 261.89C821.431 261.89 820.956 262.007 820.54 262.242C820.135 262.477 819.815 262.802 819.58 263.218C819.356 263.634 819.244 264.119 819.244 264.674L819.036 262.738C819.313 262.13 819.735 261.65 820.3 261.298C820.876 260.946 821.527 260.77 822.252 260.77C823.105 260.77 823.788 261.015 824.3 261.506C824.823 261.986 825.084 262.621 825.084 263.41V269.09H823.804ZM830.854 269.25C830.108 269.25 829.441 269.069 828.854 268.706C828.278 268.333 827.82 267.826 827.478 267.186C827.148 266.535 826.982 265.799 826.982 264.978C826.982 264.157 827.148 263.431 827.478 262.802C827.82 262.173 828.278 261.677 828.854 261.314C829.441 260.951 830.102 260.77 830.838 260.77C831.446 260.77 831.99 260.887 832.47 261.122C832.961 261.357 833.361 261.693 833.67 262.13C833.99 262.557 834.193 263.058 834.278 263.634H833.094C832.988 263.111 832.742 262.685 832.358 262.354C831.974 262.023 831.478 261.858 830.87 261.858C830.348 261.858 829.894 261.986 829.51 262.242C829.126 262.498 828.828 262.861 828.614 263.33C828.401 263.799 828.294 264.349 828.294 264.978C828.294 265.607 828.401 266.162 828.614 266.642C828.828 267.122 829.126 267.495 829.51 267.762C829.905 268.029 830.364 268.162 830.886 268.162C831.473 268.162 831.964 268.002 832.358 267.682C832.753 267.351 833.004 266.925 833.11 266.402H834.294C834.198 266.967 833.985 267.469 833.654 267.906C833.334 268.333 832.934 268.663 832.454 268.898C831.974 269.133 831.441 269.25 830.854 269.25ZM839.546 269.25C838.768 269.25 838.08 269.069 837.482 268.706C836.885 268.333 836.416 267.826 836.074 267.186C835.733 266.546 835.562 265.81 835.562 264.978C835.562 264.146 835.728 263.415 836.058 262.786C836.4 262.146 836.874 261.65 837.482 261.298C838.09 260.946 838.789 260.77 839.578 260.77C840.336 260.77 840.992 260.935 841.546 261.266C842.112 261.597 842.544 262.061 842.842 262.658C843.152 263.255 843.306 263.959 843.306 264.77C843.306 264.877 843.301 264.978 843.29 265.074C843.29 265.17 843.28 265.277 843.258 265.394H836.522V264.322H842.474L842.058 264.914C842.058 263.933 841.84 263.181 841.402 262.658C840.976 262.125 840.368 261.858 839.578 261.858C838.768 261.858 838.112 262.141 837.61 262.706C837.12 263.261 836.874 264.013 836.874 264.962C836.874 265.933 837.12 266.711 837.61 267.298C838.112 267.874 838.778 268.162 839.61 268.162C840.133 268.162 840.592 268.05 840.986 267.826C841.381 267.591 841.669 267.261 841.85 266.834H843.066C842.8 267.581 842.352 268.173 841.722 268.61C841.104 269.037 840.378 269.25 839.546 269.25Z" fill="#2B2A2E"/>
<mask id="path-12-outside-3_12167_1744" maskUnits="userSpaceOnUse" x="0.5" y="184.09" width="387" height="45" fill="black">
<rect fill="white" x="0.5" y="184.09" width="387" height="45"/>
<path d="M0.5 185.09H387.5V229.09H0.5V185.09Z"/>
</mask>
<path d="M0.5 186.09H387.5V184.09H0.5V186.09Z" fill="#D2D2D2" mask="url(#path-12-outside-3_12167_1744)"/>
<path d="M6.05219 213.234C4.70819 213.234 3.63619 212.903 2.83619 212.242C2.04685 211.581 1.58285 210.637 1.44419 209.41H2.72419C2.84152 210.295 3.17752 210.962 3.73219 211.41C4.28685 211.858 5.05485 212.082 6.03619 212.082C6.86819 212.082 7.49219 211.927 7.90819 211.618C8.33485 211.298 8.54819 210.834 8.54819 210.226C8.54819 209.703 8.40419 209.287 8.11619 208.978C7.82819 208.669 7.38019 208.413 6.77219 208.21L4.83619 207.538C3.85485 207.197 3.12952 206.786 2.66019 206.306C2.19085 205.815 1.95619 205.197 1.95619 204.45C1.95619 203.831 2.11085 203.298 2.42019 202.85C2.72952 202.391 3.16685 202.034 3.73219 201.778C4.29752 201.522 4.95352 201.394 5.70019 201.394C6.85219 201.394 7.77485 201.698 8.46819 202.306C9.16152 202.903 9.56152 203.757 9.66819 204.866H8.38819C8.24952 204.066 7.96152 203.479 7.52419 203.106C7.09752 202.733 6.47885 202.546 5.66819 202.546C4.90019 202.546 4.30285 202.701 3.87619 203.01C3.44952 203.319 3.23619 203.757 3.23619 204.322C3.23619 204.802 3.38552 205.186 3.68419 205.474C3.98285 205.762 4.44685 206.013 5.07619 206.226L7.14019 206.946C8.03619 207.255 8.70819 207.677 9.15619 208.21C9.60419 208.733 9.82819 209.399 9.82819 210.21C9.82819 211.17 9.49752 211.917 8.83619 212.45C8.18552 212.973 7.25752 213.234 6.05219 213.234ZM15.8986 213.234C15.1306 213.234 14.4852 213.047 13.9626 212.674C13.4399 212.301 13.0826 211.773 12.8906 211.09L13.1466 211.058V216.37H11.8666V204.93H13.0666V206.834L12.8906 206.786C13.0932 206.157 13.4772 205.666 14.0426 205.314C14.6079 204.951 15.2639 204.77 16.0106 204.77C16.7359 204.77 17.3652 204.946 17.8986 205.298C18.4426 205.65 18.8639 206.141 19.1626 206.77C19.4612 207.399 19.6106 208.135 19.6106 208.978C19.6106 209.831 19.4559 210.578 19.1466 211.218C18.8372 211.858 18.4052 212.354 17.8506 212.706C17.2959 213.058 16.6452 213.234 15.8986 213.234ZM15.7066 212.114C16.5172 212.114 17.1519 211.837 17.6106 211.282C18.0692 210.717 18.2986 209.949 18.2986 208.978C18.2986 208.018 18.0692 207.266 17.6106 206.722C17.1519 206.167 16.5172 205.89 15.7066 205.89C14.8959 205.89 14.2559 206.173 13.7866 206.738C13.3172 207.293 13.0826 208.055 13.0826 209.026C13.0826 209.975 13.3172 210.727 13.7866 211.282C14.2559 211.837 14.8959 212.114 15.7066 212.114ZM24.9937 213.25C24.215 213.25 23.527 213.069 22.9297 212.706C22.3324 212.333 21.863 211.826 21.5217 211.186C21.1804 210.546 21.0097 209.81 21.0097 208.978C21.0097 208.146 21.175 207.415 21.5057 206.786C21.847 206.146 22.3217 205.65 22.9297 205.298C23.5377 204.946 24.2364 204.77 25.0257 204.77C25.783 204.77 26.439 204.935 26.9937 205.266C27.559 205.597 27.991 206.061 28.2897 206.658C28.599 207.255 28.7537 207.959 28.7537 208.77C28.7537 208.877 28.7484 208.978 28.7377 209.074C28.7377 209.17 28.727 209.277 28.7057 209.394H21.9697V208.322H27.9217L27.5057 208.914C27.5057 207.933 27.287 207.181 26.8497 206.658C26.423 206.125 25.815 205.858 25.0257 205.858C24.215 205.858 23.559 206.141 23.0577 206.706C22.567 207.261 22.3217 208.013 22.3217 208.962C22.3217 209.933 22.567 210.711 23.0577 211.298C23.559 211.874 24.2257 212.162 25.0577 212.162C25.5804 212.162 26.039 212.05 26.4337 211.826C26.8284 211.591 27.1164 211.261 27.2977 210.834H28.5137C28.247 211.581 27.799 212.173 27.1697 212.61C26.551 213.037 25.8257 213.25 24.9937 213.25ZM33.9929 213.25C33.2463 213.25 32.5796 213.069 31.9929 212.706C31.4169 212.333 30.9583 211.826 30.6169 211.186C30.2863 210.535 30.1209 209.799 30.1209 208.978C30.1209 208.157 30.2863 207.431 30.6169 206.802C30.9583 206.173 31.4169 205.677 31.9929 205.314C32.5796 204.951 33.2409 204.77 33.9769 204.77C34.5849 204.77 35.1289 204.887 35.6089 205.122C36.0996 205.357 36.4996 205.693 36.8089 206.13C37.1289 206.557 37.3316 207.058 37.4169 207.634H36.2329C36.1263 207.111 35.8809 206.685 35.4969 206.354C35.1129 206.023 34.6169 205.858 34.0089 205.858C33.4863 205.858 33.0329 205.986 32.6489 206.242C32.2649 206.498 31.9663 206.861 31.7529 207.33C31.5396 207.799 31.4329 208.349 31.4329 208.978C31.4329 209.607 31.5396 210.162 31.7529 210.642C31.9663 211.122 32.2649 211.495 32.6489 211.762C33.0436 212.029 33.5023 212.162 34.0249 212.162C34.6116 212.162 35.1023 212.002 35.4969 211.682C35.8916 211.351 36.1423 210.925 36.2489 210.402H37.4329C37.3369 210.967 37.1236 211.469 36.7929 211.906C36.4729 212.333 36.0729 212.663 35.5929 212.898C35.1129 213.133 34.5796 213.25 33.9929 213.25ZM39.3097 213.09V204.93H40.5897V213.09H39.3097ZM39.2137 203.074V201.57H40.6857V203.074H39.2137ZM48.1946 213.09C48.1519 212.909 48.1199 212.701 48.0986 212.466C48.0879 212.231 48.0826 211.933 48.0826 211.57H48.0026V207.666C48.0026 207.047 47.8586 206.594 47.5706 206.306C47.2932 206.007 46.8399 205.858 46.2106 205.858C45.5919 205.858 45.0959 205.986 44.7226 206.242C44.3599 206.487 44.1572 206.839 44.1146 207.298H42.8826C42.9359 206.509 43.2666 205.89 43.8746 205.442C44.4826 204.994 45.2772 204.77 46.2586 204.77C47.2719 204.77 48.0239 205.01 48.5146 205.49C49.0052 205.97 49.2506 206.69 49.2506 207.65V211.57C49.2506 211.805 49.2666 212.05 49.2986 212.306C49.3306 212.551 49.3732 212.813 49.4266 213.09H48.1946ZM45.3946 213.25C44.5519 213.25 43.8799 213.047 43.3786 212.642C42.8879 212.226 42.6426 211.661 42.6426 210.946C42.6426 210.231 42.8879 209.677 43.3786 209.282C43.8692 208.887 44.5839 208.61 45.5226 208.45L48.3706 207.97V209.026L45.7146 209.442C45.1172 209.538 44.6639 209.698 44.3546 209.922C44.0452 210.146 43.8906 210.471 43.8906 210.898C43.8906 211.314 44.0292 211.629 44.3066 211.842C44.5946 212.055 45.0159 212.162 45.5706 212.162C46.2852 212.162 46.8666 212.002 47.3146 211.682C47.7732 211.351 48.0026 210.925 48.0026 210.402L48.2106 211.538C48.0399 212.082 47.7039 212.503 47.2026 212.802C46.7119 213.101 46.1092 213.25 45.3946 213.25ZM51.7978 213.09V201.57H53.0778V213.09H51.7978ZM55.7216 213.09V204.93H57.0016V213.09H55.7216ZM55.6256 203.074V201.57H57.0976V203.074H55.6256ZM59.0106 213.09V212.162L63.9706 205.426L64.4506 206.018H59.1706V204.93H65.1866V205.858L60.2266 212.594L59.7466 212.002H65.3466V213.09H59.0106ZM70.4131 213.25C69.6344 213.25 68.9464 213.069 68.3491 212.706C67.7517 212.333 67.2824 211.826 66.9411 211.186C66.5997 210.546 66.4291 209.81 66.4291 208.978C66.4291 208.146 66.5944 207.415 66.9251 206.786C67.2664 206.146 67.7411 205.65 68.3491 205.298C68.9571 204.946 69.6557 204.77 70.4451 204.77C71.2024 204.77 71.8584 204.935 72.4131 205.266C72.9784 205.597 73.4104 206.061 73.7091 206.658C74.0184 207.255 74.1731 207.959 74.1731 208.77C74.1731 208.877 74.1677 208.978 74.1571 209.074C74.1571 209.17 74.1464 209.277 74.1251 209.394H67.3891V208.322H73.3411L72.9251 208.914C72.9251 207.933 72.7064 207.181 72.2691 206.658C71.8424 206.125 71.2344 205.858 70.4451 205.858C69.6344 205.858 68.9784 206.141 68.4771 206.706C67.9864 207.261 67.7411 208.013 67.7411 208.962C67.7411 209.933 67.9864 210.711 68.4771 211.298C68.9784 211.874 69.6451 212.162 70.4771 212.162C70.9997 212.162 71.4584 212.05 71.8531 211.826C72.2477 211.591 72.5357 211.261 72.7171 210.834H73.9331C73.6664 211.581 73.2184 212.173 72.5891 212.61C71.9704 213.037 71.2451 213.25 70.4131 213.25ZM82.1163 213.09V211.186L82.2763 211.234C82.0736 211.853 81.7003 212.343 81.1563 212.706C80.623 213.069 79.983 213.25 79.2363 213.25C78.5003 213.25 77.855 213.074 77.3003 212.722C76.7563 212.37 76.3296 211.879 76.0203 211.25C75.7216 210.621 75.5723 209.885 75.5723 209.042C75.5723 208.189 75.727 207.442 76.0363 206.802C76.3456 206.162 76.7776 205.666 77.3323 205.314C77.887 204.962 78.5376 204.786 79.2843 204.786C80.0523 204.786 80.6976 204.973 81.2203 205.346C81.743 205.719 82.1003 206.247 82.2923 206.93L82.0363 206.962V201.57H83.3163V213.09H82.1163ZM79.4763 212.13C80.2976 212.13 80.9376 211.853 81.3963 211.298C81.8656 210.733 82.1003 209.965 82.1003 208.994C82.1003 208.045 81.8656 207.293 81.3963 206.738C80.927 206.183 80.287 205.906 79.4763 205.906C78.6656 205.906 78.031 206.183 77.5723 206.738C77.1136 207.293 76.8843 208.061 76.8843 209.042C76.8843 210.002 77.1136 210.759 77.5723 211.314C78.031 211.858 78.6656 212.13 79.4763 212.13ZM94.2226 213.25C93.4332 213.25 92.7026 213.106 92.0306 212.818C91.3692 212.519 90.7932 212.109 90.3026 211.586C89.8119 211.053 89.4332 210.429 89.1666 209.714C88.8999 208.989 88.7666 208.194 88.7666 207.33C88.7666 206.466 88.8999 205.677 89.1666 204.962C89.4332 204.237 89.8066 203.613 90.2866 203.09C90.7772 202.557 91.3532 202.146 92.0146 201.858C92.6866 201.559 93.4172 201.41 94.2066 201.41C95.0706 201.41 95.8439 201.586 96.5266 201.938C97.2199 202.29 97.7852 202.786 98.2226 203.426C98.6706 204.066 98.9479 204.813 99.0546 205.666H97.7426C97.6146 204.717 97.2359 203.97 96.6066 203.426C95.9879 202.871 95.1932 202.594 94.2226 202.594C93.4012 202.594 92.6812 202.797 92.0626 203.202C91.4439 203.597 90.9639 204.151 90.6226 204.866C90.2812 205.57 90.1106 206.391 90.1106 207.33C90.1106 208.269 90.2812 209.095 90.6226 209.81C90.9639 210.514 91.4439 211.069 92.0626 211.474C92.6812 211.869 93.3959 212.066 94.2066 212.066C95.1986 212.066 96.0092 211.789 96.6386 211.234C97.2786 210.679 97.6572 209.933 97.7746 208.994H99.0866C98.9799 209.847 98.7026 210.594 98.2546 211.234C97.8172 211.874 97.2519 212.37 96.5586 212.722C95.8759 213.074 95.0972 213.25 94.2226 213.25ZM104.531 213.25C103.731 213.25 103.027 213.063 102.419 212.69C101.811 212.317 101.336 211.81 100.995 211.17C100.664 210.519 100.499 209.789 100.499 208.978C100.499 208.157 100.67 207.431 101.011 206.802C101.352 206.173 101.822 205.677 102.419 205.314C103.027 204.951 103.731 204.77 104.531 204.77C105.342 204.77 106.046 204.951 106.643 205.314C107.251 205.677 107.72 206.173 108.051 206.802C108.392 207.431 108.563 208.157 108.563 208.978C108.563 209.789 108.392 210.519 108.051 211.17C107.72 211.81 107.251 212.317 106.643 212.69C106.046 213.063 105.342 213.25 104.531 213.25ZM104.531 212.162C105.086 212.162 105.566 212.029 105.971 211.762C106.376 211.485 106.691 211.106 106.915 210.626C107.139 210.146 107.251 209.591 107.251 208.962C107.251 208.023 107 207.271 106.499 206.706C106.008 206.141 105.352 205.858 104.531 205.858C103.72 205.858 103.064 206.141 102.563 206.706C102.062 207.271 101.811 208.023 101.811 208.962C101.811 209.591 101.923 210.146 102.147 210.626C102.371 211.106 102.686 211.485 103.091 211.762C103.507 212.029 103.987 212.162 104.531 212.162ZM113.219 213.25C112.685 213.25 112.211 213.143 111.795 212.93C111.379 212.706 111.053 212.397 110.819 212.002C110.584 211.597 110.467 211.133 110.467 210.61V204.93H111.747V210.274C111.747 210.893 111.896 211.357 112.195 211.666C112.504 211.975 112.941 212.13 113.507 212.13C114.019 212.13 114.472 212.013 114.867 211.778C115.261 211.543 115.571 211.218 115.795 210.802C116.029 210.375 116.147 209.89 116.147 209.346L116.355 211.282C116.088 211.89 115.672 212.37 115.107 212.722C114.541 213.074 113.912 213.25 113.219 213.25ZM116.227 213.09V211.17H116.147V204.93H117.427V213.09H116.227ZM120.065 213.09V204.93H121.265V207.01H121.345V213.09H120.065ZM121.345 208.834L121.137 206.898C121.329 206.205 121.67 205.677 122.161 205.314C122.651 204.951 123.217 204.77 123.857 204.77C124.123 204.77 124.305 204.791 124.401 204.834V206.066C124.347 206.045 124.273 206.034 124.177 206.034C124.081 206.023 123.963 206.018 123.825 206.018C123.014 206.018 122.395 206.263 121.969 206.754C121.553 207.234 121.345 207.927 121.345 208.834ZM128.678 213.25C127.676 213.25 126.876 213.021 126.278 212.562C125.681 212.093 125.34 211.431 125.254 210.578H126.486C126.561 211.101 126.79 211.501 127.174 211.778C127.558 212.055 128.07 212.194 128.71 212.194C129.276 212.194 129.718 212.087 130.038 211.874C130.358 211.661 130.518 211.357 130.518 210.962C130.518 210.685 130.428 210.445 130.246 210.242C130.065 210.029 129.702 209.853 129.158 209.714L127.846 209.378C127.1 209.186 126.54 208.893 126.166 208.498C125.793 208.093 125.606 207.613 125.606 207.058C125.606 206.354 125.868 205.799 126.39 205.394C126.913 204.978 127.622 204.77 128.518 204.77C129.404 204.77 130.124 204.983 130.678 205.41C131.233 205.837 131.548 206.429 131.622 207.186H130.39C130.316 206.749 130.113 206.413 129.782 206.178C129.452 205.943 129.014 205.826 128.47 205.826C127.948 205.826 127.542 205.927 127.254 206.13C126.966 206.322 126.822 206.599 126.822 206.962C126.822 207.239 126.924 207.479 127.126 207.682C127.34 207.885 127.692 208.055 128.182 208.194L129.462 208.546C130.22 208.749 130.79 209.058 131.174 209.474C131.558 209.89 131.75 210.391 131.75 210.978C131.75 211.693 131.478 212.253 130.934 212.658C130.39 213.053 129.638 213.25 128.678 213.25ZM137.178 213.25C136.399 213.25 135.711 213.069 135.114 212.706C134.517 212.333 134.047 211.826 133.706 211.186C133.365 210.546 133.194 209.81 133.194 208.978C133.194 208.146 133.359 207.415 133.69 206.786C134.031 206.146 134.506 205.65 135.114 205.298C135.722 204.946 136.421 204.77 137.21 204.77C137.967 204.77 138.623 204.935 139.178 205.266C139.743 205.597 140.175 206.061 140.474 206.658C140.783 207.255 140.938 207.959 140.938 208.77C140.938 208.877 140.933 208.978 140.922 209.074C140.922 209.17 140.911 209.277 140.89 209.394H134.154V208.322H140.106L139.69 208.914C139.69 207.933 139.471 207.181 139.034 206.658C138.607 206.125 137.999 205.858 137.21 205.858C136.399 205.858 135.743 206.141 135.242 206.706C134.751 207.261 134.506 208.013 134.506 208.962C134.506 209.933 134.751 210.711 135.242 211.298C135.743 211.874 136.41 212.162 137.242 212.162C137.765 212.162 138.223 212.05 138.618 211.826C139.013 211.591 139.301 211.261 139.482 210.834H140.698C140.431 211.581 139.983 212.173 139.354 212.61C138.735 213.037 138.01 213.25 137.178 213.25ZM145.713 213.25C144.711 213.25 143.911 213.021 143.313 212.562C142.716 212.093 142.375 211.431 142.289 210.578H143.521C143.596 211.101 143.825 211.501 144.209 211.778C144.593 212.055 145.105 212.194 145.745 212.194C146.311 212.194 146.753 212.087 147.073 211.874C147.393 211.661 147.553 211.357 147.553 210.962C147.553 210.685 147.463 210.445 147.281 210.242C147.1 210.029 146.737 209.853 146.193 209.714L144.881 209.378C144.135 209.186 143.575 208.893 143.201 208.498C142.828 208.093 142.641 207.613 142.641 207.058C142.641 206.354 142.903 205.799 143.425 205.394C143.948 204.978 144.657 204.77 145.553 204.77C146.439 204.77 147.159 204.983 147.713 205.41C148.268 205.837 148.583 206.429 148.657 207.186H147.425C147.351 206.749 147.148 206.413 146.817 206.178C146.487 205.943 146.049 205.826 145.505 205.826C144.983 205.826 144.577 205.927 144.289 206.13C144.001 206.322 143.857 206.599 143.857 206.962C143.857 207.239 143.959 207.479 144.161 207.682C144.375 207.885 144.727 208.055 145.217 208.194L146.497 208.546C147.255 208.749 147.825 209.058 148.209 209.474C148.593 209.89 148.785 210.391 148.785 210.978C148.785 211.693 148.513 212.253 147.969 212.658C147.425 213.053 146.673 213.25 145.713 213.25Z" fill="#2B2A2E"/>
<path d="M307.981 220.09V197.05L310.501 199.57H302.941V194.89H313.813V220.09H307.981ZM328.991 220.522C326.927 220.522 325.079 220.018 323.447 219.01C321.815 217.978 320.531 216.49 319.595 214.546C318.659 212.602 318.191 210.25 318.191 207.49C318.191 204.73 318.659 202.378 319.595 200.434C320.531 198.49 321.815 197.014 323.447 196.006C325.079 194.974 326.927 194.458 328.991 194.458C331.079 194.458 332.927 194.974 334.535 196.006C336.167 197.014 337.451 198.49 338.387 200.434C339.323 202.378 339.791 204.73 339.791 207.49C339.791 210.25 339.323 212.602 338.387 214.546C337.451 216.49 336.167 217.978 334.535 219.01C332.927 220.018 331.079 220.522 328.991 220.522ZM328.991 215.59C329.975 215.59 330.827 215.314 331.547 214.762C332.291 214.21 332.867 213.334 333.275 212.134C333.707 210.934 333.923 209.386 333.923 207.49C333.923 205.594 333.707 204.046 333.275 202.846C332.867 201.646 332.291 200.77 331.547 200.218C330.827 199.666 329.975 199.39 328.991 199.39C328.031 199.39 327.179 199.666 326.435 200.218C325.715 200.77 325.139 201.646 324.707 202.846C324.299 204.046 324.095 205.594 324.095 207.49C324.095 209.386 324.299 210.934 324.707 212.134C325.139 213.334 325.715 214.21 326.435 214.762C327.179 215.314 328.031 215.59 328.991 215.59ZM353.425 220.522C351.361 220.522 349.513 220.018 347.881 219.01C346.249 217.978 344.965 216.49 344.029 214.546C343.093 212.602 342.625 210.25 342.625 207.49C342.625 204.73 343.093 202.378 344.029 200.434C344.965 198.49 346.249 197.014 347.881 196.006C349.513 194.974 351.361 194.458 353.425 194.458C355.513 194.458 357.361 194.974 358.969 196.006C360.601 197.014 361.885 198.49 362.821 200.434C363.757 202.378 364.225 204.73 364.225 207.49C364.225 210.25 363.757 212.602 362.821 214.546C361.885 216.49 360.601 217.978 358.969 219.01C357.361 220.018 355.513 220.522 353.425 220.522ZM353.425 215.59C354.409 215.59 355.261 215.314 355.981 214.762C356.725 214.21 357.301 213.334 357.709 212.134C358.141 210.934 358.357 209.386 358.357 207.49C358.357 205.594 358.141 204.046 357.709 202.846C357.301 201.646 356.725 200.77 355.981 200.218C355.261 199.666 354.409 199.39 353.425 199.39C352.465 199.39 351.613 199.666 350.869 200.218C350.149 200.77 349.573 201.646 349.141 202.846C348.733 204.046 348.529 205.594 348.529 207.49C348.529 209.386 348.733 210.934 349.141 212.134C349.573 213.334 350.149 214.21 350.869 214.762C351.613 215.314 352.465 215.59 353.425 215.59ZM374.22 215.806V199.174H378.864V215.806H374.22ZM367.992 209.686V205.294H385.128V209.686H367.992Z" fill="#2B2A2E"/>
</svg>
